%TF.GenerationSoftware,KiCad,Pcbnew,(6.0.10-0)*%
%TF.CreationDate,2022-12-29T22:01:07-08:00*%
%TF.ProjectId,HDMI-MUX,48444d49-2d4d-4555-982e-6b696361645f,rev?*%
%TF.SameCoordinates,Original*%
%TF.FileFunction,Drillmap*%
%TF.FilePolarity,Positive*%
%FSLAX45Y45*%
G04 Gerber Fmt 4.5, Leading zero omitted, Abs format (unit mm)*
G04 Created by KiCad (PCBNEW (6.0.10-0)) date 2022-12-29 22:01:07*
%MOMM*%
%LPD*%
G01*
G04 APERTURE LIST*
%ADD10C,0.100000*%
%ADD11C,0.200000*%
G04 APERTURE END LIST*
D10*
X2260600Y-6883400D02*
G75*
G03*
X2336800Y-6959600I76200J0D01*
G01*
X2336800Y-1955800D02*
X7188200Y-1955800D01*
X2260600Y-6883400D02*
X2260600Y-2032000D01*
X7188200Y-6959600D02*
X2336800Y-6959600D01*
X7264400Y-2032000D02*
G75*
G03*
X7188200Y-1955800I-76200J0D01*
G01*
X2336800Y-1955800D02*
G75*
G03*
X2260600Y-2032000I0J-76200D01*
G01*
X7264400Y-2032000D02*
X7264400Y-6883400D01*
X7188200Y-6959600D02*
G75*
G03*
X7264400Y-6883400I0J76200D01*
G01*
D11*
X2513219Y-7275076D02*
X2513219Y-7075076D01*
X2560838Y-7075076D01*
X2589410Y-7084600D01*
X2608457Y-7103648D01*
X2617981Y-7122695D01*
X2627505Y-7160790D01*
X2627505Y-7189362D01*
X2617981Y-7227457D01*
X2608457Y-7246505D01*
X2589410Y-7265552D01*
X2560838Y-7275076D01*
X2513219Y-7275076D01*
X2713219Y-7275076D02*
X2713219Y-7141743D01*
X2713219Y-7179838D02*
X2722743Y-7160790D01*
X2732267Y-7151267D01*
X2751314Y-7141743D01*
X2770362Y-7141743D01*
X2837028Y-7275076D02*
X2837028Y-7141743D01*
X2837028Y-7075076D02*
X2827505Y-7084600D01*
X2837028Y-7094124D01*
X2846552Y-7084600D01*
X2837028Y-7075076D01*
X2837028Y-7094124D01*
X2960838Y-7275076D02*
X2941790Y-7265552D01*
X2932267Y-7246505D01*
X2932267Y-7075076D01*
X3065600Y-7275076D02*
X3046552Y-7265552D01*
X3037028Y-7246505D01*
X3037028Y-7075076D01*
X3294171Y-7275076D02*
X3294171Y-7075076D01*
X3360838Y-7217933D01*
X3427505Y-7075076D01*
X3427505Y-7275076D01*
X3608457Y-7275076D02*
X3608457Y-7170314D01*
X3598933Y-7151267D01*
X3579886Y-7141743D01*
X3541790Y-7141743D01*
X3522743Y-7151267D01*
X3608457Y-7265552D02*
X3589409Y-7275076D01*
X3541790Y-7275076D01*
X3522743Y-7265552D01*
X3513219Y-7246505D01*
X3513219Y-7227457D01*
X3522743Y-7208409D01*
X3541790Y-7198886D01*
X3589409Y-7198886D01*
X3608457Y-7189362D01*
X3703695Y-7141743D02*
X3703695Y-7341743D01*
X3703695Y-7151267D02*
X3722743Y-7141743D01*
X3760838Y-7141743D01*
X3779886Y-7151267D01*
X3789409Y-7160790D01*
X3798933Y-7179838D01*
X3798933Y-7236981D01*
X3789409Y-7256028D01*
X3779886Y-7265552D01*
X3760838Y-7275076D01*
X3722743Y-7275076D01*
X3703695Y-7265552D01*
X3884648Y-7256028D02*
X3894171Y-7265552D01*
X3884648Y-7275076D01*
X3875124Y-7265552D01*
X3884648Y-7256028D01*
X3884648Y-7275076D01*
X3884648Y-7151267D02*
X3894171Y-7160790D01*
X3884648Y-7170314D01*
X3875124Y-7160790D01*
X3884648Y-7151267D01*
X3884648Y-7170314D01*
M02*
