M48
; DRILL file {KiCad (6.0.10-0)} date Thursday, December 29, 2022 at 10:01:06 PM
; FORMAT={-:-/ absolute / inch / decimal}
; #@! TF.CreationDate,2022-12-29T22:01:06-08:00
; #@! TF.GenerationSoftware,Kicad,Pcbnew,(6.0.10-0)
; #@! TF.FileFunction,Plated,1,4,PTH
FMAT,2
INCH
; #@! TA.AperFunction,Plated,PTH,ComponentDrill
T1C0.0079
; #@! TA.AperFunction,Plated,PTH,ViaDrill
T2C0.0118
; #@! TA.AperFunction,Plated,PTH,ViaDrill
T3C0.0157
; #@! TA.AperFunction,Plated,PTH,ComponentDrill
T4C0.0197
; #@! TA.AperFunction,Plated,PTH,ComponentDrill
T5C0.0354
; #@! TA.AperFunction,Plated,PTH,ComponentDrill
T6C0.0394
; #@! TA.AperFunction,Plated,PTH,ComponentDrill
T7C0.0433
; #@! TA.AperFunction,Plated,PTH,ComponentDrill
T8C0.0524
; #@! TA.AperFunction,Plated,PTH,ComponentDrill
T9C0.1181
%
G90
G05
T1
X1.6547Y-1.9065
X1.7014Y-1.876
X1.7014Y-1.9065
X1.7014Y-1.937
X1.7475Y-1.876
X1.7475Y-1.9065
X1.7475Y-1.937
X1.7935Y-1.876
X1.7935Y-1.9065
X1.7935Y-1.937
X1.8396Y-1.876
X1.8396Y-1.9065
X1.8396Y-1.937
X1.8856Y-1.876
X1.8856Y-1.9065
X1.8856Y-1.937
X1.9323Y-1.9065
T2
X0.94Y-2.115
X0.945Y-1.95
X0.995Y-0.985
X1.005Y-2.34
X1.0054Y-1.056
X1.035Y-1.34
X1.04Y-2.555
X1.0448Y-0.9876
X1.0523Y-1.4378
X1.0534Y-1.4851
X1.0684Y-1.4603
X1.0715Y-0.8308
X1.0715Y-0.9091
X1.085Y-2.69
X1.0877Y-1.48
X1.0889Y-1.4402
X1.09Y-1.935
X1.095Y-2.125
X1.0967Y-1.1894
X1.0967Y-1.2378
X1.1Y-1.04
X1.1Y-1.76
X1.105Y-1.665
X1.1078Y-1.4619
X1.1117Y-1.2138
X1.1259Y-1.1894
X1.1263Y-1.2386
X1.1263Y-1.4812
X1.1282Y-1.4406
X1.13Y-2.51
X1.1483Y-1.4619
X1.1491Y-0.8308
X1.1499Y-0.9087
X1.1544Y-2.4849
X1.1645Y-0.9876
X1.168Y-1.4398
X1.1683Y-1.1217
X1.1688Y-1.4839
X1.1725Y-2.3759
X1.185Y-2.53
X1.1873Y-1.2382
X1.19Y-1.34
X1.2019Y-1.2134
X1.212Y-2.22
X1.215Y-0.985
X1.215Y-2.49
X1.2168Y-1.189
X1.2168Y-1.2382
X1.225Y-2.375
X1.2362Y-1.1217
X1.2682Y-2.482
X1.27Y-2.65
X1.285Y-1.58
X1.29Y-1.29
X1.295Y-1.42
X1.3006Y-1.875
X1.3279Y-2.4826
X1.355Y-1.12
X1.355Y-2.08
X1.365Y-0.94
X1.365Y-2.645
X1.3876Y-2.4831
X1.405Y-1.355
X1.41Y-1.66
X1.41Y-1.77
X1.415Y-1.975
X1.4447Y-2.4814
X1.465Y-1.465
X1.47Y-1.595
X1.47Y-1.83
X1.47Y-2.655
X1.48Y-2.095
X1.4844Y-1.195
X1.4844Y-1.275
X1.485Y-0.93
X1.485Y-1.355
X1.495Y-2.015
X1.4996Y-1.9308
X1.5254Y-1.9496
X1.54Y-2.075
X1.55Y-1.315
X1.57Y-0.845
X1.575Y-1.59
X1.58Y-0.96
X1.58Y-1.415
X1.58Y-1.47
X1.605Y-1.005
X1.605Y-1.135
X1.6404Y-1.2164
X1.67Y-1.14
X1.6731Y-1.0128
X1.675Y-1.4
X1.675Y-1.465
X1.675Y-1.595
X1.675Y-1.715
X1.675Y-2.385
X1.68Y-0.85
X1.6974Y-1.18
X1.713Y-1.0229
X1.72Y-0.945
X1.7285Y-1.18
X1.7564Y-1.16
X1.76Y-2.295
X1.772Y-1.023
X1.7876Y-1.16
X1.805Y-0.85
X1.8155Y-1.1836
X1.8311Y-1.023
X1.8466Y-1.1836
X1.87Y-1.0174
X1.8745Y-1.16
X1.905Y-0.85
X1.9057Y-1.16
X1.96Y-1.46
X1.97Y-1.405
X1.97Y-1.585
X1.985Y-1.2
X2.015Y-1.8904
X2.04Y-1.78
X2.04Y-1.865
X2.11Y-1.335
X2.13Y-2.35
X2.16Y-2.51
X2.18Y-0.965
X2.1808Y-0.8122
X2.1808Y-1.0484
X2.1808Y-1.2059
X2.19Y-2.49
X2.1988Y-2.3457
X2.215Y-2.68
X2.2244Y-1.515
X2.2244Y-1.595
X2.23Y-2.35
X2.2418Y-2.4907
X2.255Y-2.37
X2.265Y-1.24
X2.285Y-1.145
X2.2991Y-2.4814
X2.3Y-1.05
X2.33Y-2.68
X2.3584Y-2.4817
X2.37Y-0.87
X2.418Y-2.4822
X2.4229Y-2.0021
X2.44Y-2.055
X2.45Y-1.085
X2.45Y-1.26
X2.4778Y-2.4828
X2.48Y-1.52
X2.485Y-1.775
X2.495Y-2.675
X2.53Y-0.925
X2.5479Y-1.52
X2.57Y-1.115
X2.61Y-1.28
X2.65Y-0.85
X2.69Y-0.965
X2.7Y-1.125
X2.76Y-1.95
X2.77Y-1.65
X2.77Y-1.815
X2.7792Y-0.8122
X2.785Y-1.53
T3
X0.9797Y-2.0417
X0.9797Y-2.218
X1.38Y-1.875
X1.405Y-1.195
X1.41Y-1.28
X1.49Y-1.725
X1.97Y-1.78
X2.145Y-1.515
X2.145Y-1.595
T5
X2.59Y-2.0716
X2.59Y-2.17
X2.59Y-2.2684
T6
X2.761Y-2.151
X2.761Y-2.251
X2.761Y-2.351
X2.761Y-2.451
X2.761Y-2.551
X2.761Y-2.651
T7
X1.0114Y-1.602
X1.0114Y-1.858
X1.1886Y-1.602
X1.1886Y-1.858
X2.1314Y-1.772
X2.1314Y-2.028
X2.3086Y-1.772
X2.3086Y-2.028
X2.4414Y-1.642
X2.4414Y-1.898
X2.6186Y-1.642
X2.6186Y-1.898
T8
X0.9683Y-2.6583
X0.992Y-2.4654
X1.4137Y-0.8461
X1.4374Y-1.039
X1.5628Y-2.4654
X1.5865Y-2.6583
X1.9998Y-2.6583
X2.0082Y-1.039
X2.0235Y-2.4654
X2.0318Y-0.8461
X2.5943Y-2.4654
X2.618Y-2.6583
T9
X1.79Y-2.55
T4
G00X0.9345Y-0.8241
M15
G01X0.9345Y-0.8516
M16
G05
G00X0.9345Y-0.9737
M15
G01X0.9345Y-1.0012
M16
G05
G00X1.2747Y-0.8241
M15
G01X1.2747Y-0.8516
M16
G05
G00X1.2747Y-0.9737
M15
G01X1.2747Y-1.0012
M16
G05
T0
M30
