%TF.GenerationSoftware,KiCad,Pcbnew,(6.0.10-0)*%
%TF.CreationDate,2022-12-29T22:01:02-08:00*%
%TF.ProjectId,HDMI-MUX,48444d49-2d4d-4555-982e-6b696361645f,rev?*%
%TF.SameCoordinates,Original*%
%TF.FileFunction,Soldermask,Bot*%
%TF.FilePolarity,Negative*%
%FSLAX46Y46*%
G04 Gerber Fmt 4.6, Leading zero omitted, Abs format (unit mm)*
G04 Created by KiCad (PCBNEW (6.0.10-0)) date 2022-12-29 22:01:02*
%MOMM*%
%LPD*%
G01*
G04 APERTURE LIST*
%ADD10R,0.700000X1.150000*%
%ADD11R,0.800000X1.150000*%
%ADD12R,0.900000X1.150000*%
%ADD13O,1.000000X2.000000*%
%ADD14C,0.400000*%
%ADD15C,1.995000*%
%ADD16R,1.700000X1.700000*%
%ADD17O,1.700000X1.700000*%
%ADD18C,2.000000*%
%ADD19C,6.000000*%
%ADD20R,1.408000X1.408000*%
%ADD21C,1.408000*%
%ADD22R,0.300000X1.900000*%
G04 APERTURE END LIST*
D10*
%TO.C,J2*%
X27557250Y-25086250D03*
D11*
X29577250Y-25086250D03*
D12*
X30807250Y-25086250D03*
D10*
X28557250Y-25086250D03*
D11*
X26537250Y-25086250D03*
D12*
X25307250Y-25086250D03*
D13*
X23737250Y-25081250D03*
X32377250Y-25081250D03*
X23737250Y-21281250D03*
X32377250Y-21281250D03*
%TD*%
D14*
%TO.C,U3*%
X49080250Y-48424500D03*
X47895250Y-47649500D03*
X47895250Y-48424500D03*
X47895250Y-49199500D03*
X46725250Y-47649500D03*
X46725250Y-48424500D03*
X46725250Y-49199500D03*
X45555250Y-47649500D03*
X45555250Y-48424500D03*
X45555250Y-49199500D03*
X44385250Y-47649500D03*
X44385250Y-48424500D03*
X44385250Y-49199500D03*
X43215250Y-47649500D03*
X43215250Y-48424500D03*
X43215250Y-49199500D03*
X42030250Y-48424500D03*
%TD*%
D15*
%TO.C,J5*%
X39696000Y-62622000D03*
X25196000Y-62622000D03*
X24596000Y-67522000D03*
X40296000Y-67522000D03*
%TD*%
%TO.C,J4*%
X65896000Y-62622000D03*
X51396000Y-62622000D03*
X50796000Y-67522000D03*
X66496000Y-67522000D03*
%TD*%
D16*
%TO.C,J1*%
X70129000Y-54635000D03*
D17*
X70129000Y-57175000D03*
X70129000Y-59715000D03*
X70129000Y-62255000D03*
X70129000Y-64795000D03*
X70129000Y-67335000D03*
%TD*%
D18*
%TO.C,SW1*%
X62012000Y-41708000D03*
X62012000Y-48208000D03*
X66512000Y-41708000D03*
X66512000Y-48208000D03*
%TD*%
%TO.C,SW3*%
X25690000Y-47192000D03*
X25690000Y-40692000D03*
X30190000Y-40692000D03*
X30190000Y-47192000D03*
%TD*%
D19*
%TO.C,REF\u002A\u002A*%
X45466000Y-64770000D03*
%TD*%
D20*
%TO.C,SW2*%
X65786000Y-52618000D03*
D21*
X65786000Y-55118000D03*
X65786000Y-57618000D03*
%TD*%
D18*
%TO.C,SW4*%
X58638000Y-45010000D03*
X58638000Y-51510000D03*
X54138000Y-45010000D03*
X54138000Y-51510000D03*
%TD*%
D22*
%TO.C,J3*%
X48508750Y-27290500D03*
X48008750Y-27290500D03*
X47508750Y-27290500D03*
X47008750Y-27290500D03*
X46508750Y-27290500D03*
X46008750Y-27290500D03*
X45508750Y-27290500D03*
X45008750Y-27290500D03*
X44508750Y-27290500D03*
X44008750Y-27290500D03*
X43508750Y-27290500D03*
X43008750Y-27290500D03*
X42508750Y-27290500D03*
X42008750Y-27290500D03*
X41508750Y-27290500D03*
X41008750Y-27290500D03*
X40508750Y-27290500D03*
X40008750Y-27290500D03*
X39508750Y-27290500D03*
D15*
X51008750Y-26390500D03*
X36508750Y-26390500D03*
X35908750Y-21490500D03*
X51608750Y-21490500D03*
%TD*%
M02*
