M48
; DRILL file {KiCad (6.0.6)} date Mon Jul 25 23:31:54 2022
; FORMAT={-:-/ absolute / metric / decimal}
; #@! TF.CreationDate,2022-07-25T23:31:54-07:00
; #@! TF.GenerationSoftware,Kicad,Pcbnew,(6.0.6)
; #@! TF.FileFunction,Plated,1,4,PTH
FMAT,2
METRIC
; #@! TA.AperFunction,Plated,PTH,ComponentDrill
T1C0.200
; #@! TA.AperFunction,Plated,PTH,ViaDrill
T2C0.300
; #@! TA.AperFunction,Plated,PTH,ViaDrill
T3C0.400
; #@! TA.AperFunction,Plated,PTH,ComponentDrill
T4C0.500
; #@! TA.AperFunction,Plated,PTH,ComponentDrill
T5C0.900
; #@! TA.AperFunction,Plated,PTH,ComponentDrill
T6C1.000
; #@! TA.AperFunction,Plated,PTH,ComponentDrill
T7C1.100
; #@! TA.AperFunction,Plated,PTH,ComponentDrill
T8C1.330
; #@! TA.AperFunction,Plated,PTH,ComponentDrill
T9C3.000
%
G90
G05
T1
X35.8Y-49.057
X36.984Y-48.282
X36.984Y-49.057
X36.984Y-49.832
X38.154Y-48.282
X38.154Y-49.057
X38.154Y-49.832
X39.325Y-48.282
X39.325Y-49.057
X39.325Y-49.832
X40.494Y-48.282
X40.494Y-49.057
X40.494Y-49.832
X41.664Y-48.282
X41.664Y-49.057
X41.664Y-49.832
X42.849Y-49.057
X88.219Y-49.06
X89.404Y-48.285
X89.404Y-49.06
X89.404Y-49.835
X90.574Y-48.285
X90.574Y-49.06
X90.574Y-49.835
X91.744Y-48.285
X91.744Y-49.06
X91.744Y-49.835
X92.914Y-48.285
X92.914Y-49.06
X92.914Y-49.835
X94.084Y-48.285
X94.084Y-49.06
X94.084Y-49.835
X95.269Y-49.06
T2
X17.78Y-19.304
X18.288Y-55.372
X18.542Y-32.766
X19.05Y-42.164
X21.974Y-60.758
X22.206Y-23.144
X22.456Y-24.844
X22.831Y-63.76
X23.456Y-23.109
X23.646Y-34.544
X23.676Y-35.744
X23.876Y-56.388
X23.876Y-60.198
X24.056Y-35.114
X24.136Y-19.124
X24.136Y-21.114
X24.546Y-35.614
X24.576Y-34.604
X24.62Y-63.76
X24.776Y-28.234
X24.776Y-29.464
X24.892Y-44.704
X25.056Y-35.154
X25.146Y-53.848
X25.156Y-28.854
X25.516Y-28.234
X25.526Y-29.484
X25.526Y-35.644
X25.576Y-34.614
X25.774Y-65.177
X25.975Y-63.661
X26.086Y-35.154
X26.106Y-19.124
X26.126Y-21.104
X26.416Y-52.578
X26.496Y-23.109
X26.586Y-34.594
X26.593Y-26.514
X26.606Y-35.714
X27.051Y-28.245
X27.076Y-29.474
X27.315Y-54.608
X27.446Y-28.844
X27.475Y-63.661
X27.686Y-51.308
X27.826Y-28.224
X27.826Y-29.474
X28.319Y-26.514
X28.956Y-50.038
X28.975Y-63.661
X29.99Y-45.93
X30.475Y-63.661
X31.07Y-53.55
X32.258Y-60.706
X33.105Y-47.677
X33.164Y-48.663
X33.274Y-60.706
X33.782Y-51.054
X33.804Y-46.52
X34.29Y-60.706
X35.052Y-37.338
X35.052Y-39.624
X35.052Y-41.656
X35.052Y-43.688
X35.306Y-60.706
X35.56Y-32.004
X36.322Y-60.706
X36.83Y-35.56
X37.084Y-59.944
X37.846Y-59.182
X38.1Y-38.354
X38.608Y-33.782
X39.37Y-62.992
X39.624Y-67.564
X40.132Y-36.576
X40.184Y-58.438
X40.386Y-32.004
X41.656Y-35.052
X42.926Y-28.448
X42.926Y-30.734
X43.434Y-21.082
X44.196Y-51.816
X44.45Y-34.798
X45.215Y-50.637
X45.244Y-60.807
X45.466Y-30.734
X45.57Y-32.74
X45.754Y-44.56
X45.844Y-61.557
X45.934Y-49.747
X45.974Y-53.848
X46.974Y-48.297
X46.99Y-42.164
X47.33Y-46.46
X47.498Y-34.798
X47.699Y-49.033
X47.752Y-30.734
X48.26Y-51.562
X48.26Y-54.61
X49.175Y-63.661
X49.524Y-60.927
X49.554Y-43.37
X50.038Y-30.734
X50.337Y-60.943
X50.531Y-63.76
X51.054Y-34.798
X51.562Y-54.61
X52.175Y-63.661
X52.578Y-30.734
X52.832Y-54.61
X53.34Y-47.752
X53.675Y-63.661
X53.734Y-43.2
X54.102Y-54.61
X54.356Y-34.798
X55.118Y-30.734
X55.124Y-32.526
X55.175Y-63.661
X55.626Y-55.88
X55.764Y-33.015
X56.642Y-56.896
X56.675Y-63.661
X57.658Y-34.798
X57.658Y-57.912
X57.912Y-60.198
X59.944Y-30.734
X61.468Y-34.798
X62.738Y-30.734
X62.738Y-53.594
X64.262Y-34.798
X64.516Y-65.278
X65.532Y-30.734
X67.056Y-34.798
X68.072Y-30.734
X69.596Y-34.798
X69.596Y-58.166
X70.612Y-30.734
X72.136Y-34.798
X72.898Y-29.718
X74.385Y-60.347
X74.676Y-33.782
X75.24Y-63.763
X76.2Y-55.118
X76.2Y-59.436
X76.454Y-26.162
X76.454Y-32.004
X76.708Y-34.798
X77.029Y-63.763
X77.47Y-49.022
X77.654Y-65.418
X77.724Y-53.34
X78.232Y-24.384
X78.384Y-63.664
X78.486Y-29.972
X78.994Y-52.07
X79.502Y-34.798
X79.75Y-54.153
X79.884Y-63.664
X80.01Y-22.606
X80.264Y-50.8
X81.384Y-63.664
X81.534Y-49.53
X82.042Y-26.162
X82.29Y-45.85
X82.885Y-63.664
X83.17Y-53.31
X84.328Y-60.198
X85.334Y-38.754
X85.334Y-39.546
X85.344Y-60.198
X85.364Y-40.374
X85.364Y-41.166
X85.374Y-37.154
X85.374Y-37.946
X85.385Y-35.563
X85.385Y-36.355
X85.564Y-48.665
X85.687Y-47.875
X86.054Y-46.64
X86.36Y-60.198
X86.614Y-33.782
X86.868Y-51.816
X86.944Y-23.4
X87.376Y-28.448
X87.376Y-60.198
X87.63Y-31.242
X88.23Y-24.157
X88.392Y-60.198
X88.524Y-22.514
X89.388Y-28.651
X89.408Y-59.944
X89.537Y-23.238
X89.724Y-27.38
X90.019Y-24.157
X90.17Y-59.182
X90.978Y-28.76
X91.375Y-24.256
X91.694Y-68.58
X91.77Y-28.76
X92.202Y-62.738
X92.478Y-28.069
X92.67Y-58.342
X92.875Y-24.256
X93.27Y-28.069
X93.978Y-28.65
X94.375Y-24.256
X94.77Y-28.65
X95.478Y-27.94
X95.875Y-24.256
X96.064Y-41.34
X96.27Y-27.94
X96.409Y-39.083
X96.774Y-51.816
X97.054Y-41.19
X97.954Y-51.347
X98.044Y-26.924
X98.044Y-30.48
X98.044Y-35.814
X98.052Y-40.998
X98.302Y-49.054
X98.394Y-61.307
X98.514Y-60.188
X98.806Y-53.594
X98.924Y-50.677
X98.984Y-48.307
X99.122Y-36.458
X99.28Y-34.6
X99.3Y-32.61
X99.78Y-38.58
X100.394Y-25.93
X100.584Y-53.848
X101.584Y-63.664
X101.794Y-60.407
X102.014Y-38.61
X102.944Y-60.407
X102.95Y-63.763
X103.846Y-28.61
X103.846Y-34.61
X103.886Y-53.848
X104.585Y-63.664
X104.902Y-49.784
X105.156Y-53.848
X106.085Y-63.664
X106.172Y-53.848
X107.584Y-63.664
X109.084Y-63.664
X110.236Y-57.15
X110.236Y-58.928
X110.49Y-60.452
X110.547Y-46.2
X112.272Y-46.2
X116.991Y-62.2
X116.991Y-66.8
X117.094Y-57.6
X117.154Y-52.99
X118.984Y-34.56
X119.046Y-28.61
X119.046Y-30.61
X119.046Y-36.61
X119.046Y-38.61
X119.046Y-40.61
X120.396Y-59.944
X121.596Y-36.61
X122.936Y-49.784
X123.19Y-30.734
X123.698Y-19.812
T3
X45.607Y-46.44
X97.897Y-46.68
X99.256Y-28.62
X99.62Y-46.68
X122.891Y-62.25
X122.891Y-66.73
X122.991Y-52.97
X123.001Y-57.65
X123.526Y-40.62
X123.536Y-36.68
X123.576Y-38.63
T5
X66.772Y-53.0
X69.272Y-53.0
X71.772Y-53.0
T6
X58.95Y-47.69
X61.49Y-47.69
X64.03Y-47.69
X66.57Y-47.69
X69.11Y-47.69
X71.65Y-47.69
T7
X49.324Y-21.05
X49.324Y-27.55
X53.824Y-21.05
X53.824Y-27.55
X59.784Y-21.05
X59.784Y-27.55
X64.284Y-21.05
X64.284Y-27.55
X69.754Y-21.1
X69.754Y-27.6
X74.254Y-21.1
X74.254Y-27.6
T8
X18.375Y-68.155
X18.975Y-63.255
X33.475Y-63.255
X34.075Y-68.155
X44.575Y-68.155
X45.175Y-63.255
X59.675Y-63.255
X60.275Y-68.155
X70.784Y-68.157
X71.385Y-63.258
X83.775Y-19.762
X84.374Y-24.662
X85.885Y-63.258
X86.484Y-68.157
X96.984Y-68.157
X97.584Y-63.258
X98.874Y-24.662
X99.474Y-19.762
X112.084Y-63.258
X112.684Y-68.157
T9
X21.59Y-50.8
X36.322Y-24.13
X82.55Y-30.988
X109.982Y-52.578
T4
G00X20.656Y-18.954
M15
G01X20.656Y-19.654
M16
G05
G00X20.656Y-22.754
M15
G01X20.656Y-23.454
M16
G05
G00X29.296Y-18.954
M15
G01X29.296Y-19.654
M16
G05
G00X29.296Y-22.754
M15
G01X29.296Y-23.454
M16
G05
T0
M30
