%TF.GenerationSoftware,KiCad,Pcbnew,(6.0.6)*%
%TF.CreationDate,2022-07-25T23:31:34-07:00*%
%TF.ProjectId,HDMI-MUX,48444d49-2d4d-4555-982e-6b696361645f,rev?*%
%TF.SameCoordinates,Original*%
%TF.FileFunction,Soldermask,Bot*%
%TF.FilePolarity,Negative*%
%FSLAX46Y46*%
G04 Gerber Fmt 4.6, Leading zero omitted, Abs format (unit mm)*
G04 Created by KiCad (PCBNEW (6.0.6)) date 2022-07-25 23:31:34*
%MOMM*%
%LPD*%
G01*
G04 APERTURE LIST*
%ADD10C,1.995000*%
%ADD11C,6.000000*%
%ADD12R,1.700000X1.700000*%
%ADD13O,1.700000X1.700000*%
%ADD14C,2.000000*%
%ADD15C,0.400000*%
%ADD16R,1.408000X1.408000*%
%ADD17C,1.408000*%
%ADD18R,0.700000X1.150000*%
%ADD19R,0.800000X1.150000*%
%ADD20R,0.900000X1.150000*%
%ADD21O,1.000000X2.000000*%
%ADD22R,0.300000X1.900000*%
G04 APERTURE END LIST*
D10*
%TO.C,J6*%
X59675250Y-63255000D03*
X45175250Y-63255000D03*
X44575250Y-68155000D03*
X60275250Y-68155000D03*
%TD*%
%TO.C,J7*%
X33475250Y-63255000D03*
X18975250Y-63255000D03*
X18375250Y-68155000D03*
X34075250Y-68155000D03*
%TD*%
D11*
%TO.C,REF\u002A\u002A*%
X109982000Y-52578000D03*
%TD*%
D12*
%TO.C,J1*%
X58950000Y-47690000D03*
D13*
X61490000Y-47690000D03*
X64030000Y-47690000D03*
X66570000Y-47690000D03*
X69110000Y-47690000D03*
X71650000Y-47690000D03*
%TD*%
D14*
%TO.C,SW1*%
X69753750Y-21100000D03*
X69753750Y-27600000D03*
X74253750Y-21100000D03*
X74253750Y-27600000D03*
%TD*%
D10*
%TO.C,J4*%
X112084500Y-63257500D03*
X97584500Y-63257500D03*
X96984500Y-68157500D03*
X112684500Y-68157500D03*
%TD*%
D11*
%TO.C,REF\u002A\u002A*%
X82550000Y-30988000D03*
%TD*%
D15*
%TO.C,U4*%
X42849500Y-49057500D03*
X41664500Y-48282500D03*
X41664500Y-49057500D03*
X41664500Y-49832500D03*
X40494500Y-48282500D03*
X40494500Y-49057500D03*
X40494500Y-49832500D03*
X39324500Y-48282500D03*
X39324500Y-49057500D03*
X39324500Y-49832500D03*
X38154500Y-48282500D03*
X38154500Y-49057500D03*
X38154500Y-49832500D03*
X36984500Y-48282500D03*
X36984500Y-49057500D03*
X36984500Y-49832500D03*
X35799500Y-49057500D03*
%TD*%
D10*
%TO.C,J5*%
X85884500Y-63257500D03*
X71384500Y-63257500D03*
X70784500Y-68157500D03*
X86484500Y-68157500D03*
%TD*%
D14*
%TO.C,SW2*%
X49323750Y-27550000D03*
X49323750Y-21050000D03*
X53823750Y-21050000D03*
X53823750Y-27550000D03*
%TD*%
D15*
%TO.C,U3*%
X95268750Y-49060000D03*
X94083750Y-48285000D03*
X94083750Y-49060000D03*
X94083750Y-49835000D03*
X92913750Y-48285000D03*
X92913750Y-49060000D03*
X92913750Y-49835000D03*
X91743750Y-48285000D03*
X91743750Y-49060000D03*
X91743750Y-49835000D03*
X90573750Y-48285000D03*
X90573750Y-49060000D03*
X90573750Y-49835000D03*
X89403750Y-48285000D03*
X89403750Y-49060000D03*
X89403750Y-49835000D03*
X88218750Y-49060000D03*
%TD*%
D11*
%TO.C,REF\u002A\u002A*%
X21590000Y-50800000D03*
%TD*%
D16*
%TO.C,SW4*%
X66771500Y-53000000D03*
D17*
X69271500Y-53000000D03*
X71771500Y-53000000D03*
%TD*%
D14*
%TO.C,SW3*%
X64283750Y-21050000D03*
X64283750Y-27550000D03*
X59783750Y-21050000D03*
X59783750Y-27550000D03*
%TD*%
D11*
%TO.C,REF\u002A\u002A*%
X36322000Y-24130000D03*
%TD*%
D18*
%TO.C,J2*%
X24476000Y-23109000D03*
D19*
X26496000Y-23109000D03*
D20*
X27726000Y-23109000D03*
D18*
X25476000Y-23109000D03*
D19*
X23456000Y-23109000D03*
D20*
X22226000Y-23109000D03*
D21*
X20656000Y-23104000D03*
X29296000Y-23104000D03*
X20656000Y-19304000D03*
X29296000Y-19304000D03*
%TD*%
D22*
%TO.C,J3*%
X96374500Y-25562500D03*
X95874500Y-25562500D03*
X95374500Y-25562500D03*
X94874500Y-25562500D03*
X94374500Y-25562500D03*
X93874500Y-25562500D03*
X93374500Y-25562500D03*
X92874500Y-25562500D03*
X92374500Y-25562500D03*
X91874500Y-25562500D03*
X91374500Y-25562500D03*
X90874500Y-25562500D03*
X90374500Y-25562500D03*
X89874500Y-25562500D03*
X89374500Y-25562500D03*
X88874500Y-25562500D03*
X88374500Y-25562500D03*
X87874500Y-25562500D03*
X87374500Y-25562500D03*
D10*
X98874500Y-24662500D03*
X84374500Y-24662500D03*
X83774500Y-19762500D03*
X99474500Y-19762500D03*
%TD*%
M02*
