%TF.GenerationSoftware,KiCad,Pcbnew,(6.0.6)*%
%TF.CreationDate,2022-07-25T23:31:33-07:00*%
%TF.ProjectId,HDMI-MUX,48444d49-2d4d-4555-982e-6b696361645f,rev?*%
%TF.SameCoordinates,Original*%
%TF.FileFunction,Legend,Bot*%
%TF.FilePolarity,Positive*%
%FSLAX46Y46*%
G04 Gerber Fmt 4.6, Leading zero omitted, Abs format (unit mm)*
G04 Created by KiCad (PCBNEW (6.0.6)) date 2022-07-25 23:31:33*
%MOMM*%
%LPD*%
G01*
G04 APERTURE LIST*
%ADD10C,0.200000*%
%ADD11C,0.150000*%
%ADD12C,0.127000*%
G04 APERTURE END LIST*
D10*
X29884000Y-58067380D02*
X29884000Y-57067380D01*
X29884000Y-57543571D02*
X29312571Y-57543571D01*
X29312571Y-58067380D02*
X29312571Y-57067380D01*
X28836380Y-58067380D02*
X28836380Y-57067380D01*
X28598285Y-57067380D01*
X28455428Y-57115000D01*
X28360190Y-57210238D01*
X28312571Y-57305476D01*
X28264952Y-57495952D01*
X28264952Y-57638809D01*
X28312571Y-57829285D01*
X28360190Y-57924523D01*
X28455428Y-58019761D01*
X28598285Y-58067380D01*
X28836380Y-58067380D01*
X27836380Y-58067380D02*
X27836380Y-57067380D01*
X27503047Y-57781666D01*
X27169714Y-57067380D01*
X27169714Y-58067380D01*
X26693523Y-58067380D02*
X26693523Y-57067380D01*
X26217333Y-57686428D02*
X25455428Y-57686428D01*
X24979238Y-58067380D02*
X24979238Y-57067380D01*
X24645904Y-57781666D01*
X24312571Y-57067380D01*
X24312571Y-58067380D01*
X23836380Y-57067380D02*
X23836380Y-57876904D01*
X23788761Y-57972142D01*
X23741142Y-58019761D01*
X23645904Y-58067380D01*
X23455428Y-58067380D01*
X23360190Y-58019761D01*
X23312571Y-57972142D01*
X23264952Y-57876904D01*
X23264952Y-57067380D01*
X22884000Y-57067380D02*
X22217333Y-58067380D01*
X22217333Y-57067380D02*
X22884000Y-58067380D01*
X21169714Y-57400714D02*
X20931619Y-58067380D01*
X20693523Y-57400714D01*
X20122095Y-57067380D02*
X20026857Y-57067380D01*
X19931619Y-57115000D01*
X19884000Y-57162619D01*
X19836380Y-57257857D01*
X19788761Y-57448333D01*
X19788761Y-57686428D01*
X19836380Y-57876904D01*
X19884000Y-57972142D01*
X19931619Y-58019761D01*
X20026857Y-58067380D01*
X20122095Y-58067380D01*
X20217333Y-58019761D01*
X20264952Y-57972142D01*
X20312571Y-57876904D01*
X20360190Y-57686428D01*
X20360190Y-57448333D01*
X20312571Y-57257857D01*
X20264952Y-57162619D01*
X20217333Y-57115000D01*
X20122095Y-57067380D01*
X18836380Y-58067380D02*
X19407809Y-58067380D01*
X19122095Y-58067380D02*
X19122095Y-57067380D01*
X19217333Y-57210238D01*
X19312571Y-57305476D01*
X19407809Y-57353095D01*
X31860190Y-58772619D02*
X31812571Y-58725000D01*
X31717333Y-58677380D01*
X31479238Y-58677380D01*
X31384000Y-58725000D01*
X31336380Y-58772619D01*
X31288761Y-58867857D01*
X31288761Y-58963095D01*
X31336380Y-59105952D01*
X31907809Y-59677380D01*
X31288761Y-59677380D01*
X30669714Y-58677380D02*
X30574476Y-58677380D01*
X30479238Y-58725000D01*
X30431619Y-58772619D01*
X30384000Y-58867857D01*
X30336380Y-59058333D01*
X30336380Y-59296428D01*
X30384000Y-59486904D01*
X30431619Y-59582142D01*
X30479238Y-59629761D01*
X30574476Y-59677380D01*
X30669714Y-59677380D01*
X30764952Y-59629761D01*
X30812571Y-59582142D01*
X30860190Y-59486904D01*
X30907809Y-59296428D01*
X30907809Y-59058333D01*
X30860190Y-58867857D01*
X30812571Y-58772619D01*
X30764952Y-58725000D01*
X30669714Y-58677380D01*
X29955428Y-58772619D02*
X29907809Y-58725000D01*
X29812571Y-58677380D01*
X29574476Y-58677380D01*
X29479238Y-58725000D01*
X29431619Y-58772619D01*
X29384000Y-58867857D01*
X29384000Y-58963095D01*
X29431619Y-59105952D01*
X30003047Y-59677380D01*
X29384000Y-59677380D01*
X29003047Y-58772619D02*
X28955428Y-58725000D01*
X28860190Y-58677380D01*
X28622095Y-58677380D01*
X28526857Y-58725000D01*
X28479238Y-58772619D01*
X28431619Y-58867857D01*
X28431619Y-58963095D01*
X28479238Y-59105952D01*
X29050666Y-59677380D01*
X28431619Y-59677380D01*
X26669714Y-59677380D02*
X27003047Y-59201190D01*
X27241142Y-59677380D02*
X27241142Y-58677380D01*
X26860190Y-58677380D01*
X26764952Y-58725000D01*
X26717333Y-58772619D01*
X26669714Y-58867857D01*
X26669714Y-59010714D01*
X26717333Y-59105952D01*
X26764952Y-59153571D01*
X26860190Y-59201190D01*
X27241142Y-59201190D01*
X26241142Y-59677380D02*
X26241142Y-59010714D01*
X26241142Y-58677380D02*
X26288761Y-58725000D01*
X26241142Y-58772619D01*
X26193523Y-58725000D01*
X26241142Y-58677380D01*
X26241142Y-58772619D01*
X25622095Y-59677380D02*
X25717333Y-59629761D01*
X25764952Y-59582142D01*
X25812571Y-59486904D01*
X25812571Y-59201190D01*
X25764952Y-59105952D01*
X25717333Y-59058333D01*
X25622095Y-59010714D01*
X25479238Y-59010714D01*
X25384000Y-59058333D01*
X25336380Y-59105952D01*
X25288761Y-59201190D01*
X25288761Y-59486904D01*
X25336380Y-59582142D01*
X25384000Y-59629761D01*
X25479238Y-59677380D01*
X25622095Y-59677380D01*
X24860190Y-59010714D02*
X24860190Y-59677380D01*
X24860190Y-59105952D02*
X24812571Y-59058333D01*
X24717333Y-59010714D01*
X24574476Y-59010714D01*
X24479238Y-59058333D01*
X24431619Y-59153571D01*
X24431619Y-59677380D01*
X22669714Y-58725000D02*
X22764952Y-58677380D01*
X22907809Y-58677380D01*
X23050666Y-58725000D01*
X23145904Y-58820238D01*
X23193523Y-58915476D01*
X23241142Y-59105952D01*
X23241142Y-59248809D01*
X23193523Y-59439285D01*
X23145904Y-59534523D01*
X23050666Y-59629761D01*
X22907809Y-59677380D01*
X22812571Y-59677380D01*
X22669714Y-59629761D01*
X22622095Y-59582142D01*
X22622095Y-59248809D01*
X22812571Y-59248809D01*
X22193523Y-59677380D02*
X22193523Y-59010714D01*
X22193523Y-59201190D02*
X22145904Y-59105952D01*
X22098285Y-59058333D01*
X22003047Y-59010714D01*
X21907809Y-59010714D01*
X21431619Y-59677380D02*
X21526857Y-59629761D01*
X21574476Y-59582142D01*
X21622095Y-59486904D01*
X21622095Y-59201190D01*
X21574476Y-59105952D01*
X21526857Y-59058333D01*
X21431619Y-59010714D01*
X21288761Y-59010714D01*
X21193523Y-59058333D01*
X21145904Y-59105952D01*
X21098285Y-59201190D01*
X21098285Y-59486904D01*
X21145904Y-59582142D01*
X21193523Y-59629761D01*
X21288761Y-59677380D01*
X21431619Y-59677380D01*
X20669714Y-59010714D02*
X20669714Y-59677380D01*
X20669714Y-59105952D02*
X20622095Y-59058333D01*
X20526857Y-59010714D01*
X20384000Y-59010714D01*
X20288761Y-59058333D01*
X20241142Y-59153571D01*
X20241142Y-59677380D01*
X19764952Y-59677380D02*
X19764952Y-58677380D01*
X19764952Y-59058333D02*
X19669714Y-59010714D01*
X19479238Y-59010714D01*
X19384000Y-59058333D01*
X19336380Y-59105952D01*
X19288761Y-59201190D01*
X19288761Y-59486904D01*
X19336380Y-59582142D01*
X19384000Y-59629761D01*
X19479238Y-59677380D01*
X19669714Y-59677380D01*
X19764952Y-59629761D01*
X18479238Y-59629761D02*
X18574476Y-59677380D01*
X18764952Y-59677380D01*
X18860190Y-59629761D01*
X18907809Y-59534523D01*
X18907809Y-59153571D01*
X18860190Y-59058333D01*
X18764952Y-59010714D01*
X18574476Y-59010714D01*
X18479238Y-59058333D01*
X18431619Y-59153571D01*
X18431619Y-59248809D01*
X18907809Y-59344047D01*
X18003047Y-59677380D02*
X18003047Y-59010714D01*
X18003047Y-59201190D02*
X17955428Y-59105952D01*
X17907809Y-59058333D01*
X17812571Y-59010714D01*
X17717333Y-59010714D01*
X16955428Y-59010714D02*
X16955428Y-59820238D01*
X17003047Y-59915476D01*
X17050666Y-59963095D01*
X17145904Y-60010714D01*
X17288761Y-60010714D01*
X17384000Y-59963095D01*
X16955428Y-59629761D02*
X17050666Y-59677380D01*
X17241142Y-59677380D01*
X17336380Y-59629761D01*
X17384000Y-59582142D01*
X17431619Y-59486904D01*
X17431619Y-59201190D01*
X17384000Y-59105952D01*
X17336380Y-59058333D01*
X17241142Y-59010714D01*
X17050666Y-59010714D01*
X16955428Y-59058333D01*
D11*
%TO.C,J2*%
X23448467Y-25792803D02*
X23448467Y-26355233D01*
X23485962Y-26467719D01*
X23560953Y-26542710D01*
X23673439Y-26580205D01*
X23748430Y-26580205D01*
X23111009Y-25867794D02*
X23073514Y-25830299D01*
X22998523Y-25792803D01*
X22811046Y-25792803D01*
X22736056Y-25830299D01*
X22698560Y-25867794D01*
X22661065Y-25942785D01*
X22661065Y-26017775D01*
X22698560Y-26130261D01*
X23148504Y-26580205D01*
X22661065Y-26580205D01*
%TO.C,J3*%
X88442833Y-27599880D02*
X88442833Y-28314166D01*
X88490452Y-28457023D01*
X88585690Y-28552261D01*
X88728547Y-28599880D01*
X88823785Y-28599880D01*
X88061880Y-27599880D02*
X87442833Y-27599880D01*
X87776166Y-27980833D01*
X87633309Y-27980833D01*
X87538071Y-28028452D01*
X87490452Y-28076071D01*
X87442833Y-28171309D01*
X87442833Y-28409404D01*
X87490452Y-28504642D01*
X87538071Y-28552261D01*
X87633309Y-28599880D01*
X87919023Y-28599880D01*
X88014261Y-28552261D01*
X88061880Y-28504642D01*
D12*
%TO.C,J2*%
X29446000Y-16704000D02*
X29446000Y-17954000D01*
X20506000Y-20654000D02*
X20506000Y-21754000D01*
X20506000Y-16704000D02*
X20506000Y-17954000D01*
X20506000Y-16704000D02*
X29446000Y-16704000D01*
X29446000Y-20654000D02*
X29446000Y-21754000D01*
%TO.C,J3*%
X84124500Y-23342500D02*
X84124500Y-21082500D01*
X99124500Y-23342500D02*
X99124500Y-21082500D01*
X84124500Y-17162500D02*
X99124500Y-17162500D01*
X99124500Y-17162500D02*
X99124500Y-18562500D01*
X84124500Y-18662500D02*
X84124500Y-17162500D01*
D10*
X96624500Y-27112500D02*
G75*
G03*
X96624500Y-27112500I-100000J0D01*
G01*
%TD*%
M02*
