%TF.GenerationSoftware,KiCad,Pcbnew,(6.0.10-0)*%
%TF.CreationDate,2022-12-27T23:39:26-08:00*%
%TF.ProjectId,HDMI-MUX,48444d49-2d4d-4555-982e-6b696361645f,rev?*%
%TF.SameCoordinates,Original*%
%TF.FileFunction,Paste,Top*%
%TF.FilePolarity,Positive*%
%FSLAX46Y46*%
G04 Gerber Fmt 4.6, Leading zero omitted, Abs format (unit mm)*
G04 Created by KiCad (PCBNEW (6.0.10-0)) date 2022-12-27 23:39:26*
%MOMM*%
%LPD*%
G01*
G04 APERTURE LIST*
G04 Aperture macros list*
%AMRoundRect*
0 Rectangle with rounded corners*
0 $1 Rounding radius*
0 $2 $3 $4 $5 $6 $7 $8 $9 X,Y pos of 4 corners*
0 Add a 4 corners polygon primitive as box body*
4,1,4,$2,$3,$4,$5,$6,$7,$8,$9,$2,$3,0*
0 Add four circle primitives for the rounded corners*
1,1,$1+$1,$2,$3*
1,1,$1+$1,$4,$5*
1,1,$1+$1,$6,$7*
1,1,$1+$1,$8,$9*
0 Add four rect primitives between the rounded corners*
20,1,$1+$1,$2,$3,$4,$5,0*
20,1,$1+$1,$4,$5,$6,$7,0*
20,1,$1+$1,$6,$7,$8,$9,0*
20,1,$1+$1,$8,$9,$2,$3,0*%
G04 Aperture macros list end*
%ADD10C,0.010000*%
%ADD11R,0.300000X1.900000*%
%ADD12RoundRect,0.250000X-0.350000X-0.450000X0.350000X-0.450000X0.350000X0.450000X-0.350000X0.450000X0*%
%ADD13RoundRect,0.237500X0.237500X-0.300000X0.237500X0.300000X-0.237500X0.300000X-0.237500X-0.300000X0*%
%ADD14RoundRect,0.250000X0.350000X0.450000X-0.350000X0.450000X-0.350000X-0.450000X0.350000X-0.450000X0*%
%ADD15RoundRect,0.250000X-0.450000X0.350000X-0.450000X-0.350000X0.450000X-0.350000X0.450000X0.350000X0*%
%ADD16RoundRect,0.237500X0.300000X0.237500X-0.300000X0.237500X-0.300000X-0.237500X0.300000X-0.237500X0*%
%ADD17RoundRect,0.250000X0.325000X0.450000X-0.325000X0.450000X-0.325000X-0.450000X0.325000X-0.450000X0*%
%ADD18RoundRect,0.008100X-0.126900X0.421900X-0.126900X-0.421900X0.126900X-0.421900X0.126900X0.421900X0*%
%ADD19RoundRect,0.008100X-0.421900X-0.126900X0.421900X-0.126900X0.421900X0.126900X-0.421900X0.126900X0*%
%ADD20RoundRect,0.237500X-0.300000X-0.237500X0.300000X-0.237500X0.300000X0.237500X-0.300000X0.237500X0*%
%ADD21R,2.500000X1.000000*%
%ADD22R,1.000000X1.800000*%
%ADD23R,1.500000X2.000000*%
%ADD24R,3.800000X2.000000*%
G04 APERTURE END LIST*
%TO.C,U4*%
G36*
X40394500Y-48957500D02*
G01*
X39424500Y-48957500D01*
X39424500Y-48037500D01*
X40394500Y-48037500D01*
X40394500Y-48957500D01*
G37*
D10*
X40394500Y-48957500D02*
X39424500Y-48957500D01*
X39424500Y-48037500D01*
X40394500Y-48037500D01*
X40394500Y-48957500D01*
G36*
X38054500Y-48957500D02*
G01*
X37084500Y-48957500D01*
X37084500Y-48037500D01*
X38054500Y-48037500D01*
X38054500Y-48957500D01*
G37*
X38054500Y-48957500D02*
X37084500Y-48957500D01*
X37084500Y-48037500D01*
X38054500Y-48037500D01*
X38054500Y-48957500D01*
G36*
X41564500Y-48957500D02*
G01*
X40594500Y-48957500D01*
X40594500Y-48037500D01*
X41564500Y-48037500D01*
X41564500Y-48957500D01*
G37*
X41564500Y-48957500D02*
X40594500Y-48957500D01*
X40594500Y-48037500D01*
X41564500Y-48037500D01*
X41564500Y-48957500D01*
G36*
X36884500Y-48957500D02*
G01*
X35914500Y-48957500D01*
X35914500Y-48037500D01*
X36884500Y-48037500D01*
X36884500Y-48957500D01*
G37*
X36884500Y-48957500D02*
X35914500Y-48957500D01*
X35914500Y-48037500D01*
X36884500Y-48037500D01*
X36884500Y-48957500D01*
G36*
X36884500Y-50077500D02*
G01*
X35914500Y-50077500D01*
X35914500Y-49157500D01*
X36884500Y-49157500D01*
X36884500Y-50077500D01*
G37*
X36884500Y-50077500D02*
X35914500Y-50077500D01*
X35914500Y-49157500D01*
X36884500Y-49157500D01*
X36884500Y-50077500D01*
G36*
X41564500Y-50077500D02*
G01*
X40594500Y-50077500D01*
X40594500Y-49157500D01*
X41564500Y-49157500D01*
X41564500Y-50077500D01*
G37*
X41564500Y-50077500D02*
X40594500Y-50077500D01*
X40594500Y-49157500D01*
X41564500Y-49157500D01*
X41564500Y-50077500D01*
G36*
X39224500Y-48957500D02*
G01*
X38254500Y-48957500D01*
X38254500Y-48037500D01*
X39224500Y-48037500D01*
X39224500Y-48957500D01*
G37*
X39224500Y-48957500D02*
X38254500Y-48957500D01*
X38254500Y-48037500D01*
X39224500Y-48037500D01*
X39224500Y-48957500D01*
G36*
X42734500Y-50077500D02*
G01*
X41764500Y-50077500D01*
X41764500Y-49157500D01*
X42734500Y-49157500D01*
X42734500Y-50077500D01*
G37*
X42734500Y-50077500D02*
X41764500Y-50077500D01*
X41764500Y-49157500D01*
X42734500Y-49157500D01*
X42734500Y-50077500D01*
G36*
X40394500Y-50077500D02*
G01*
X39424500Y-50077500D01*
X39424500Y-49157500D01*
X40394500Y-49157500D01*
X40394500Y-50077500D01*
G37*
X40394500Y-50077500D02*
X39424500Y-50077500D01*
X39424500Y-49157500D01*
X40394500Y-49157500D01*
X40394500Y-50077500D01*
G36*
X39224500Y-50077500D02*
G01*
X38254500Y-50077500D01*
X38254500Y-49157500D01*
X39224500Y-49157500D01*
X39224500Y-50077500D01*
G37*
X39224500Y-50077500D02*
X38254500Y-50077500D01*
X38254500Y-49157500D01*
X39224500Y-49157500D01*
X39224500Y-50077500D01*
G36*
X42734500Y-48957500D02*
G01*
X41764500Y-48957500D01*
X41764500Y-48037500D01*
X42734500Y-48037500D01*
X42734500Y-48957500D01*
G37*
X42734500Y-48957500D02*
X41764500Y-48957500D01*
X41764500Y-48037500D01*
X42734500Y-48037500D01*
X42734500Y-48957500D01*
G36*
X38054500Y-50077500D02*
G01*
X37084500Y-50077500D01*
X37084500Y-49157500D01*
X38054500Y-49157500D01*
X38054500Y-50077500D01*
G37*
X38054500Y-50077500D02*
X37084500Y-50077500D01*
X37084500Y-49157500D01*
X38054500Y-49157500D01*
X38054500Y-50077500D01*
%TO.C,U3*%
G36*
X93983750Y-48960000D02*
G01*
X93013750Y-48960000D01*
X93013750Y-48040000D01*
X93983750Y-48040000D01*
X93983750Y-48960000D01*
G37*
X93983750Y-48960000D02*
X93013750Y-48960000D01*
X93013750Y-48040000D01*
X93983750Y-48040000D01*
X93983750Y-48960000D01*
G36*
X90473750Y-48960000D02*
G01*
X89503750Y-48960000D01*
X89503750Y-48040000D01*
X90473750Y-48040000D01*
X90473750Y-48960000D01*
G37*
X90473750Y-48960000D02*
X89503750Y-48960000D01*
X89503750Y-48040000D01*
X90473750Y-48040000D01*
X90473750Y-48960000D01*
G36*
X95153750Y-50080000D02*
G01*
X94183750Y-50080000D01*
X94183750Y-49160000D01*
X95153750Y-49160000D01*
X95153750Y-50080000D01*
G37*
X95153750Y-50080000D02*
X94183750Y-50080000D01*
X94183750Y-49160000D01*
X95153750Y-49160000D01*
X95153750Y-50080000D01*
G36*
X93983750Y-50080000D02*
G01*
X93013750Y-50080000D01*
X93013750Y-49160000D01*
X93983750Y-49160000D01*
X93983750Y-50080000D01*
G37*
X93983750Y-50080000D02*
X93013750Y-50080000D01*
X93013750Y-49160000D01*
X93983750Y-49160000D01*
X93983750Y-50080000D01*
G36*
X90473750Y-50080000D02*
G01*
X89503750Y-50080000D01*
X89503750Y-49160000D01*
X90473750Y-49160000D01*
X90473750Y-50080000D01*
G37*
X90473750Y-50080000D02*
X89503750Y-50080000D01*
X89503750Y-49160000D01*
X90473750Y-49160000D01*
X90473750Y-50080000D01*
G36*
X89303750Y-48960000D02*
G01*
X88333750Y-48960000D01*
X88333750Y-48040000D01*
X89303750Y-48040000D01*
X89303750Y-48960000D01*
G37*
X89303750Y-48960000D02*
X88333750Y-48960000D01*
X88333750Y-48040000D01*
X89303750Y-48040000D01*
X89303750Y-48960000D01*
G36*
X89303750Y-50080000D02*
G01*
X88333750Y-50080000D01*
X88333750Y-49160000D01*
X89303750Y-49160000D01*
X89303750Y-50080000D01*
G37*
X89303750Y-50080000D02*
X88333750Y-50080000D01*
X88333750Y-49160000D01*
X89303750Y-49160000D01*
X89303750Y-50080000D01*
G36*
X92813750Y-48960000D02*
G01*
X91843750Y-48960000D01*
X91843750Y-48040000D01*
X92813750Y-48040000D01*
X92813750Y-48960000D01*
G37*
X92813750Y-48960000D02*
X91843750Y-48960000D01*
X91843750Y-48040000D01*
X92813750Y-48040000D01*
X92813750Y-48960000D01*
G36*
X92813750Y-50080000D02*
G01*
X91843750Y-50080000D01*
X91843750Y-49160000D01*
X92813750Y-49160000D01*
X92813750Y-50080000D01*
G37*
X92813750Y-50080000D02*
X91843750Y-50080000D01*
X91843750Y-49160000D01*
X92813750Y-49160000D01*
X92813750Y-50080000D01*
G36*
X95153750Y-48960000D02*
G01*
X94183750Y-48960000D01*
X94183750Y-48040000D01*
X95153750Y-48040000D01*
X95153750Y-48960000D01*
G37*
X95153750Y-48960000D02*
X94183750Y-48960000D01*
X94183750Y-48040000D01*
X95153750Y-48040000D01*
X95153750Y-48960000D01*
G36*
X91643750Y-48960000D02*
G01*
X90673750Y-48960000D01*
X90673750Y-48040000D01*
X91643750Y-48040000D01*
X91643750Y-48960000D01*
G37*
X91643750Y-48960000D02*
X90673750Y-48960000D01*
X90673750Y-48040000D01*
X91643750Y-48040000D01*
X91643750Y-48960000D01*
G36*
X91643750Y-50080000D02*
G01*
X90673750Y-50080000D01*
X90673750Y-49160000D01*
X91643750Y-49160000D01*
X91643750Y-50080000D01*
G37*
X91643750Y-50080000D02*
X90673750Y-50080000D01*
X90673750Y-49160000D01*
X91643750Y-49160000D01*
X91643750Y-50080000D01*
%TD*%
D11*
%TO.C,J6*%
X57175250Y-62355000D03*
X56675250Y-62355000D03*
X56175250Y-62355000D03*
X55675250Y-62355000D03*
X55175250Y-62355000D03*
X54675250Y-62355000D03*
X54175250Y-62355000D03*
X53675250Y-62355000D03*
X53175250Y-62355000D03*
X52675250Y-62355000D03*
X52175250Y-62355000D03*
X51675250Y-62355000D03*
X51175250Y-62355000D03*
X50675250Y-62355000D03*
X50175250Y-62355000D03*
X49675250Y-62355000D03*
X49175250Y-62355000D03*
X48675250Y-62355000D03*
X48175250Y-62355000D03*
%TD*%
D12*
%TO.C,R12*%
X121596250Y-40630000D03*
X123596250Y-40630000D03*
%TD*%
D11*
%TO.C,J7*%
X30975250Y-62355000D03*
X30475250Y-62355000D03*
X29975250Y-62355000D03*
X29475250Y-62355000D03*
X28975250Y-62355000D03*
X28475250Y-62355000D03*
X27975250Y-62355000D03*
X27475250Y-62355000D03*
X26975250Y-62355000D03*
X26475250Y-62355000D03*
X25975250Y-62355000D03*
X25475250Y-62355000D03*
X24975250Y-62355000D03*
X24475250Y-62355000D03*
X23975250Y-62355000D03*
X23475250Y-62355000D03*
X22975250Y-62355000D03*
X22475250Y-62355000D03*
X21975250Y-62355000D03*
%TD*%
D13*
%TO.C,C2*%
X22456000Y-26566500D03*
X22456000Y-24841500D03*
%TD*%
D14*
%TO.C,R9*%
X123596250Y-36610000D03*
X121596250Y-36610000D03*
%TD*%
D15*
%TO.C,R2*%
X26126000Y-19104000D03*
X26126000Y-21104000D03*
%TD*%
D16*
%TO.C,C4*%
X99622500Y-46680000D03*
X97897500Y-46680000D03*
%TD*%
D14*
%TO.C,R11*%
X123596250Y-38610000D03*
X121596250Y-38610000D03*
%TD*%
D17*
%TO.C,D1*%
X122896250Y-66800000D03*
X120846250Y-66800000D03*
%TD*%
D14*
%TO.C,R5*%
X118991250Y-66800000D03*
X116991250Y-66800000D03*
%TD*%
D17*
%TO.C,D3*%
X122996250Y-57600000D03*
X120946250Y-57600000D03*
%TD*%
D15*
%TO.C,R1*%
X24136000Y-19114000D03*
X24136000Y-21114000D03*
%TD*%
D16*
%TO.C,C1*%
X112272500Y-46200000D03*
X110547500Y-46200000D03*
%TD*%
D14*
%TO.C,R13*%
X84260000Y-45810000D03*
X82260000Y-45810000D03*
%TD*%
D11*
%TO.C,J4*%
X109584500Y-62357500D03*
X109084500Y-62357500D03*
X108584500Y-62357500D03*
X108084500Y-62357500D03*
X107584500Y-62357500D03*
X107084500Y-62357500D03*
X106584500Y-62357500D03*
X106084500Y-62357500D03*
X105584500Y-62357500D03*
X105084500Y-62357500D03*
X104584500Y-62357500D03*
X104084500Y-62357500D03*
X103584500Y-62357500D03*
X103084500Y-62357500D03*
X102584500Y-62357500D03*
X102084500Y-62357500D03*
X101584500Y-62357500D03*
X101084500Y-62357500D03*
X100584500Y-62357500D03*
%TD*%
D17*
%TO.C,D4*%
X123006250Y-53000000D03*
X120956250Y-53000000D03*
%TD*%
D18*
%TO.C,U4*%
X43324500Y-47372500D03*
X42824500Y-47372500D03*
X42324500Y-47372500D03*
X41824500Y-47372500D03*
X41324500Y-47372500D03*
X40824500Y-47372500D03*
X40324500Y-47372500D03*
X39824500Y-47372500D03*
X39324500Y-47372500D03*
X38824500Y-47372500D03*
X38324500Y-47372500D03*
X37824500Y-47372500D03*
X37324500Y-47372500D03*
X36824500Y-47372500D03*
X36324500Y-47372500D03*
X35824500Y-47372500D03*
X35324500Y-47372500D03*
D19*
X34889500Y-48307500D03*
X34889500Y-48807500D03*
X34889500Y-49307500D03*
X34889500Y-49807500D03*
D18*
X35324500Y-50742500D03*
X35824500Y-50742500D03*
X36324500Y-50742500D03*
X36824500Y-50742500D03*
X37324500Y-50742500D03*
X37824500Y-50742500D03*
X38324500Y-50742500D03*
X38824500Y-50742500D03*
X39324500Y-50742500D03*
X39824500Y-50742500D03*
X40324500Y-50742500D03*
X40824500Y-50742500D03*
X41324500Y-50742500D03*
X41824500Y-50742500D03*
X42324500Y-50742500D03*
X42824500Y-50742500D03*
X43324500Y-50742500D03*
D19*
X43759500Y-49807500D03*
X43759500Y-49307500D03*
X43759500Y-48807500D03*
X43759500Y-48307500D03*
%TD*%
D11*
%TO.C,J5*%
X83384500Y-62357500D03*
X82884500Y-62357500D03*
X82384500Y-62357500D03*
X81884500Y-62357500D03*
X81384500Y-62357500D03*
X80884500Y-62357500D03*
X80384500Y-62357500D03*
X79884500Y-62357500D03*
X79384500Y-62357500D03*
X78884500Y-62357500D03*
X78384500Y-62357500D03*
X77884500Y-62357500D03*
X77384500Y-62357500D03*
X76884500Y-62357500D03*
X76384500Y-62357500D03*
X75884500Y-62357500D03*
X75384500Y-62357500D03*
X74884500Y-62357500D03*
X74384500Y-62357500D03*
%TD*%
D14*
%TO.C,R8*%
X119091250Y-53000000D03*
X117091250Y-53000000D03*
%TD*%
%TO.C,R14*%
X31990000Y-45920000D03*
X29990000Y-45920000D03*
%TD*%
D17*
%TO.C,D2*%
X122893750Y-62200000D03*
X120843750Y-62200000D03*
%TD*%
D14*
%TO.C,R7*%
X119091250Y-57600000D03*
X117091250Y-57600000D03*
%TD*%
D12*
%TO.C,R3*%
X99296250Y-32610000D03*
X101296250Y-32610000D03*
%TD*%
D20*
%TO.C,C3*%
X26593500Y-26514000D03*
X28318500Y-26514000D03*
%TD*%
D18*
%TO.C,U3*%
X95743750Y-47375000D03*
X95243750Y-47375000D03*
X94743750Y-47375000D03*
X94243750Y-47375000D03*
X93743750Y-47375000D03*
X93243750Y-47375000D03*
X92743750Y-47375000D03*
X92243750Y-47375000D03*
X91743750Y-47375000D03*
X91243750Y-47375000D03*
X90743750Y-47375000D03*
X90243750Y-47375000D03*
X89743750Y-47375000D03*
X89243750Y-47375000D03*
X88743750Y-47375000D03*
X88243750Y-47375000D03*
X87743750Y-47375000D03*
D19*
X87308750Y-48310000D03*
X87308750Y-48810000D03*
X87308750Y-49310000D03*
X87308750Y-49810000D03*
D18*
X87743750Y-50745000D03*
X88243750Y-50745000D03*
X88743750Y-50745000D03*
X89243750Y-50745000D03*
X89743750Y-50745000D03*
X90243750Y-50745000D03*
X90743750Y-50745000D03*
X91243750Y-50745000D03*
X91743750Y-50745000D03*
X92243750Y-50745000D03*
X92743750Y-50745000D03*
X93243750Y-50745000D03*
X93743750Y-50745000D03*
X94243750Y-50745000D03*
X94743750Y-50745000D03*
X95243750Y-50745000D03*
X95743750Y-50745000D03*
D19*
X96178750Y-49810000D03*
X96178750Y-49310000D03*
X96178750Y-48810000D03*
X96178750Y-48310000D03*
%TD*%
D14*
%TO.C,R10*%
X101296250Y-34610000D03*
X99296250Y-34610000D03*
%TD*%
D12*
%TO.C,R4*%
X99276250Y-28610000D03*
X101276250Y-28610000D03*
%TD*%
D21*
%TO.C,U1*%
X103846250Y-28610000D03*
X103846250Y-30610000D03*
X103846250Y-32610000D03*
X103846250Y-34610000D03*
X103846250Y-36610000D03*
X103846250Y-38610000D03*
X103846250Y-40610000D03*
X103846250Y-42610000D03*
D22*
X106446250Y-44110000D03*
X108446250Y-44110000D03*
X110446250Y-44110000D03*
X112446250Y-44110000D03*
X114446250Y-44110000D03*
X116446250Y-44110000D03*
D21*
X119046250Y-42610000D03*
X119046250Y-40610000D03*
X119046250Y-38610000D03*
X119046250Y-36610000D03*
X119046250Y-34610000D03*
X119046250Y-32610000D03*
X119046250Y-30610000D03*
X119046250Y-28610000D03*
%TD*%
D16*
%TO.C,C5*%
X47332500Y-46440000D03*
X45607500Y-46440000D03*
%TD*%
D14*
%TO.C,R6*%
X118991250Y-62200000D03*
X116991250Y-62200000D03*
%TD*%
D23*
%TO.C,U2*%
X27446000Y-28854000D03*
X25146000Y-28854000D03*
D24*
X25146000Y-35154000D03*
D23*
X22846000Y-28854000D03*
%TD*%
M02*
