%TF.GenerationSoftware,KiCad,Pcbnew,(6.0.10-0)*%
%TF.CreationDate,2022-12-27T23:39:35-08:00*%
%TF.ProjectId,HDMI-MUX,48444d49-2d4d-4555-982e-6b696361645f,rev?*%
%TF.SameCoordinates,Original*%
%TF.FileFunction,Drillmap*%
%TF.FilePolarity,Positive*%
%FSLAX45Y45*%
G04 Gerber Fmt 4.5, Leading zero omitted, Abs format (unit mm)*
G04 Created by KiCad (PCBNEW (6.0.10-0)) date 2022-12-27 23:39:35*
%MOMM*%
%LPD*%
G01*
G04 APERTURE LIST*
%ADD10C,0.100000*%
%ADD11C,0.200000*%
%ADD12C,0.020000*%
%ADD13C,0.030000*%
%ADD14C,0.040000*%
%ADD15C,0.050000*%
%ADD16C,0.090000*%
%ADD17C,0.110000*%
%ADD18C,0.133000*%
%ADD19C,0.300000*%
G04 APERTURE END LIST*
D10*
X11963400Y-2006600D02*
X10337800Y-2006600D01*
X10337800Y-2006600D02*
X10337800Y-2743200D01*
X10337800Y-2743200D02*
X11963400Y-2743200D01*
X11963400Y-2743200D02*
X11963400Y-2006600D01*
X12569000Y-7075000D02*
X1576000Y-7075000D01*
X1576000Y-7075000D02*
X1576000Y-1720000D01*
X1576000Y-1720000D02*
X12569000Y-1720000D01*
X12569000Y-1720000D02*
X12569000Y-7075000D01*
D11*
D12*
X3569950Y-4895750D02*
X3589950Y-4915750D01*
X3589950Y-4895750D02*
X3569950Y-4915750D01*
X3688450Y-4818250D02*
X3708450Y-4838250D01*
X3708450Y-4818250D02*
X3688450Y-4838250D01*
X3688450Y-4895750D02*
X3708450Y-4915750D01*
X3708450Y-4895750D02*
X3688450Y-4915750D01*
X3688450Y-4973250D02*
X3708450Y-4993250D01*
X3708450Y-4973250D02*
X3688450Y-4993250D01*
X3805450Y-4818250D02*
X3825450Y-4838250D01*
X3825450Y-4818250D02*
X3805450Y-4838250D01*
X3805450Y-4895750D02*
X3825450Y-4915750D01*
X3825450Y-4895750D02*
X3805450Y-4915750D01*
X3805450Y-4973250D02*
X3825450Y-4993250D01*
X3825450Y-4973250D02*
X3805450Y-4993250D01*
X3922450Y-4818250D02*
X3942450Y-4838250D01*
X3942450Y-4818250D02*
X3922450Y-4838250D01*
X3922450Y-4895750D02*
X3942450Y-4915750D01*
X3942450Y-4895750D02*
X3922450Y-4915750D01*
X3922450Y-4973250D02*
X3942450Y-4993250D01*
X3942450Y-4973250D02*
X3922450Y-4993250D01*
X4039450Y-4818250D02*
X4059450Y-4838250D01*
X4059450Y-4818250D02*
X4039450Y-4838250D01*
X4039450Y-4895750D02*
X4059450Y-4915750D01*
X4059450Y-4895750D02*
X4039450Y-4915750D01*
X4039450Y-4973250D02*
X4059450Y-4993250D01*
X4059450Y-4973250D02*
X4039450Y-4993250D01*
X4156450Y-4818250D02*
X4176450Y-4838250D01*
X4176450Y-4818250D02*
X4156450Y-4838250D01*
X4156450Y-4895750D02*
X4176450Y-4915750D01*
X4176450Y-4895750D02*
X4156450Y-4915750D01*
X4156450Y-4973250D02*
X4176450Y-4993250D01*
X4176450Y-4973250D02*
X4156450Y-4993250D01*
X4274950Y-4895750D02*
X4294950Y-4915750D01*
X4294950Y-4895750D02*
X4274950Y-4915750D01*
X8811875Y-4896000D02*
X8831875Y-4916000D01*
X8831875Y-4896000D02*
X8811875Y-4916000D01*
X8930375Y-4818500D02*
X8950375Y-4838500D01*
X8950375Y-4818500D02*
X8930375Y-4838500D01*
X8930375Y-4896000D02*
X8950375Y-4916000D01*
X8950375Y-4896000D02*
X8930375Y-4916000D01*
X8930375Y-4973500D02*
X8950375Y-4993500D01*
X8950375Y-4973500D02*
X8930375Y-4993500D01*
X9047375Y-4818500D02*
X9067375Y-4838500D01*
X9067375Y-4818500D02*
X9047375Y-4838500D01*
X9047375Y-4896000D02*
X9067375Y-4916000D01*
X9067375Y-4896000D02*
X9047375Y-4916000D01*
X9047375Y-4973500D02*
X9067375Y-4993500D01*
X9067375Y-4973500D02*
X9047375Y-4993500D01*
X9164375Y-4818500D02*
X9184375Y-4838500D01*
X9184375Y-4818500D02*
X9164375Y-4838500D01*
X9164375Y-4896000D02*
X9184375Y-4916000D01*
X9184375Y-4896000D02*
X9164375Y-4916000D01*
X9164375Y-4973500D02*
X9184375Y-4993500D01*
X9184375Y-4973500D02*
X9164375Y-4993500D01*
X9281375Y-4818500D02*
X9301375Y-4838500D01*
X9301375Y-4818500D02*
X9281375Y-4838500D01*
X9281375Y-4896000D02*
X9301375Y-4916000D01*
X9301375Y-4896000D02*
X9281375Y-4916000D01*
X9281375Y-4973500D02*
X9301375Y-4993500D01*
X9301375Y-4973500D02*
X9281375Y-4993500D01*
X9398375Y-4818500D02*
X9418375Y-4838500D01*
X9418375Y-4818500D02*
X9398375Y-4838500D01*
X9398375Y-4896000D02*
X9418375Y-4916000D01*
X9418375Y-4896000D02*
X9398375Y-4916000D01*
X9398375Y-4973500D02*
X9418375Y-4993500D01*
X9418375Y-4973500D02*
X9398375Y-4993500D01*
X9516875Y-4896000D02*
X9536875Y-4916000D01*
X9536875Y-4896000D02*
X9516875Y-4916000D01*
D13*
X1793000Y-1930400D02*
G75*
G03*
X1793000Y-1930400I-15000J0D01*
G01*
X1843800Y-5537200D02*
G75*
G03*
X1843800Y-5537200I-15000J0D01*
G01*
X1869200Y-3276600D02*
G75*
G03*
X1869200Y-3276600I-15000J0D01*
G01*
X1920000Y-4216400D02*
G75*
G03*
X1920000Y-4216400I-15000J0D01*
G01*
X2212450Y-6075750D02*
G75*
G03*
X2212450Y-6075750I-15000J0D01*
G01*
X2235600Y-2314400D02*
G75*
G03*
X2235600Y-2314400I-15000J0D01*
G01*
X2260600Y-2484400D02*
G75*
G03*
X2260600Y-2484400I-15000J0D01*
G01*
X2298075Y-6376027D02*
G75*
G03*
X2298075Y-6376027I-15000J0D01*
G01*
X2301000Y-6090550D02*
G75*
G03*
X2301000Y-6090550I-15000J0D01*
G01*
X2360600Y-2310900D02*
G75*
G03*
X2360600Y-2310900I-15000J0D01*
G01*
X2379600Y-3454400D02*
G75*
G03*
X2379600Y-3454400I-15000J0D01*
G01*
X2382600Y-3574400D02*
G75*
G03*
X2382600Y-3574400I-15000J0D01*
G01*
X2402600Y-5638800D02*
G75*
G03*
X2402600Y-5638800I-15000J0D01*
G01*
X2402600Y-6019800D02*
G75*
G03*
X2402600Y-6019800I-15000J0D01*
G01*
X2420600Y-3511400D02*
G75*
G03*
X2420600Y-3511400I-15000J0D01*
G01*
X2428600Y-1912400D02*
G75*
G03*
X2428600Y-1912400I-15000J0D01*
G01*
X2428600Y-2111400D02*
G75*
G03*
X2428600Y-2111400I-15000J0D01*
G01*
X2469600Y-3561400D02*
G75*
G03*
X2469600Y-3561400I-15000J0D01*
G01*
X2472600Y-3460400D02*
G75*
G03*
X2472600Y-3460400I-15000J0D01*
G01*
X2476975Y-6376027D02*
G75*
G03*
X2476975Y-6376027I-15000J0D01*
G01*
X2492600Y-2823400D02*
G75*
G03*
X2492600Y-2823400I-15000J0D01*
G01*
X2492600Y-2946400D02*
G75*
G03*
X2492600Y-2946400I-15000J0D01*
G01*
X2504200Y-4470400D02*
G75*
G03*
X2504200Y-4470400I-15000J0D01*
G01*
X2520600Y-3515400D02*
G75*
G03*
X2520600Y-3515400I-15000J0D01*
G01*
X2529600Y-5384800D02*
G75*
G03*
X2529600Y-5384800I-15000J0D01*
G01*
X2530600Y-2885400D02*
G75*
G03*
X2530600Y-2885400I-15000J0D01*
G01*
X2566600Y-2823400D02*
G75*
G03*
X2566600Y-2823400I-15000J0D01*
G01*
X2567600Y-2948400D02*
G75*
G03*
X2567600Y-2948400I-15000J0D01*
G01*
X2567600Y-3564400D02*
G75*
G03*
X2567600Y-3564400I-15000J0D01*
G01*
X2572600Y-3461400D02*
G75*
G03*
X2572600Y-3461400I-15000J0D01*
G01*
X2592450Y-6517750D02*
G75*
G03*
X2592450Y-6517750I-15000J0D01*
G01*
X2612525Y-6366137D02*
G75*
G03*
X2612525Y-6366137I-15000J0D01*
G01*
X2623600Y-3515400D02*
G75*
G03*
X2623600Y-3515400I-15000J0D01*
G01*
X2625600Y-1912400D02*
G75*
G03*
X2625600Y-1912400I-15000J0D01*
G01*
X2627600Y-2110400D02*
G75*
G03*
X2627600Y-2110400I-15000J0D01*
G01*
X2656600Y-5257800D02*
G75*
G03*
X2656600Y-5257800I-15000J0D01*
G01*
X2664600Y-2310900D02*
G75*
G03*
X2664600Y-2310900I-15000J0D01*
G01*
X2673600Y-3459400D02*
G75*
G03*
X2673600Y-3459400I-15000J0D01*
G01*
X2674350Y-2651400D02*
G75*
G03*
X2674350Y-2651400I-15000J0D01*
G01*
X2675600Y-3571400D02*
G75*
G03*
X2675600Y-3571400I-15000J0D01*
G01*
X2720100Y-2824480D02*
G75*
G03*
X2720100Y-2824480I-15000J0D01*
G01*
X2722600Y-2947400D02*
G75*
G03*
X2722600Y-2947400I-15000J0D01*
G01*
X2746523Y-5460823D02*
G75*
G03*
X2746523Y-5460823I-15000J0D01*
G01*
X2759600Y-2884400D02*
G75*
G03*
X2759600Y-2884400I-15000J0D01*
G01*
X2762525Y-6366137D02*
G75*
G03*
X2762525Y-6366137I-15000J0D01*
G01*
X2783600Y-5130800D02*
G75*
G03*
X2783600Y-5130800I-15000J0D01*
G01*
X2797600Y-2822400D02*
G75*
G03*
X2797600Y-2822400I-15000J0D01*
G01*
X2797600Y-2947400D02*
G75*
G03*
X2797600Y-2947400I-15000J0D01*
G01*
X2846850Y-2651400D02*
G75*
G03*
X2846850Y-2651400I-15000J0D01*
G01*
X2910600Y-5003800D02*
G75*
G03*
X2910600Y-5003800I-15000J0D01*
G01*
X2912526Y-6366138D02*
G75*
G03*
X2912526Y-6366138I-15000J0D01*
G01*
X3014000Y-4593000D02*
G75*
G03*
X3014000Y-4593000I-15000J0D01*
G01*
X3062528Y-6366140D02*
G75*
G03*
X3062528Y-6366140I-15000J0D01*
G01*
X3122000Y-5355000D02*
G75*
G03*
X3122000Y-5355000I-15000J0D01*
G01*
X3240800Y-6070600D02*
G75*
G03*
X3240800Y-6070600I-15000J0D01*
G01*
X3325450Y-4767750D02*
G75*
G03*
X3325450Y-4767750I-15000J0D01*
G01*
X3331450Y-4866300D02*
G75*
G03*
X3331450Y-4866300I-15000J0D01*
G01*
X3342400Y-6070600D02*
G75*
G03*
X3342400Y-6070600I-15000J0D01*
G01*
X3393200Y-5105400D02*
G75*
G03*
X3393200Y-5105400I-15000J0D01*
G01*
X3395375Y-4652000D02*
G75*
G03*
X3395375Y-4652000I-15000J0D01*
G01*
X3444000Y-6070600D02*
G75*
G03*
X3444000Y-6070600I-15000J0D01*
G01*
X3520200Y-3733800D02*
G75*
G03*
X3520200Y-3733800I-15000J0D01*
G01*
X3520200Y-3962400D02*
G75*
G03*
X3520200Y-3962400I-15000J0D01*
G01*
X3520200Y-4165600D02*
G75*
G03*
X3520200Y-4165600I-15000J0D01*
G01*
X3520200Y-4368800D02*
G75*
G03*
X3520200Y-4368800I-15000J0D01*
G01*
X3545600Y-6070600D02*
G75*
G03*
X3545600Y-6070600I-15000J0D01*
G01*
X3571000Y-3200400D02*
G75*
G03*
X3571000Y-3200400I-15000J0D01*
G01*
X3647200Y-6070600D02*
G75*
G03*
X3647200Y-6070600I-15000J0D01*
G01*
X3698000Y-3556000D02*
G75*
G03*
X3698000Y-3556000I-15000J0D01*
G01*
X3723400Y-5994400D02*
G75*
G03*
X3723400Y-5994400I-15000J0D01*
G01*
X3799600Y-5918200D02*
G75*
G03*
X3799600Y-5918200I-15000J0D01*
G01*
X3825000Y-3835400D02*
G75*
G03*
X3825000Y-3835400I-15000J0D01*
G01*
X3875800Y-3378200D02*
G75*
G03*
X3875800Y-3378200I-15000J0D01*
G01*
X3952000Y-6299200D02*
G75*
G03*
X3952000Y-6299200I-15000J0D01*
G01*
X3977400Y-6756400D02*
G75*
G03*
X3977400Y-6756400I-15000J0D01*
G01*
X4028200Y-3657600D02*
G75*
G03*
X4028200Y-3657600I-15000J0D01*
G01*
X4033450Y-5843750D02*
G75*
G03*
X4033450Y-5843750I-15000J0D01*
G01*
X4053600Y-3200400D02*
G75*
G03*
X4053600Y-3200400I-15000J0D01*
G01*
X4180600Y-3505200D02*
G75*
G03*
X4180600Y-3505200I-15000J0D01*
G01*
X4307600Y-2844800D02*
G75*
G03*
X4307600Y-2844800I-15000J0D01*
G01*
X4307600Y-3073400D02*
G75*
G03*
X4307600Y-3073400I-15000J0D01*
G01*
X4358400Y-2108200D02*
G75*
G03*
X4358400Y-2108200I-15000J0D01*
G01*
X4434600Y-5181600D02*
G75*
G03*
X4434600Y-5181600I-15000J0D01*
G01*
X4460000Y-3479800D02*
G75*
G03*
X4460000Y-3479800I-15000J0D01*
G01*
X4536450Y-5063750D02*
G75*
G03*
X4536450Y-5063750I-15000J0D01*
G01*
X4539450Y-6080750D02*
G75*
G03*
X4539450Y-6080750I-15000J0D01*
G01*
X4561600Y-3073400D02*
G75*
G03*
X4561600Y-3073400I-15000J0D01*
G01*
X4572000Y-3274000D02*
G75*
G03*
X4572000Y-3274000I-15000J0D01*
G01*
X4590375Y-4456000D02*
G75*
G03*
X4590375Y-4456000I-15000J0D01*
G01*
X4599450Y-6155750D02*
G75*
G03*
X4599450Y-6155750I-15000J0D01*
G01*
X4608450Y-4974750D02*
G75*
G03*
X4608450Y-4974750I-15000J0D01*
G01*
X4612400Y-5384800D02*
G75*
G03*
X4612400Y-5384800I-15000J0D01*
G01*
X4712450Y-4829750D02*
G75*
G03*
X4712450Y-4829750I-15000J0D01*
G01*
X4714000Y-4216400D02*
G75*
G03*
X4714000Y-4216400I-15000J0D01*
G01*
X4748000Y-4646000D02*
G75*
G03*
X4748000Y-4646000I-15000J0D01*
G01*
X4764800Y-3479800D02*
G75*
G03*
X4764800Y-3479800I-15000J0D01*
G01*
X4784877Y-4903323D02*
G75*
G03*
X4784877Y-4903323I-15000J0D01*
G01*
X4790200Y-3073400D02*
G75*
G03*
X4790200Y-3073400I-15000J0D01*
G01*
X4841000Y-5156200D02*
G75*
G03*
X4841000Y-5156200I-15000J0D01*
G01*
X4841000Y-5461000D02*
G75*
G03*
X4841000Y-5461000I-15000J0D01*
G01*
X4870696Y-6090849D02*
G75*
G03*
X4870696Y-6090849I-15000J0D01*
G01*
X4932524Y-6366138D02*
G75*
G03*
X4932524Y-6366138I-15000J0D01*
G01*
X4967450Y-6092750D02*
G75*
G03*
X4967450Y-6092750I-15000J0D01*
G01*
X4970375Y-4337000D02*
G75*
G03*
X4970375Y-4337000I-15000J0D01*
G01*
X5018800Y-3073400D02*
G75*
G03*
X5018800Y-3073400I-15000J0D01*
G01*
X5048657Y-6094251D02*
G75*
G03*
X5048657Y-6094251I-15000J0D01*
G01*
X5068075Y-6376027D02*
G75*
G03*
X5068075Y-6376027I-15000J0D01*
G01*
X5120400Y-3479800D02*
G75*
G03*
X5120400Y-3479800I-15000J0D01*
G01*
X5171200Y-5461000D02*
G75*
G03*
X5171200Y-5461000I-15000J0D01*
G01*
X5232530Y-6366142D02*
G75*
G03*
X5232530Y-6366142I-15000J0D01*
G01*
X5272800Y-3073400D02*
G75*
G03*
X5272800Y-3073400I-15000J0D01*
G01*
X5298200Y-5461000D02*
G75*
G03*
X5298200Y-5461000I-15000J0D01*
G01*
X5349000Y-4775200D02*
G75*
G03*
X5349000Y-4775200I-15000J0D01*
G01*
X5382531Y-6366143D02*
G75*
G03*
X5382531Y-6366143I-15000J0D01*
G01*
X5388375Y-4320000D02*
G75*
G03*
X5388375Y-4320000I-15000J0D01*
G01*
X5425200Y-5461000D02*
G75*
G03*
X5425200Y-5461000I-15000J0D01*
G01*
X5450600Y-3479800D02*
G75*
G03*
X5450600Y-3479800I-15000J0D01*
G01*
X5526800Y-3073400D02*
G75*
G03*
X5526800Y-3073400I-15000J0D01*
G01*
X5527375Y-3252550D02*
G75*
G03*
X5527375Y-3252550I-15000J0D01*
G01*
X5532525Y-6366137D02*
G75*
G03*
X5532525Y-6366137I-15000J0D01*
G01*
X5577600Y-5588000D02*
G75*
G03*
X5577600Y-5588000I-15000J0D01*
G01*
X5591375Y-3301550D02*
G75*
G03*
X5591375Y-3301550I-15000J0D01*
G01*
X5679200Y-5689600D02*
G75*
G03*
X5679200Y-5689600I-15000J0D01*
G01*
X5682525Y-6366137D02*
G75*
G03*
X5682525Y-6366137I-15000J0D01*
G01*
X5780800Y-3479800D02*
G75*
G03*
X5780800Y-3479800I-15000J0D01*
G01*
X5780800Y-5791200D02*
G75*
G03*
X5780800Y-5791200I-15000J0D01*
G01*
X5806200Y-6019800D02*
G75*
G03*
X5806200Y-6019800I-15000J0D01*
G01*
X6009400Y-3073400D02*
G75*
G03*
X6009400Y-3073400I-15000J0D01*
G01*
X6161800Y-3479800D02*
G75*
G03*
X6161800Y-3479800I-15000J0D01*
G01*
X6288800Y-3073400D02*
G75*
G03*
X6288800Y-3073400I-15000J0D01*
G01*
X6288800Y-5359400D02*
G75*
G03*
X6288800Y-5359400I-15000J0D01*
G01*
X6441200Y-3479800D02*
G75*
G03*
X6441200Y-3479800I-15000J0D01*
G01*
X6466600Y-6527800D02*
G75*
G03*
X6466600Y-6527800I-15000J0D01*
G01*
X6568200Y-3073400D02*
G75*
G03*
X6568200Y-3073400I-15000J0D01*
G01*
X6720600Y-3479800D02*
G75*
G03*
X6720600Y-3479800I-15000J0D01*
G01*
X6822200Y-3073400D02*
G75*
G03*
X6822200Y-3073400I-15000J0D01*
G01*
X6974600Y-3479800D02*
G75*
G03*
X6974600Y-3479800I-15000J0D01*
G01*
X6974600Y-5816600D02*
G75*
G03*
X6974600Y-5816600I-15000J0D01*
G01*
X7076200Y-3073400D02*
G75*
G03*
X7076200Y-3073400I-15000J0D01*
G01*
X7228600Y-3479800D02*
G75*
G03*
X7228600Y-3479800I-15000J0D01*
G01*
X7304800Y-2971800D02*
G75*
G03*
X7304800Y-2971800I-15000J0D01*
G01*
X7453450Y-6034750D02*
G75*
G03*
X7453450Y-6034750I-15000J0D01*
G01*
X7482600Y-3378200D02*
G75*
G03*
X7482600Y-3378200I-15000J0D01*
G01*
X7539000Y-6376277D02*
G75*
G03*
X7539000Y-6376277I-15000J0D01*
G01*
X7558800Y-6045200D02*
G75*
G03*
X7558800Y-6045200I-15000J0D01*
G01*
X7635000Y-5511800D02*
G75*
G03*
X7635000Y-5511800I-15000J0D01*
G01*
X7635000Y-5943600D02*
G75*
G03*
X7635000Y-5943600I-15000J0D01*
G01*
X7660400Y-2616200D02*
G75*
G03*
X7660400Y-2616200I-15000J0D01*
G01*
X7660400Y-3200400D02*
G75*
G03*
X7660400Y-3200400I-15000J0D01*
G01*
X7685800Y-3479800D02*
G75*
G03*
X7685800Y-3479800I-15000J0D01*
G01*
X7717900Y-6376277D02*
G75*
G03*
X7717900Y-6376277I-15000J0D01*
G01*
X7762000Y-4902200D02*
G75*
G03*
X7762000Y-4902200I-15000J0D01*
G01*
X7780450Y-6541750D02*
G75*
G03*
X7780450Y-6541750I-15000J0D01*
G01*
X7787400Y-5334000D02*
G75*
G03*
X7787400Y-5334000I-15000J0D01*
G01*
X7838200Y-2438400D02*
G75*
G03*
X7838200Y-2438400I-15000J0D01*
G01*
X7853447Y-6366390D02*
G75*
G03*
X7853447Y-6366390I-15000J0D01*
G01*
X7863600Y-2997200D02*
G75*
G03*
X7863600Y-2997200I-15000J0D01*
G01*
X7914400Y-5207000D02*
G75*
G03*
X7914400Y-5207000I-15000J0D01*
G01*
X7965200Y-3479800D02*
G75*
G03*
X7965200Y-3479800I-15000J0D01*
G01*
X7990023Y-5415323D02*
G75*
G03*
X7990023Y-5415323I-15000J0D01*
G01*
X8003447Y-6366390D02*
G75*
G03*
X8003447Y-6366390I-15000J0D01*
G01*
X8016000Y-2260600D02*
G75*
G03*
X8016000Y-2260600I-15000J0D01*
G01*
X8041400Y-5080000D02*
G75*
G03*
X8041400Y-5080000I-15000J0D01*
G01*
X8153445Y-6366392D02*
G75*
G03*
X8153445Y-6366392I-15000J0D01*
G01*
X8168400Y-4953000D02*
G75*
G03*
X8168400Y-4953000I-15000J0D01*
G01*
X8219200Y-2616200D02*
G75*
G03*
X8219200Y-2616200I-15000J0D01*
G01*
X8244000Y-4585000D02*
G75*
G03*
X8244000Y-4585000I-15000J0D01*
G01*
X8303454Y-6366392D02*
G75*
G03*
X8303454Y-6366392I-15000J0D01*
G01*
X8332000Y-5331000D02*
G75*
G03*
X8332000Y-5331000I-15000J0D01*
G01*
X8447800Y-6019800D02*
G75*
G03*
X8447800Y-6019800I-15000J0D01*
G01*
X8548375Y-3875400D02*
G75*
G03*
X8548375Y-3875400I-15000J0D01*
G01*
X8548375Y-3954600D02*
G75*
G03*
X8548375Y-3954600I-15000J0D01*
G01*
X8549400Y-6019800D02*
G75*
G03*
X8549400Y-6019800I-15000J0D01*
G01*
X8551375Y-4037400D02*
G75*
G03*
X8551375Y-4037400I-15000J0D01*
G01*
X8551375Y-4116600D02*
G75*
G03*
X8551375Y-4116600I-15000J0D01*
G01*
X8552375Y-3715400D02*
G75*
G03*
X8552375Y-3715400I-15000J0D01*
G01*
X8552375Y-3794600D02*
G75*
G03*
X8552375Y-3794600I-15000J0D01*
G01*
X8553468Y-3556255D02*
G75*
G03*
X8553468Y-3556255I-15000J0D01*
G01*
X8553468Y-3635455D02*
G75*
G03*
X8553468Y-3635455I-15000J0D01*
G01*
X8571450Y-4866550D02*
G75*
G03*
X8571450Y-4866550I-15000J0D01*
G01*
X8583699Y-4787544D02*
G75*
G03*
X8583699Y-4787544I-15000J0D01*
G01*
X8620375Y-4664000D02*
G75*
G03*
X8620375Y-4664000I-15000J0D01*
G01*
X8651000Y-6019800D02*
G75*
G03*
X8651000Y-6019800I-15000J0D01*
G01*
X8676400Y-3378200D02*
G75*
G03*
X8676400Y-3378200I-15000J0D01*
G01*
X8701800Y-5181600D02*
G75*
G03*
X8701800Y-5181600I-15000J0D01*
G01*
X8709375Y-2340000D02*
G75*
G03*
X8709375Y-2340000I-15000J0D01*
G01*
X8752600Y-2844800D02*
G75*
G03*
X8752600Y-2844800I-15000J0D01*
G01*
X8752600Y-6019800D02*
G75*
G03*
X8752600Y-6019800I-15000J0D01*
G01*
X8778000Y-3124200D02*
G75*
G03*
X8778000Y-3124200I-15000J0D01*
G01*
X8816900Y-2413000D02*
G75*
G03*
X8816900Y-2413000I-15000J0D01*
G01*
X8854200Y-2692400D02*
G75*
G03*
X8854200Y-2692400I-15000J0D01*
G01*
X8854200Y-6019800D02*
G75*
G03*
X8854200Y-6019800I-15000J0D01*
G01*
X8867375Y-2251450D02*
G75*
G03*
X8867375Y-2251450I-15000J0D01*
G01*
X8953825Y-2865073D02*
G75*
G03*
X8953825Y-2865073I-15000J0D01*
G01*
X8955800Y-5994400D02*
G75*
G03*
X8955800Y-5994400I-15000J0D01*
G01*
X8968748Y-2323773D02*
G75*
G03*
X8968748Y-2323773I-15000J0D01*
G01*
X8987375Y-2738000D02*
G75*
G03*
X8987375Y-2738000I-15000J0D01*
G01*
X9016900Y-2415723D02*
G75*
G03*
X9016900Y-2415723I-15000J0D01*
G01*
X9032000Y-5918200D02*
G75*
G03*
X9032000Y-5918200I-15000J0D01*
G01*
X9112850Y-2876000D02*
G75*
G03*
X9112850Y-2876000I-15000J0D01*
G01*
X9152454Y-2425608D02*
G75*
G03*
X9152454Y-2425608I-15000J0D01*
G01*
X9184400Y-6858000D02*
G75*
G03*
X9184400Y-6858000I-15000J0D01*
G01*
X9192050Y-2876000D02*
G75*
G03*
X9192050Y-2876000I-15000J0D01*
G01*
X9235200Y-6273800D02*
G75*
G03*
X9235200Y-6273800I-15000J0D01*
G01*
X9262850Y-2806887D02*
G75*
G03*
X9262850Y-2806887I-15000J0D01*
G01*
X9282023Y-5834177D02*
G75*
G03*
X9282023Y-5834177I-15000J0D01*
G01*
X9302455Y-2425608D02*
G75*
G03*
X9302455Y-2425608I-15000J0D01*
G01*
X9342050Y-2806887D02*
G75*
G03*
X9342050Y-2806887I-15000J0D01*
G01*
X9412850Y-2865000D02*
G75*
G03*
X9412850Y-2865000I-15000J0D01*
G01*
X9452455Y-2425608D02*
G75*
G03*
X9452455Y-2425608I-15000J0D01*
G01*
X9492050Y-2865000D02*
G75*
G03*
X9492050Y-2865000I-15000J0D01*
G01*
X9562850Y-2794000D02*
G75*
G03*
X9562850Y-2794000I-15000J0D01*
G01*
X9602454Y-2425609D02*
G75*
G03*
X9602454Y-2425609I-15000J0D01*
G01*
X9621375Y-4134000D02*
G75*
G03*
X9621375Y-4134000I-15000J0D01*
G01*
X9642050Y-2794000D02*
G75*
G03*
X9642050Y-2794000I-15000J0D01*
G01*
X9692400Y-5181600D02*
G75*
G03*
X9692400Y-5181600I-15000J0D01*
G01*
X9720375Y-4119000D02*
G75*
G03*
X9720375Y-4119000I-15000J0D01*
G01*
X9749467Y-2275946D02*
G75*
G03*
X9749467Y-2275946I-15000J0D01*
G01*
X9810450Y-5134750D02*
G75*
G03*
X9810450Y-5134750I-15000J0D01*
G01*
X9819400Y-2692400D02*
G75*
G03*
X9819400Y-2692400I-15000J0D01*
G01*
X9819400Y-3048000D02*
G75*
G03*
X9819400Y-3048000I-15000J0D01*
G01*
X9819400Y-3581400D02*
G75*
G03*
X9819400Y-3581400I-15000J0D01*
G01*
X9820216Y-4099841D02*
G75*
G03*
X9820216Y-4099841I-15000J0D01*
G01*
X9845227Y-4905450D02*
G75*
G03*
X9845227Y-4905450I-15000J0D01*
G01*
X9854450Y-6130750D02*
G75*
G03*
X9854450Y-6130750I-15000J0D01*
G01*
X9866450Y-6018750D02*
G75*
G03*
X9866450Y-6018750I-15000J0D01*
G01*
X9895600Y-5359400D02*
G75*
G03*
X9895600Y-5359400I-15000J0D01*
G01*
X9907450Y-5067750D02*
G75*
G03*
X9907450Y-5067750I-15000J0D01*
G01*
X9913450Y-4830750D02*
G75*
G03*
X9913450Y-4830750I-15000J0D01*
G01*
X9943000Y-3460000D02*
G75*
G03*
X9943000Y-3460000I-15000J0D01*
G01*
X9945000Y-3261000D02*
G75*
G03*
X9945000Y-3261000I-15000J0D01*
G01*
X9993000Y-3858000D02*
G75*
G03*
X9993000Y-3858000I-15000J0D01*
G01*
X10054375Y-2593000D02*
G75*
G03*
X10054375Y-2593000I-15000J0D01*
G01*
X10073400Y-5384800D02*
G75*
G03*
X10073400Y-5384800I-15000J0D01*
G01*
X10124200Y-5994400D02*
G75*
G03*
X10124200Y-5994400I-15000J0D01*
G01*
X10174931Y-6367783D02*
G75*
G03*
X10174931Y-6367783I-15000J0D01*
G01*
X10194450Y-6040750D02*
G75*
G03*
X10194450Y-6040750I-15000J0D01*
G01*
X10216375Y-3861000D02*
G75*
G03*
X10216375Y-3861000I-15000J0D01*
G01*
X10309450Y-6040750D02*
G75*
G03*
X10309450Y-6040750I-15000J0D01*
G01*
X10310000Y-6376277D02*
G75*
G03*
X10310000Y-6376277I-15000J0D01*
G01*
X10399625Y-2861000D02*
G75*
G03*
X10399625Y-2861000I-15000J0D01*
G01*
X10399625Y-3461000D02*
G75*
G03*
X10399625Y-3461000I-15000J0D01*
G01*
X10403600Y-5384800D02*
G75*
G03*
X10403600Y-5384800I-15000J0D01*
G01*
X10473456Y-6366393D02*
G75*
G03*
X10473456Y-6366393I-15000J0D01*
G01*
X10505200Y-4978400D02*
G75*
G03*
X10505200Y-4978400I-15000J0D01*
G01*
X10530600Y-5384800D02*
G75*
G03*
X10530600Y-5384800I-15000J0D01*
G01*
X10623455Y-6366392D02*
G75*
G03*
X10623455Y-6366392I-15000J0D01*
G01*
X10632200Y-5384800D02*
G75*
G03*
X10632200Y-5384800I-15000J0D01*
G01*
X10773450Y-6366387D02*
G75*
G03*
X10773450Y-6366387I-15000J0D01*
G01*
X10923450Y-6366387D02*
G75*
G03*
X10923450Y-6366387I-15000J0D01*
G01*
X11038600Y-5715000D02*
G75*
G03*
X11038600Y-5715000I-15000J0D01*
G01*
X11038600Y-5892800D02*
G75*
G03*
X11038600Y-5892800I-15000J0D01*
G01*
X11064000Y-6045200D02*
G75*
G03*
X11064000Y-6045200I-15000J0D01*
G01*
X11069750Y-4620000D02*
G75*
G03*
X11069750Y-4620000I-15000J0D01*
G01*
X11242250Y-4620000D02*
G75*
G03*
X11242250Y-4620000I-15000J0D01*
G01*
X11714125Y-6220000D02*
G75*
G03*
X11714125Y-6220000I-15000J0D01*
G01*
X11714125Y-6680000D02*
G75*
G03*
X11714125Y-6680000I-15000J0D01*
G01*
X11724375Y-5760000D02*
G75*
G03*
X11724375Y-5760000I-15000J0D01*
G01*
X11730375Y-5299000D02*
G75*
G03*
X11730375Y-5299000I-15000J0D01*
G01*
X11913375Y-3456000D02*
G75*
G03*
X11913375Y-3456000I-15000J0D01*
G01*
X11919625Y-2861000D02*
G75*
G03*
X11919625Y-2861000I-15000J0D01*
G01*
X11919625Y-3061000D02*
G75*
G03*
X11919625Y-3061000I-15000J0D01*
G01*
X11919625Y-3661000D02*
G75*
G03*
X11919625Y-3661000I-15000J0D01*
G01*
X11919625Y-3861000D02*
G75*
G03*
X11919625Y-3861000I-15000J0D01*
G01*
X11919625Y-4061000D02*
G75*
G03*
X11919625Y-4061000I-15000J0D01*
G01*
X12054600Y-5994400D02*
G75*
G03*
X12054600Y-5994400I-15000J0D01*
G01*
X12174625Y-3661000D02*
G75*
G03*
X12174625Y-3661000I-15000J0D01*
G01*
X12308600Y-4978400D02*
G75*
G03*
X12308600Y-4978400I-15000J0D01*
G01*
X12334000Y-3073400D02*
G75*
G03*
X12334000Y-3073400I-15000J0D01*
G01*
X12384800Y-1981200D02*
G75*
G03*
X12384800Y-1981200I-15000J0D01*
G01*
D14*
X4560750Y-4624000D02*
X4560750Y-4664000D01*
X4540750Y-4644000D02*
X4580750Y-4644000D01*
X9789750Y-4648000D02*
X9789750Y-4688000D01*
X9769750Y-4668000D02*
X9809750Y-4668000D01*
X9925625Y-2842000D02*
X9925625Y-2882000D01*
X9905625Y-2862000D02*
X9945625Y-2862000D01*
X9962000Y-4648000D02*
X9962000Y-4688000D01*
X9942000Y-4668000D02*
X9982000Y-4668000D01*
X12289125Y-6205000D02*
X12289125Y-6245000D01*
X12269125Y-6225000D02*
X12309125Y-6225000D01*
X12289125Y-6653000D02*
X12289125Y-6693000D01*
X12269125Y-6673000D02*
X12309125Y-6673000D01*
X12299125Y-5277000D02*
X12299125Y-5317000D01*
X12279125Y-5297000D02*
X12319125Y-5297000D01*
X12300125Y-5745000D02*
X12300125Y-5785000D01*
X12280125Y-5765000D02*
X12320125Y-5765000D01*
X12352625Y-4042000D02*
X12352625Y-4082000D01*
X12332625Y-4062000D02*
X12372625Y-4062000D01*
X12353625Y-3648000D02*
X12353625Y-3688000D01*
X12333625Y-3668000D02*
X12373625Y-3668000D01*
X12357625Y-3843000D02*
X12357625Y-3883000D01*
X12337625Y-3863000D02*
X12377625Y-3863000D01*
D15*
X2083278Y-1948078D02*
X2083278Y-1912722D01*
X2047922Y-1912722D01*
X2047922Y-1948078D01*
X2083278Y-1948078D01*
D11*
X2040600Y-1895400D02*
X2040600Y-1965400D01*
X2090600Y-1895400D02*
X2090600Y-1965400D01*
X2040600Y-1965400D02*
G75*
G03*
X2090600Y-1965400I25000J0D01*
G01*
X2090600Y-1895400D02*
G75*
G03*
X2040600Y-1895400I-25000J0D01*
G01*
D15*
X2083278Y-2328078D02*
X2083278Y-2292722D01*
X2047922Y-2292722D01*
X2047922Y-2328078D01*
X2083278Y-2328078D01*
D11*
X2040600Y-2275400D02*
X2040600Y-2345400D01*
X2090600Y-2275400D02*
X2090600Y-2345400D01*
X2040600Y-2345400D02*
G75*
G03*
X2090600Y-2345400I25000J0D01*
G01*
X2090600Y-2275400D02*
G75*
G03*
X2040600Y-2275400I-25000J0D01*
G01*
D15*
X2947278Y-1948078D02*
X2947278Y-1912722D01*
X2911922Y-1912722D01*
X2911922Y-1948078D01*
X2947278Y-1948078D01*
D11*
X2904600Y-1895400D02*
X2904600Y-1965400D01*
X2954600Y-1895400D02*
X2954600Y-1965400D01*
X2904600Y-1965400D02*
G75*
G03*
X2954600Y-1965400I25000J0D01*
G01*
X2954600Y-1895400D02*
G75*
G03*
X2904600Y-1895400I-25000J0D01*
G01*
D15*
X2947278Y-2328078D02*
X2947278Y-2292722D01*
X2911922Y-2292722D01*
X2911922Y-2328078D01*
X2947278Y-2328078D01*
D11*
X2904600Y-2275400D02*
X2904600Y-2345400D01*
X2954600Y-2275400D02*
X2954600Y-2345400D01*
X2904600Y-2345400D02*
G75*
G03*
X2954600Y-2345400I25000J0D01*
G01*
X2954600Y-2275400D02*
G75*
G03*
X2904600Y-2275400I-25000J0D01*
G01*
D16*
X6677150Y-5345000D02*
X6722150Y-5300000D01*
X6677150Y-5255000D01*
X6632150Y-5300000D01*
X6677150Y-5345000D01*
X6927150Y-5345000D02*
X6972150Y-5300000D01*
X6927150Y-5255000D01*
X6882150Y-5300000D01*
X6927150Y-5345000D01*
X7177150Y-5345000D02*
X7222150Y-5300000D01*
X7177150Y-5255000D01*
X7132150Y-5300000D01*
X7177150Y-5345000D01*
D10*
X5845000Y-4719000D02*
X5945000Y-4819000D01*
X5945000Y-4719000D02*
X5845000Y-4819000D01*
X5945000Y-4769000D02*
G75*
G03*
X5945000Y-4769000I-50000J0D01*
G01*
X6099000Y-4719000D02*
X6199000Y-4819000D01*
X6199000Y-4719000D02*
X6099000Y-4819000D01*
X6199000Y-4769000D02*
G75*
G03*
X6199000Y-4769000I-50000J0D01*
G01*
X6353000Y-4719000D02*
X6453000Y-4819000D01*
X6453000Y-4719000D02*
X6353000Y-4819000D01*
X6453000Y-4769000D02*
G75*
G03*
X6453000Y-4769000I-50000J0D01*
G01*
X6607000Y-4719000D02*
X6707000Y-4819000D01*
X6707000Y-4719000D02*
X6607000Y-4819000D01*
X6707000Y-4769000D02*
G75*
G03*
X6707000Y-4769000I-50000J0D01*
G01*
X6861000Y-4719000D02*
X6961000Y-4819000D01*
X6961000Y-4719000D02*
X6861000Y-4819000D01*
X6961000Y-4769000D02*
G75*
G03*
X6961000Y-4769000I-50000J0D01*
G01*
X7115000Y-4719000D02*
X7215000Y-4819000D01*
X7215000Y-4719000D02*
X7115000Y-4819000D01*
X7215000Y-4769000D02*
G75*
G03*
X7215000Y-4769000I-50000J0D01*
G01*
D17*
X4877375Y-2050000D02*
X4987375Y-2160000D01*
X4987375Y-2050000D02*
X4877375Y-2160000D01*
X4932375Y-2050000D02*
X4932375Y-2160000D01*
X4877375Y-2105000D02*
X4987375Y-2105000D01*
X4877375Y-2700000D02*
X4987375Y-2810000D01*
X4987375Y-2700000D02*
X4877375Y-2810000D01*
X4932375Y-2700000D02*
X4932375Y-2810000D01*
X4877375Y-2755000D02*
X4987375Y-2755000D01*
X5327375Y-2050000D02*
X5437375Y-2160000D01*
X5437375Y-2050000D02*
X5327375Y-2160000D01*
X5382375Y-2050000D02*
X5382375Y-2160000D01*
X5327375Y-2105000D02*
X5437375Y-2105000D01*
X5327375Y-2700000D02*
X5437375Y-2810000D01*
X5437375Y-2700000D02*
X5327375Y-2810000D01*
X5382375Y-2700000D02*
X5382375Y-2810000D01*
X5327375Y-2755000D02*
X5437375Y-2755000D01*
X5923375Y-2050000D02*
X6033375Y-2160000D01*
X6033375Y-2050000D02*
X5923375Y-2160000D01*
X5978375Y-2050000D02*
X5978375Y-2160000D01*
X5923375Y-2105000D02*
X6033375Y-2105000D01*
X5923375Y-2700000D02*
X6033375Y-2810000D01*
X6033375Y-2700000D02*
X5923375Y-2810000D01*
X5978375Y-2700000D02*
X5978375Y-2810000D01*
X5923375Y-2755000D02*
X6033375Y-2755000D01*
X6373375Y-2050000D02*
X6483375Y-2160000D01*
X6483375Y-2050000D02*
X6373375Y-2160000D01*
X6428375Y-2050000D02*
X6428375Y-2160000D01*
X6373375Y-2105000D02*
X6483375Y-2105000D01*
X6373375Y-2700000D02*
X6483375Y-2810000D01*
X6483375Y-2700000D02*
X6373375Y-2810000D01*
X6428375Y-2700000D02*
X6428375Y-2810000D01*
X6373375Y-2755000D02*
X6483375Y-2755000D01*
X6920375Y-2055000D02*
X7030375Y-2165000D01*
X7030375Y-2055000D02*
X6920375Y-2165000D01*
X6975375Y-2055000D02*
X6975375Y-2165000D01*
X6920375Y-2110000D02*
X7030375Y-2110000D01*
X6920375Y-2705000D02*
X7030375Y-2815000D01*
X7030375Y-2705000D02*
X6920375Y-2815000D01*
X6975375Y-2705000D02*
X6975375Y-2815000D01*
X6920375Y-2760000D02*
X7030375Y-2760000D01*
X7370375Y-2055000D02*
X7480375Y-2165000D01*
X7480375Y-2055000D02*
X7370375Y-2165000D01*
X7425375Y-2055000D02*
X7425375Y-2165000D01*
X7370375Y-2110000D02*
X7480375Y-2110000D01*
X7370375Y-2705000D02*
X7480375Y-2815000D01*
X7480375Y-2705000D02*
X7370375Y-2815000D01*
X7425375Y-2705000D02*
X7425375Y-2815000D01*
X7370375Y-2760000D02*
X7480375Y-2760000D01*
D18*
X1771025Y-6749000D02*
X1904025Y-6882000D01*
X1904025Y-6749000D02*
X1771025Y-6882000D01*
X1884548Y-6862523D02*
X1884548Y-6768477D01*
X1790502Y-6768477D01*
X1790502Y-6862523D01*
X1884548Y-6862523D01*
X1831025Y-6259000D02*
X1964025Y-6392000D01*
X1964025Y-6259000D02*
X1831025Y-6392000D01*
X1944548Y-6372523D02*
X1944548Y-6278477D01*
X1850502Y-6278477D01*
X1850502Y-6372523D01*
X1944548Y-6372523D01*
X3281025Y-6259000D02*
X3414025Y-6392000D01*
X3414025Y-6259000D02*
X3281025Y-6392000D01*
X3394548Y-6372523D02*
X3394548Y-6278477D01*
X3300502Y-6278477D01*
X3300502Y-6372523D01*
X3394548Y-6372523D01*
X3341025Y-6749000D02*
X3474025Y-6882000D01*
X3474025Y-6749000D02*
X3341025Y-6882000D01*
X3454548Y-6862523D02*
X3454548Y-6768477D01*
X3360502Y-6768477D01*
X3360502Y-6862523D01*
X3454548Y-6862523D01*
X4391025Y-6749000D02*
X4524025Y-6882000D01*
X4524025Y-6749000D02*
X4391025Y-6882000D01*
X4504548Y-6862523D02*
X4504548Y-6768477D01*
X4410502Y-6768477D01*
X4410502Y-6862523D01*
X4504548Y-6862523D01*
X4451025Y-6259000D02*
X4584025Y-6392000D01*
X4584025Y-6259000D02*
X4451025Y-6392000D01*
X4564548Y-6372523D02*
X4564548Y-6278477D01*
X4470502Y-6278477D01*
X4470502Y-6372523D01*
X4564548Y-6372523D01*
X5901025Y-6259000D02*
X6034025Y-6392000D01*
X6034025Y-6259000D02*
X5901025Y-6392000D01*
X6014548Y-6372523D02*
X6014548Y-6278477D01*
X5920502Y-6278477D01*
X5920502Y-6372523D01*
X6014548Y-6372523D01*
X5961025Y-6749000D02*
X6094025Y-6882000D01*
X6094025Y-6749000D02*
X5961025Y-6882000D01*
X6074548Y-6862523D02*
X6074548Y-6768477D01*
X5980502Y-6768477D01*
X5980502Y-6862523D01*
X6074548Y-6862523D01*
X7011950Y-6749250D02*
X7144950Y-6882250D01*
X7144950Y-6749250D02*
X7011950Y-6882250D01*
X7125473Y-6862773D02*
X7125473Y-6768727D01*
X7031427Y-6768727D01*
X7031427Y-6862773D01*
X7125473Y-6862773D01*
X7071950Y-6259250D02*
X7204950Y-6392250D01*
X7204950Y-6259250D02*
X7071950Y-6392250D01*
X7185473Y-6372773D02*
X7185473Y-6278727D01*
X7091427Y-6278727D01*
X7091427Y-6372773D01*
X7185473Y-6372773D01*
X8310950Y-1909750D02*
X8443950Y-2042750D01*
X8443950Y-1909750D02*
X8310950Y-2042750D01*
X8424473Y-2023273D02*
X8424473Y-1929227D01*
X8330427Y-1929227D01*
X8330427Y-2023273D01*
X8424473Y-2023273D01*
X8370950Y-2399750D02*
X8503950Y-2532750D01*
X8503950Y-2399750D02*
X8370950Y-2532750D01*
X8484473Y-2513273D02*
X8484473Y-2419227D01*
X8390427Y-2419227D01*
X8390427Y-2513273D01*
X8484473Y-2513273D01*
X8521950Y-6259250D02*
X8654950Y-6392250D01*
X8654950Y-6259250D02*
X8521950Y-6392250D01*
X8635473Y-6372773D02*
X8635473Y-6278727D01*
X8541427Y-6278727D01*
X8541427Y-6372773D01*
X8635473Y-6372773D01*
X8581950Y-6749250D02*
X8714950Y-6882250D01*
X8714950Y-6749250D02*
X8581950Y-6882250D01*
X8695473Y-6862773D02*
X8695473Y-6768727D01*
X8601427Y-6768727D01*
X8601427Y-6862773D01*
X8695473Y-6862773D01*
X9631950Y-6749250D02*
X9764950Y-6882250D01*
X9764950Y-6749250D02*
X9631950Y-6882250D01*
X9745473Y-6862773D02*
X9745473Y-6768727D01*
X9651427Y-6768727D01*
X9651427Y-6862773D01*
X9745473Y-6862773D01*
X9691950Y-6259250D02*
X9824950Y-6392250D01*
X9824950Y-6259250D02*
X9691950Y-6392250D01*
X9805473Y-6372773D02*
X9805473Y-6278727D01*
X9711427Y-6278727D01*
X9711427Y-6372773D01*
X9805473Y-6372773D01*
X9820950Y-2399750D02*
X9953950Y-2532750D01*
X9953950Y-2399750D02*
X9820950Y-2532750D01*
X9934473Y-2513273D02*
X9934473Y-2419227D01*
X9840427Y-2419227D01*
X9840427Y-2513273D01*
X9934473Y-2513273D01*
X9880950Y-1909750D02*
X10013950Y-2042750D01*
X10013950Y-1909750D02*
X9880950Y-2042750D01*
X9994473Y-2023273D02*
X9994473Y-1929227D01*
X9900427Y-1929227D01*
X9900427Y-2023273D01*
X9994473Y-2023273D01*
X11141950Y-6259250D02*
X11274950Y-6392250D01*
X11274950Y-6259250D02*
X11141950Y-6392250D01*
X11255473Y-6372773D02*
X11255473Y-6278727D01*
X11161427Y-6278727D01*
X11161427Y-6372773D01*
X11255473Y-6372773D01*
X11201950Y-6749250D02*
X11334950Y-6882250D01*
X11334950Y-6749250D02*
X11201950Y-6882250D01*
X11315473Y-6862773D02*
X11315473Y-6768727D01*
X11221427Y-6768727D01*
X11221427Y-6862773D01*
X11315473Y-6862773D01*
D19*
X2009000Y-4930000D02*
X2309000Y-5230000D01*
X2309000Y-4930000D02*
X2009000Y-5230000D01*
X2159000Y-5230000D02*
X2309000Y-5080000D01*
X2159000Y-4930000D01*
X2009000Y-5080000D01*
X2159000Y-5230000D01*
X3482200Y-2263000D02*
X3782200Y-2563000D01*
X3782200Y-2263000D02*
X3482200Y-2563000D01*
X3632200Y-2563000D02*
X3782200Y-2413000D01*
X3632200Y-2263000D01*
X3482200Y-2413000D01*
X3632200Y-2563000D01*
X8105000Y-2948800D02*
X8405000Y-3248800D01*
X8405000Y-2948800D02*
X8105000Y-3248800D01*
X8255000Y-3248800D02*
X8405000Y-3098800D01*
X8255000Y-2948800D01*
X8105000Y-3098800D01*
X8255000Y-3248800D01*
X10848200Y-5107800D02*
X11148200Y-5407800D01*
X11148200Y-5107800D02*
X10848200Y-5407800D01*
X10998200Y-5407800D02*
X11148200Y-5257800D01*
X10998200Y-5107800D01*
X10848200Y-5257800D01*
X10998200Y-5407800D01*
D11*
X1828619Y-7390476D02*
X1828619Y-7190476D01*
X1876238Y-7190476D01*
X1904809Y-7200000D01*
X1923857Y-7219048D01*
X1933381Y-7238095D01*
X1942905Y-7276190D01*
X1942905Y-7304762D01*
X1933381Y-7342857D01*
X1923857Y-7361905D01*
X1904809Y-7380952D01*
X1876238Y-7390476D01*
X1828619Y-7390476D01*
X2028619Y-7390476D02*
X2028619Y-7257143D01*
X2028619Y-7295238D02*
X2038143Y-7276190D01*
X2047667Y-7266667D01*
X2066714Y-7257143D01*
X2085762Y-7257143D01*
X2152429Y-7390476D02*
X2152429Y-7257143D01*
X2152429Y-7190476D02*
X2142905Y-7200000D01*
X2152429Y-7209524D01*
X2161952Y-7200000D01*
X2152429Y-7190476D01*
X2152429Y-7209524D01*
X2276238Y-7390476D02*
X2257190Y-7380952D01*
X2247667Y-7361905D01*
X2247667Y-7190476D01*
X2381000Y-7390476D02*
X2361952Y-7380952D01*
X2352429Y-7361905D01*
X2352429Y-7190476D01*
X2609571Y-7390476D02*
X2609571Y-7190476D01*
X2676238Y-7333333D01*
X2742905Y-7190476D01*
X2742905Y-7390476D01*
X2923857Y-7390476D02*
X2923857Y-7285714D01*
X2914333Y-7266667D01*
X2895286Y-7257143D01*
X2857190Y-7257143D01*
X2838143Y-7266667D01*
X2923857Y-7380952D02*
X2904809Y-7390476D01*
X2857190Y-7390476D01*
X2838143Y-7380952D01*
X2828619Y-7361905D01*
X2828619Y-7342857D01*
X2838143Y-7323809D01*
X2857190Y-7314286D01*
X2904809Y-7314286D01*
X2923857Y-7304762D01*
X3019095Y-7257143D02*
X3019095Y-7457143D01*
X3019095Y-7266667D02*
X3038143Y-7257143D01*
X3076238Y-7257143D01*
X3095286Y-7266667D01*
X3104809Y-7276190D01*
X3114333Y-7295238D01*
X3114333Y-7352381D01*
X3104809Y-7371428D01*
X3095286Y-7380952D01*
X3076238Y-7390476D01*
X3038143Y-7390476D01*
X3019095Y-7380952D01*
X3200048Y-7371428D02*
X3209571Y-7380952D01*
X3200048Y-7390476D01*
X3190524Y-7380952D01*
X3200048Y-7371428D01*
X3200048Y-7390476D01*
X3200048Y-7266667D02*
X3209571Y-7276190D01*
X3200048Y-7285714D01*
X3190524Y-7276190D01*
X3200048Y-7266667D01*
X3200048Y-7285714D01*
D12*
X1551000Y-7710000D02*
X1571000Y-7730000D01*
X1571000Y-7710000D02*
X1551000Y-7730000D01*
D11*
X1866714Y-7610476D02*
X1885762Y-7610476D01*
X1904809Y-7620000D01*
X1914333Y-7629524D01*
X1923857Y-7648571D01*
X1933381Y-7686667D01*
X1933381Y-7734286D01*
X1923857Y-7772381D01*
X1914333Y-7791428D01*
X1904809Y-7800952D01*
X1885762Y-7810476D01*
X1866714Y-7810476D01*
X1847667Y-7800952D01*
X1838143Y-7791428D01*
X1828619Y-7772381D01*
X1819095Y-7734286D01*
X1819095Y-7686667D01*
X1828619Y-7648571D01*
X1838143Y-7629524D01*
X1847667Y-7620000D01*
X1866714Y-7610476D01*
X2019095Y-7791428D02*
X2028619Y-7800952D01*
X2019095Y-7810476D01*
X2009571Y-7800952D01*
X2019095Y-7791428D01*
X2019095Y-7810476D01*
X2104810Y-7629524D02*
X2114333Y-7620000D01*
X2133381Y-7610476D01*
X2181000Y-7610476D01*
X2200048Y-7620000D01*
X2209571Y-7629524D01*
X2219095Y-7648571D01*
X2219095Y-7667619D01*
X2209571Y-7696190D01*
X2095286Y-7810476D01*
X2219095Y-7810476D01*
X2342905Y-7610476D02*
X2361952Y-7610476D01*
X2381000Y-7620000D01*
X2390524Y-7629524D01*
X2400048Y-7648571D01*
X2409571Y-7686667D01*
X2409571Y-7734286D01*
X2400048Y-7772381D01*
X2390524Y-7791428D01*
X2381000Y-7800952D01*
X2361952Y-7810476D01*
X2342905Y-7810476D01*
X2323857Y-7800952D01*
X2314333Y-7791428D01*
X2304810Y-7772381D01*
X2295286Y-7734286D01*
X2295286Y-7686667D01*
X2304810Y-7648571D01*
X2314333Y-7629524D01*
X2323857Y-7620000D01*
X2342905Y-7610476D01*
X2533381Y-7610476D02*
X2552429Y-7610476D01*
X2571476Y-7620000D01*
X2581000Y-7629524D01*
X2590524Y-7648571D01*
X2600048Y-7686667D01*
X2600048Y-7734286D01*
X2590524Y-7772381D01*
X2581000Y-7791428D01*
X2571476Y-7800952D01*
X2552429Y-7810476D01*
X2533381Y-7810476D01*
X2514333Y-7800952D01*
X2504810Y-7791428D01*
X2495286Y-7772381D01*
X2485762Y-7734286D01*
X2485762Y-7686667D01*
X2495286Y-7648571D01*
X2504810Y-7629524D01*
X2514333Y-7620000D01*
X2533381Y-7610476D01*
X2685762Y-7810476D02*
X2685762Y-7677143D01*
X2685762Y-7696190D02*
X2695286Y-7686667D01*
X2714333Y-7677143D01*
X2742905Y-7677143D01*
X2761952Y-7686667D01*
X2771476Y-7705714D01*
X2771476Y-7810476D01*
X2771476Y-7705714D02*
X2781000Y-7686667D01*
X2800048Y-7677143D01*
X2828619Y-7677143D01*
X2847667Y-7686667D01*
X2857190Y-7705714D01*
X2857190Y-7810476D01*
X2952428Y-7810476D02*
X2952428Y-7677143D01*
X2952428Y-7696190D02*
X2961952Y-7686667D01*
X2981000Y-7677143D01*
X3009571Y-7677143D01*
X3028619Y-7686667D01*
X3038143Y-7705714D01*
X3038143Y-7810476D01*
X3038143Y-7705714D02*
X3047667Y-7686667D01*
X3066714Y-7677143D01*
X3095286Y-7677143D01*
X3114333Y-7686667D01*
X3123857Y-7705714D01*
X3123857Y-7810476D01*
X3514333Y-7600952D02*
X3342905Y-7858095D01*
X3771476Y-7610476D02*
X3790524Y-7610476D01*
X3809571Y-7620000D01*
X3819095Y-7629524D01*
X3828619Y-7648571D01*
X3838143Y-7686667D01*
X3838143Y-7734286D01*
X3828619Y-7772381D01*
X3819095Y-7791428D01*
X3809571Y-7800952D01*
X3790524Y-7810476D01*
X3771476Y-7810476D01*
X3752428Y-7800952D01*
X3742905Y-7791428D01*
X3733381Y-7772381D01*
X3723857Y-7734286D01*
X3723857Y-7686667D01*
X3733381Y-7648571D01*
X3742905Y-7629524D01*
X3752428Y-7620000D01*
X3771476Y-7610476D01*
X3923857Y-7791428D02*
X3933381Y-7800952D01*
X3923857Y-7810476D01*
X3914333Y-7800952D01*
X3923857Y-7791428D01*
X3923857Y-7810476D01*
X4057190Y-7610476D02*
X4076238Y-7610476D01*
X4095286Y-7620000D01*
X4104809Y-7629524D01*
X4114333Y-7648571D01*
X4123857Y-7686667D01*
X4123857Y-7734286D01*
X4114333Y-7772381D01*
X4104809Y-7791428D01*
X4095286Y-7800952D01*
X4076238Y-7810476D01*
X4057190Y-7810476D01*
X4038143Y-7800952D01*
X4028619Y-7791428D01*
X4019095Y-7772381D01*
X4009571Y-7734286D01*
X4009571Y-7686667D01*
X4019095Y-7648571D01*
X4028619Y-7629524D01*
X4038143Y-7620000D01*
X4057190Y-7610476D01*
X4247667Y-7610476D02*
X4266714Y-7610476D01*
X4285762Y-7620000D01*
X4295286Y-7629524D01*
X4304810Y-7648571D01*
X4314333Y-7686667D01*
X4314333Y-7734286D01*
X4304810Y-7772381D01*
X4295286Y-7791428D01*
X4285762Y-7800952D01*
X4266714Y-7810476D01*
X4247667Y-7810476D01*
X4228619Y-7800952D01*
X4219095Y-7791428D01*
X4209571Y-7772381D01*
X4200048Y-7734286D01*
X4200048Y-7686667D01*
X4209571Y-7648571D01*
X4219095Y-7629524D01*
X4228619Y-7620000D01*
X4247667Y-7610476D01*
X4381000Y-7610476D02*
X4514333Y-7610476D01*
X4428619Y-7810476D01*
X4600048Y-7810476D02*
X4638143Y-7810476D01*
X4657190Y-7800952D01*
X4666714Y-7791428D01*
X4685762Y-7762857D01*
X4695286Y-7724762D01*
X4695286Y-7648571D01*
X4685762Y-7629524D01*
X4676238Y-7620000D01*
X4657190Y-7610476D01*
X4619095Y-7610476D01*
X4600048Y-7620000D01*
X4590524Y-7629524D01*
X4581000Y-7648571D01*
X4581000Y-7696190D01*
X4590524Y-7715238D01*
X4600048Y-7724762D01*
X4619095Y-7734286D01*
X4657190Y-7734286D01*
X4676238Y-7724762D01*
X4685762Y-7715238D01*
X4695286Y-7696190D01*
X4771476Y-7610476D02*
X4771476Y-7648571D01*
X4847667Y-7610476D02*
X4847667Y-7648571D01*
X5142905Y-7886667D02*
X5133381Y-7877143D01*
X5114333Y-7848571D01*
X5104810Y-7829524D01*
X5095286Y-7800952D01*
X5085762Y-7753333D01*
X5085762Y-7715238D01*
X5095286Y-7667619D01*
X5104810Y-7639048D01*
X5114333Y-7620000D01*
X5133381Y-7591428D01*
X5142905Y-7581905D01*
X5200048Y-7610476D02*
X5323857Y-7610476D01*
X5257190Y-7686667D01*
X5285762Y-7686667D01*
X5304810Y-7696190D01*
X5314333Y-7705714D01*
X5323857Y-7724762D01*
X5323857Y-7772381D01*
X5314333Y-7791428D01*
X5304810Y-7800952D01*
X5285762Y-7810476D01*
X5228619Y-7810476D01*
X5209571Y-7800952D01*
X5200048Y-7791428D01*
X5495286Y-7677143D02*
X5495286Y-7810476D01*
X5447667Y-7600952D02*
X5400048Y-7743809D01*
X5523857Y-7743809D01*
X5752428Y-7810476D02*
X5752428Y-7610476D01*
X5838143Y-7810476D02*
X5838143Y-7705714D01*
X5828619Y-7686667D01*
X5809571Y-7677143D01*
X5781000Y-7677143D01*
X5761952Y-7686667D01*
X5752428Y-7696190D01*
X5961952Y-7810476D02*
X5942905Y-7800952D01*
X5933381Y-7791428D01*
X5923857Y-7772381D01*
X5923857Y-7715238D01*
X5933381Y-7696190D01*
X5942905Y-7686667D01*
X5961952Y-7677143D01*
X5990524Y-7677143D01*
X6009571Y-7686667D01*
X6019095Y-7696190D01*
X6028619Y-7715238D01*
X6028619Y-7772381D01*
X6019095Y-7791428D01*
X6009571Y-7800952D01*
X5990524Y-7810476D01*
X5961952Y-7810476D01*
X6142905Y-7810476D02*
X6123857Y-7800952D01*
X6114333Y-7781905D01*
X6114333Y-7610476D01*
X6295286Y-7800952D02*
X6276238Y-7810476D01*
X6238143Y-7810476D01*
X6219095Y-7800952D01*
X6209571Y-7781905D01*
X6209571Y-7705714D01*
X6219095Y-7686667D01*
X6238143Y-7677143D01*
X6276238Y-7677143D01*
X6295286Y-7686667D01*
X6304809Y-7705714D01*
X6304809Y-7724762D01*
X6209571Y-7743809D01*
X6381000Y-7800952D02*
X6400048Y-7810476D01*
X6438143Y-7810476D01*
X6457190Y-7800952D01*
X6466714Y-7781905D01*
X6466714Y-7772381D01*
X6457190Y-7753333D01*
X6438143Y-7743809D01*
X6409571Y-7743809D01*
X6390524Y-7734286D01*
X6381000Y-7715238D01*
X6381000Y-7705714D01*
X6390524Y-7686667D01*
X6409571Y-7677143D01*
X6438143Y-7677143D01*
X6457190Y-7686667D01*
X6533381Y-7886667D02*
X6542905Y-7877143D01*
X6561952Y-7848571D01*
X6571476Y-7829524D01*
X6581000Y-7800952D01*
X6590524Y-7753333D01*
X6590524Y-7715238D01*
X6581000Y-7667619D01*
X6571476Y-7639048D01*
X6561952Y-7620000D01*
X6542905Y-7591428D01*
X6533381Y-7581905D01*
D13*
X1571000Y-7984000D02*
G75*
G03*
X1571000Y-7984000I-15000J0D01*
G01*
D11*
X1866714Y-7874476D02*
X1885762Y-7874476D01*
X1904809Y-7884000D01*
X1914333Y-7893524D01*
X1923857Y-7912571D01*
X1933381Y-7950667D01*
X1933381Y-7998286D01*
X1923857Y-8036381D01*
X1914333Y-8055428D01*
X1904809Y-8064952D01*
X1885762Y-8074476D01*
X1866714Y-8074476D01*
X1847667Y-8064952D01*
X1838143Y-8055428D01*
X1828619Y-8036381D01*
X1819095Y-7998286D01*
X1819095Y-7950667D01*
X1828619Y-7912571D01*
X1838143Y-7893524D01*
X1847667Y-7884000D01*
X1866714Y-7874476D01*
X2019095Y-8055428D02*
X2028619Y-8064952D01*
X2019095Y-8074476D01*
X2009571Y-8064952D01*
X2019095Y-8055428D01*
X2019095Y-8074476D01*
X2095286Y-7874476D02*
X2219095Y-7874476D01*
X2152429Y-7950667D01*
X2181000Y-7950667D01*
X2200048Y-7960190D01*
X2209571Y-7969714D01*
X2219095Y-7988762D01*
X2219095Y-8036381D01*
X2209571Y-8055428D01*
X2200048Y-8064952D01*
X2181000Y-8074476D01*
X2123857Y-8074476D01*
X2104810Y-8064952D01*
X2095286Y-8055428D01*
X2342905Y-7874476D02*
X2361952Y-7874476D01*
X2381000Y-7884000D01*
X2390524Y-7893524D01*
X2400048Y-7912571D01*
X2409571Y-7950667D01*
X2409571Y-7998286D01*
X2400048Y-8036381D01*
X2390524Y-8055428D01*
X2381000Y-8064952D01*
X2361952Y-8074476D01*
X2342905Y-8074476D01*
X2323857Y-8064952D01*
X2314333Y-8055428D01*
X2304810Y-8036381D01*
X2295286Y-7998286D01*
X2295286Y-7950667D01*
X2304810Y-7912571D01*
X2314333Y-7893524D01*
X2323857Y-7884000D01*
X2342905Y-7874476D01*
X2533381Y-7874476D02*
X2552429Y-7874476D01*
X2571476Y-7884000D01*
X2581000Y-7893524D01*
X2590524Y-7912571D01*
X2600048Y-7950667D01*
X2600048Y-7998286D01*
X2590524Y-8036381D01*
X2581000Y-8055428D01*
X2571476Y-8064952D01*
X2552429Y-8074476D01*
X2533381Y-8074476D01*
X2514333Y-8064952D01*
X2504810Y-8055428D01*
X2495286Y-8036381D01*
X2485762Y-7998286D01*
X2485762Y-7950667D01*
X2495286Y-7912571D01*
X2504810Y-7893524D01*
X2514333Y-7884000D01*
X2533381Y-7874476D01*
X2685762Y-8074476D02*
X2685762Y-7941143D01*
X2685762Y-7960190D02*
X2695286Y-7950667D01*
X2714333Y-7941143D01*
X2742905Y-7941143D01*
X2761952Y-7950667D01*
X2771476Y-7969714D01*
X2771476Y-8074476D01*
X2771476Y-7969714D02*
X2781000Y-7950667D01*
X2800048Y-7941143D01*
X2828619Y-7941143D01*
X2847667Y-7950667D01*
X2857190Y-7969714D01*
X2857190Y-8074476D01*
X2952428Y-8074476D02*
X2952428Y-7941143D01*
X2952428Y-7960190D02*
X2961952Y-7950667D01*
X2981000Y-7941143D01*
X3009571Y-7941143D01*
X3028619Y-7950667D01*
X3038143Y-7969714D01*
X3038143Y-8074476D01*
X3038143Y-7969714D02*
X3047667Y-7950667D01*
X3066714Y-7941143D01*
X3095286Y-7941143D01*
X3114333Y-7950667D01*
X3123857Y-7969714D01*
X3123857Y-8074476D01*
X3514333Y-7864952D02*
X3342905Y-8122095D01*
X3771476Y-7874476D02*
X3790524Y-7874476D01*
X3809571Y-7884000D01*
X3819095Y-7893524D01*
X3828619Y-7912571D01*
X3838143Y-7950667D01*
X3838143Y-7998286D01*
X3828619Y-8036381D01*
X3819095Y-8055428D01*
X3809571Y-8064952D01*
X3790524Y-8074476D01*
X3771476Y-8074476D01*
X3752428Y-8064952D01*
X3742905Y-8055428D01*
X3733381Y-8036381D01*
X3723857Y-7998286D01*
X3723857Y-7950667D01*
X3733381Y-7912571D01*
X3742905Y-7893524D01*
X3752428Y-7884000D01*
X3771476Y-7874476D01*
X3923857Y-8055428D02*
X3933381Y-8064952D01*
X3923857Y-8074476D01*
X3914333Y-8064952D01*
X3923857Y-8055428D01*
X3923857Y-8074476D01*
X4057190Y-7874476D02*
X4076238Y-7874476D01*
X4095286Y-7884000D01*
X4104809Y-7893524D01*
X4114333Y-7912571D01*
X4123857Y-7950667D01*
X4123857Y-7998286D01*
X4114333Y-8036381D01*
X4104809Y-8055428D01*
X4095286Y-8064952D01*
X4076238Y-8074476D01*
X4057190Y-8074476D01*
X4038143Y-8064952D01*
X4028619Y-8055428D01*
X4019095Y-8036381D01*
X4009571Y-7998286D01*
X4009571Y-7950667D01*
X4019095Y-7912571D01*
X4028619Y-7893524D01*
X4038143Y-7884000D01*
X4057190Y-7874476D01*
X4314333Y-8074476D02*
X4200048Y-8074476D01*
X4257190Y-8074476D02*
X4257190Y-7874476D01*
X4238143Y-7903048D01*
X4219095Y-7922095D01*
X4200048Y-7931619D01*
X4504810Y-8074476D02*
X4390524Y-8074476D01*
X4447667Y-8074476D02*
X4447667Y-7874476D01*
X4428619Y-7903048D01*
X4409571Y-7922095D01*
X4390524Y-7931619D01*
X4619095Y-7960190D02*
X4600048Y-7950667D01*
X4590524Y-7941143D01*
X4581000Y-7922095D01*
X4581000Y-7912571D01*
X4590524Y-7893524D01*
X4600048Y-7884000D01*
X4619095Y-7874476D01*
X4657190Y-7874476D01*
X4676238Y-7884000D01*
X4685762Y-7893524D01*
X4695286Y-7912571D01*
X4695286Y-7922095D01*
X4685762Y-7941143D01*
X4676238Y-7950667D01*
X4657190Y-7960190D01*
X4619095Y-7960190D01*
X4600048Y-7969714D01*
X4590524Y-7979238D01*
X4581000Y-7998286D01*
X4581000Y-8036381D01*
X4590524Y-8055428D01*
X4600048Y-8064952D01*
X4619095Y-8074476D01*
X4657190Y-8074476D01*
X4676238Y-8064952D01*
X4685762Y-8055428D01*
X4695286Y-8036381D01*
X4695286Y-7998286D01*
X4685762Y-7979238D01*
X4676238Y-7969714D01*
X4657190Y-7960190D01*
X4771476Y-7874476D02*
X4771476Y-7912571D01*
X4847667Y-7874476D02*
X4847667Y-7912571D01*
X5142905Y-8150667D02*
X5133381Y-8141143D01*
X5114333Y-8112571D01*
X5104810Y-8093524D01*
X5095286Y-8064952D01*
X5085762Y-8017333D01*
X5085762Y-7979238D01*
X5095286Y-7931619D01*
X5104810Y-7903048D01*
X5114333Y-7884000D01*
X5133381Y-7855428D01*
X5142905Y-7845905D01*
X5209571Y-7893524D02*
X5219095Y-7884000D01*
X5238143Y-7874476D01*
X5285762Y-7874476D01*
X5304810Y-7884000D01*
X5314333Y-7893524D01*
X5323857Y-7912571D01*
X5323857Y-7931619D01*
X5314333Y-7960190D01*
X5200048Y-8074476D01*
X5323857Y-8074476D01*
X5390524Y-7874476D02*
X5523857Y-7874476D01*
X5438143Y-8074476D01*
X5638143Y-7874476D02*
X5657190Y-7874476D01*
X5676238Y-7884000D01*
X5685762Y-7893524D01*
X5695286Y-7912571D01*
X5704809Y-7950667D01*
X5704809Y-7998286D01*
X5695286Y-8036381D01*
X5685762Y-8055428D01*
X5676238Y-8064952D01*
X5657190Y-8074476D01*
X5638143Y-8074476D01*
X5619095Y-8064952D01*
X5609571Y-8055428D01*
X5600048Y-8036381D01*
X5590524Y-7998286D01*
X5590524Y-7950667D01*
X5600048Y-7912571D01*
X5609571Y-7893524D01*
X5619095Y-7884000D01*
X5638143Y-7874476D01*
X5942905Y-8074476D02*
X5942905Y-7874476D01*
X6028619Y-8074476D02*
X6028619Y-7969714D01*
X6019095Y-7950667D01*
X6000048Y-7941143D01*
X5971476Y-7941143D01*
X5952428Y-7950667D01*
X5942905Y-7960190D01*
X6152428Y-8074476D02*
X6133381Y-8064952D01*
X6123857Y-8055428D01*
X6114333Y-8036381D01*
X6114333Y-7979238D01*
X6123857Y-7960190D01*
X6133381Y-7950667D01*
X6152428Y-7941143D01*
X6181000Y-7941143D01*
X6200048Y-7950667D01*
X6209571Y-7960190D01*
X6219095Y-7979238D01*
X6219095Y-8036381D01*
X6209571Y-8055428D01*
X6200048Y-8064952D01*
X6181000Y-8074476D01*
X6152428Y-8074476D01*
X6333381Y-8074476D02*
X6314333Y-8064952D01*
X6304809Y-8045905D01*
X6304809Y-7874476D01*
X6485762Y-8064952D02*
X6466714Y-8074476D01*
X6428619Y-8074476D01*
X6409571Y-8064952D01*
X6400048Y-8045905D01*
X6400048Y-7969714D01*
X6409571Y-7950667D01*
X6428619Y-7941143D01*
X6466714Y-7941143D01*
X6485762Y-7950667D01*
X6495286Y-7969714D01*
X6495286Y-7988762D01*
X6400048Y-8007809D01*
X6571476Y-8064952D02*
X6590524Y-8074476D01*
X6628619Y-8074476D01*
X6647667Y-8064952D01*
X6657190Y-8045905D01*
X6657190Y-8036381D01*
X6647667Y-8017333D01*
X6628619Y-8007809D01*
X6600048Y-8007809D01*
X6581000Y-7998286D01*
X6571476Y-7979238D01*
X6571476Y-7969714D01*
X6581000Y-7950667D01*
X6600048Y-7941143D01*
X6628619Y-7941143D01*
X6647667Y-7950667D01*
X6723857Y-8150667D02*
X6733381Y-8141143D01*
X6752428Y-8112571D01*
X6761952Y-8093524D01*
X6771476Y-8064952D01*
X6781000Y-8017333D01*
X6781000Y-7979238D01*
X6771476Y-7931619D01*
X6761952Y-7903048D01*
X6752428Y-7884000D01*
X6733381Y-7855428D01*
X6723857Y-7845905D01*
D14*
X1551000Y-8228000D02*
X1551000Y-8268000D01*
X1531000Y-8248000D02*
X1571000Y-8248000D01*
D11*
X1866714Y-8138476D02*
X1885762Y-8138476D01*
X1904809Y-8148000D01*
X1914333Y-8157524D01*
X1923857Y-8176571D01*
X1933381Y-8214667D01*
X1933381Y-8262286D01*
X1923857Y-8300381D01*
X1914333Y-8319428D01*
X1904809Y-8328952D01*
X1885762Y-8338476D01*
X1866714Y-8338476D01*
X1847667Y-8328952D01*
X1838143Y-8319428D01*
X1828619Y-8300381D01*
X1819095Y-8262286D01*
X1819095Y-8214667D01*
X1828619Y-8176571D01*
X1838143Y-8157524D01*
X1847667Y-8148000D01*
X1866714Y-8138476D01*
X2019095Y-8319428D02*
X2028619Y-8328952D01*
X2019095Y-8338476D01*
X2009571Y-8328952D01*
X2019095Y-8319428D01*
X2019095Y-8338476D01*
X2200048Y-8205143D02*
X2200048Y-8338476D01*
X2152429Y-8128952D02*
X2104810Y-8271809D01*
X2228619Y-8271809D01*
X2342905Y-8138476D02*
X2361952Y-8138476D01*
X2381000Y-8148000D01*
X2390524Y-8157524D01*
X2400048Y-8176571D01*
X2409571Y-8214667D01*
X2409571Y-8262286D01*
X2400048Y-8300381D01*
X2390524Y-8319428D01*
X2381000Y-8328952D01*
X2361952Y-8338476D01*
X2342905Y-8338476D01*
X2323857Y-8328952D01*
X2314333Y-8319428D01*
X2304810Y-8300381D01*
X2295286Y-8262286D01*
X2295286Y-8214667D01*
X2304810Y-8176571D01*
X2314333Y-8157524D01*
X2323857Y-8148000D01*
X2342905Y-8138476D01*
X2533381Y-8138476D02*
X2552429Y-8138476D01*
X2571476Y-8148000D01*
X2581000Y-8157524D01*
X2590524Y-8176571D01*
X2600048Y-8214667D01*
X2600048Y-8262286D01*
X2590524Y-8300381D01*
X2581000Y-8319428D01*
X2571476Y-8328952D01*
X2552429Y-8338476D01*
X2533381Y-8338476D01*
X2514333Y-8328952D01*
X2504810Y-8319428D01*
X2495286Y-8300381D01*
X2485762Y-8262286D01*
X2485762Y-8214667D01*
X2495286Y-8176571D01*
X2504810Y-8157524D01*
X2514333Y-8148000D01*
X2533381Y-8138476D01*
X2685762Y-8338476D02*
X2685762Y-8205143D01*
X2685762Y-8224190D02*
X2695286Y-8214667D01*
X2714333Y-8205143D01*
X2742905Y-8205143D01*
X2761952Y-8214667D01*
X2771476Y-8233714D01*
X2771476Y-8338476D01*
X2771476Y-8233714D02*
X2781000Y-8214667D01*
X2800048Y-8205143D01*
X2828619Y-8205143D01*
X2847667Y-8214667D01*
X2857190Y-8233714D01*
X2857190Y-8338476D01*
X2952428Y-8338476D02*
X2952428Y-8205143D01*
X2952428Y-8224190D02*
X2961952Y-8214667D01*
X2981000Y-8205143D01*
X3009571Y-8205143D01*
X3028619Y-8214667D01*
X3038143Y-8233714D01*
X3038143Y-8338476D01*
X3038143Y-8233714D02*
X3047667Y-8214667D01*
X3066714Y-8205143D01*
X3095286Y-8205143D01*
X3114333Y-8214667D01*
X3123857Y-8233714D01*
X3123857Y-8338476D01*
X3514333Y-8128952D02*
X3342905Y-8386095D01*
X3771476Y-8138476D02*
X3790524Y-8138476D01*
X3809571Y-8148000D01*
X3819095Y-8157524D01*
X3828619Y-8176571D01*
X3838143Y-8214667D01*
X3838143Y-8262286D01*
X3828619Y-8300381D01*
X3819095Y-8319428D01*
X3809571Y-8328952D01*
X3790524Y-8338476D01*
X3771476Y-8338476D01*
X3752428Y-8328952D01*
X3742905Y-8319428D01*
X3733381Y-8300381D01*
X3723857Y-8262286D01*
X3723857Y-8214667D01*
X3733381Y-8176571D01*
X3742905Y-8157524D01*
X3752428Y-8148000D01*
X3771476Y-8138476D01*
X3923857Y-8319428D02*
X3933381Y-8328952D01*
X3923857Y-8338476D01*
X3914333Y-8328952D01*
X3923857Y-8319428D01*
X3923857Y-8338476D01*
X4057190Y-8138476D02*
X4076238Y-8138476D01*
X4095286Y-8148000D01*
X4104809Y-8157524D01*
X4114333Y-8176571D01*
X4123857Y-8214667D01*
X4123857Y-8262286D01*
X4114333Y-8300381D01*
X4104809Y-8319428D01*
X4095286Y-8328952D01*
X4076238Y-8338476D01*
X4057190Y-8338476D01*
X4038143Y-8328952D01*
X4028619Y-8319428D01*
X4019095Y-8300381D01*
X4009571Y-8262286D01*
X4009571Y-8214667D01*
X4019095Y-8176571D01*
X4028619Y-8157524D01*
X4038143Y-8148000D01*
X4057190Y-8138476D01*
X4314333Y-8338476D02*
X4200048Y-8338476D01*
X4257190Y-8338476D02*
X4257190Y-8138476D01*
X4238143Y-8167048D01*
X4219095Y-8186095D01*
X4200048Y-8195619D01*
X4495286Y-8138476D02*
X4400048Y-8138476D01*
X4390524Y-8233714D01*
X4400048Y-8224190D01*
X4419095Y-8214667D01*
X4466714Y-8214667D01*
X4485762Y-8224190D01*
X4495286Y-8233714D01*
X4504810Y-8252762D01*
X4504810Y-8300381D01*
X4495286Y-8319428D01*
X4485762Y-8328952D01*
X4466714Y-8338476D01*
X4419095Y-8338476D01*
X4400048Y-8328952D01*
X4390524Y-8319428D01*
X4571476Y-8138476D02*
X4704810Y-8138476D01*
X4619095Y-8338476D01*
X4771476Y-8138476D02*
X4771476Y-8176571D01*
X4847667Y-8138476D02*
X4847667Y-8176571D01*
X5142905Y-8414667D02*
X5133381Y-8405143D01*
X5114333Y-8376571D01*
X5104810Y-8357524D01*
X5095286Y-8328952D01*
X5085762Y-8281333D01*
X5085762Y-8243238D01*
X5095286Y-8195619D01*
X5104810Y-8167048D01*
X5114333Y-8148000D01*
X5133381Y-8119428D01*
X5142905Y-8109905D01*
X5323857Y-8338476D02*
X5209571Y-8338476D01*
X5266714Y-8338476D02*
X5266714Y-8138476D01*
X5247667Y-8167048D01*
X5228619Y-8186095D01*
X5209571Y-8195619D01*
X5514333Y-8338476D02*
X5400048Y-8338476D01*
X5457190Y-8338476D02*
X5457190Y-8138476D01*
X5438143Y-8167048D01*
X5419095Y-8186095D01*
X5400048Y-8195619D01*
X5752428Y-8338476D02*
X5752428Y-8138476D01*
X5838143Y-8338476D02*
X5838143Y-8233714D01*
X5828619Y-8214667D01*
X5809571Y-8205143D01*
X5781000Y-8205143D01*
X5761952Y-8214667D01*
X5752428Y-8224190D01*
X5961952Y-8338476D02*
X5942905Y-8328952D01*
X5933381Y-8319428D01*
X5923857Y-8300381D01*
X5923857Y-8243238D01*
X5933381Y-8224190D01*
X5942905Y-8214667D01*
X5961952Y-8205143D01*
X5990524Y-8205143D01*
X6009571Y-8214667D01*
X6019095Y-8224190D01*
X6028619Y-8243238D01*
X6028619Y-8300381D01*
X6019095Y-8319428D01*
X6009571Y-8328952D01*
X5990524Y-8338476D01*
X5961952Y-8338476D01*
X6142905Y-8338476D02*
X6123857Y-8328952D01*
X6114333Y-8309905D01*
X6114333Y-8138476D01*
X6295286Y-8328952D02*
X6276238Y-8338476D01*
X6238143Y-8338476D01*
X6219095Y-8328952D01*
X6209571Y-8309905D01*
X6209571Y-8233714D01*
X6219095Y-8214667D01*
X6238143Y-8205143D01*
X6276238Y-8205143D01*
X6295286Y-8214667D01*
X6304809Y-8233714D01*
X6304809Y-8252762D01*
X6209571Y-8271809D01*
X6381000Y-8328952D02*
X6400048Y-8338476D01*
X6438143Y-8338476D01*
X6457190Y-8328952D01*
X6466714Y-8309905D01*
X6466714Y-8300381D01*
X6457190Y-8281333D01*
X6438143Y-8271809D01*
X6409571Y-8271809D01*
X6390524Y-8262286D01*
X6381000Y-8243238D01*
X6381000Y-8233714D01*
X6390524Y-8214667D01*
X6409571Y-8205143D01*
X6438143Y-8205143D01*
X6457190Y-8214667D01*
X6533381Y-8414667D02*
X6542905Y-8405143D01*
X6561952Y-8376571D01*
X6571476Y-8357524D01*
X6581000Y-8328952D01*
X6590524Y-8281333D01*
X6590524Y-8243238D01*
X6581000Y-8195619D01*
X6571476Y-8167048D01*
X6561952Y-8148000D01*
X6542905Y-8119428D01*
X6533381Y-8109905D01*
D15*
X1563678Y-8529678D02*
X1563678Y-8494322D01*
X1528322Y-8494322D01*
X1528322Y-8529678D01*
X1563678Y-8529678D01*
D11*
X1866714Y-8402476D02*
X1885762Y-8402476D01*
X1904809Y-8412000D01*
X1914333Y-8421524D01*
X1923857Y-8440571D01*
X1933381Y-8478667D01*
X1933381Y-8526286D01*
X1923857Y-8564381D01*
X1914333Y-8583429D01*
X1904809Y-8592952D01*
X1885762Y-8602476D01*
X1866714Y-8602476D01*
X1847667Y-8592952D01*
X1838143Y-8583429D01*
X1828619Y-8564381D01*
X1819095Y-8526286D01*
X1819095Y-8478667D01*
X1828619Y-8440571D01*
X1838143Y-8421524D01*
X1847667Y-8412000D01*
X1866714Y-8402476D01*
X2019095Y-8583429D02*
X2028619Y-8592952D01*
X2019095Y-8602476D01*
X2009571Y-8592952D01*
X2019095Y-8583429D01*
X2019095Y-8602476D01*
X2209571Y-8402476D02*
X2114333Y-8402476D01*
X2104810Y-8497714D01*
X2114333Y-8488190D01*
X2133381Y-8478667D01*
X2181000Y-8478667D01*
X2200048Y-8488190D01*
X2209571Y-8497714D01*
X2219095Y-8516762D01*
X2219095Y-8564381D01*
X2209571Y-8583429D01*
X2200048Y-8592952D01*
X2181000Y-8602476D01*
X2133381Y-8602476D01*
X2114333Y-8592952D01*
X2104810Y-8583429D01*
X2342905Y-8402476D02*
X2361952Y-8402476D01*
X2381000Y-8412000D01*
X2390524Y-8421524D01*
X2400048Y-8440571D01*
X2409571Y-8478667D01*
X2409571Y-8526286D01*
X2400048Y-8564381D01*
X2390524Y-8583429D01*
X2381000Y-8592952D01*
X2361952Y-8602476D01*
X2342905Y-8602476D01*
X2323857Y-8592952D01*
X2314333Y-8583429D01*
X2304810Y-8564381D01*
X2295286Y-8526286D01*
X2295286Y-8478667D01*
X2304810Y-8440571D01*
X2314333Y-8421524D01*
X2323857Y-8412000D01*
X2342905Y-8402476D01*
X2533381Y-8402476D02*
X2552429Y-8402476D01*
X2571476Y-8412000D01*
X2581000Y-8421524D01*
X2590524Y-8440571D01*
X2600048Y-8478667D01*
X2600048Y-8526286D01*
X2590524Y-8564381D01*
X2581000Y-8583429D01*
X2571476Y-8592952D01*
X2552429Y-8602476D01*
X2533381Y-8602476D01*
X2514333Y-8592952D01*
X2504810Y-8583429D01*
X2495286Y-8564381D01*
X2485762Y-8526286D01*
X2485762Y-8478667D01*
X2495286Y-8440571D01*
X2504810Y-8421524D01*
X2514333Y-8412000D01*
X2533381Y-8402476D01*
X2685762Y-8602476D02*
X2685762Y-8469143D01*
X2685762Y-8488190D02*
X2695286Y-8478667D01*
X2714333Y-8469143D01*
X2742905Y-8469143D01*
X2761952Y-8478667D01*
X2771476Y-8497714D01*
X2771476Y-8602476D01*
X2771476Y-8497714D02*
X2781000Y-8478667D01*
X2800048Y-8469143D01*
X2828619Y-8469143D01*
X2847667Y-8478667D01*
X2857190Y-8497714D01*
X2857190Y-8602476D01*
X2952428Y-8602476D02*
X2952428Y-8469143D01*
X2952428Y-8488190D02*
X2961952Y-8478667D01*
X2981000Y-8469143D01*
X3009571Y-8469143D01*
X3028619Y-8478667D01*
X3038143Y-8497714D01*
X3038143Y-8602476D01*
X3038143Y-8497714D02*
X3047667Y-8478667D01*
X3066714Y-8469143D01*
X3095286Y-8469143D01*
X3114333Y-8478667D01*
X3123857Y-8497714D01*
X3123857Y-8602476D01*
X3514333Y-8392952D02*
X3342905Y-8650095D01*
X3771476Y-8402476D02*
X3790524Y-8402476D01*
X3809571Y-8412000D01*
X3819095Y-8421524D01*
X3828619Y-8440571D01*
X3838143Y-8478667D01*
X3838143Y-8526286D01*
X3828619Y-8564381D01*
X3819095Y-8583429D01*
X3809571Y-8592952D01*
X3790524Y-8602476D01*
X3771476Y-8602476D01*
X3752428Y-8592952D01*
X3742905Y-8583429D01*
X3733381Y-8564381D01*
X3723857Y-8526286D01*
X3723857Y-8478667D01*
X3733381Y-8440571D01*
X3742905Y-8421524D01*
X3752428Y-8412000D01*
X3771476Y-8402476D01*
X3923857Y-8583429D02*
X3933381Y-8592952D01*
X3923857Y-8602476D01*
X3914333Y-8592952D01*
X3923857Y-8583429D01*
X3923857Y-8602476D01*
X4057190Y-8402476D02*
X4076238Y-8402476D01*
X4095286Y-8412000D01*
X4104809Y-8421524D01*
X4114333Y-8440571D01*
X4123857Y-8478667D01*
X4123857Y-8526286D01*
X4114333Y-8564381D01*
X4104809Y-8583429D01*
X4095286Y-8592952D01*
X4076238Y-8602476D01*
X4057190Y-8602476D01*
X4038143Y-8592952D01*
X4028619Y-8583429D01*
X4019095Y-8564381D01*
X4009571Y-8526286D01*
X4009571Y-8478667D01*
X4019095Y-8440571D01*
X4028619Y-8421524D01*
X4038143Y-8412000D01*
X4057190Y-8402476D01*
X4314333Y-8602476D02*
X4200048Y-8602476D01*
X4257190Y-8602476D02*
X4257190Y-8402476D01*
X4238143Y-8431048D01*
X4219095Y-8450095D01*
X4200048Y-8459619D01*
X4409571Y-8602476D02*
X4447667Y-8602476D01*
X4466714Y-8592952D01*
X4476238Y-8583429D01*
X4495286Y-8554857D01*
X4504810Y-8516762D01*
X4504810Y-8440571D01*
X4495286Y-8421524D01*
X4485762Y-8412000D01*
X4466714Y-8402476D01*
X4428619Y-8402476D01*
X4409571Y-8412000D01*
X4400048Y-8421524D01*
X4390524Y-8440571D01*
X4390524Y-8488190D01*
X4400048Y-8507238D01*
X4409571Y-8516762D01*
X4428619Y-8526286D01*
X4466714Y-8526286D01*
X4485762Y-8516762D01*
X4495286Y-8507238D01*
X4504810Y-8488190D01*
X4571476Y-8402476D02*
X4704810Y-8402476D01*
X4619095Y-8602476D01*
X4771476Y-8402476D02*
X4771476Y-8440571D01*
X4847667Y-8402476D02*
X4847667Y-8440571D01*
X5142905Y-8678667D02*
X5133381Y-8669143D01*
X5114333Y-8640571D01*
X5104810Y-8621524D01*
X5095286Y-8592952D01*
X5085762Y-8545333D01*
X5085762Y-8507238D01*
X5095286Y-8459619D01*
X5104810Y-8431048D01*
X5114333Y-8412000D01*
X5133381Y-8383428D01*
X5142905Y-8373905D01*
X5257190Y-8402476D02*
X5276238Y-8402476D01*
X5295286Y-8412000D01*
X5304810Y-8421524D01*
X5314333Y-8440571D01*
X5323857Y-8478667D01*
X5323857Y-8526286D01*
X5314333Y-8564381D01*
X5304810Y-8583429D01*
X5295286Y-8592952D01*
X5276238Y-8602476D01*
X5257190Y-8602476D01*
X5238143Y-8592952D01*
X5228619Y-8583429D01*
X5219095Y-8564381D01*
X5209571Y-8526286D01*
X5209571Y-8478667D01*
X5219095Y-8440571D01*
X5228619Y-8421524D01*
X5238143Y-8412000D01*
X5257190Y-8402476D01*
X5561952Y-8602476D02*
X5561952Y-8402476D01*
X5647667Y-8602476D02*
X5647667Y-8497714D01*
X5638143Y-8478667D01*
X5619095Y-8469143D01*
X5590524Y-8469143D01*
X5571476Y-8478667D01*
X5561952Y-8488190D01*
X5771476Y-8602476D02*
X5752428Y-8592952D01*
X5742905Y-8583429D01*
X5733381Y-8564381D01*
X5733381Y-8507238D01*
X5742905Y-8488190D01*
X5752428Y-8478667D01*
X5771476Y-8469143D01*
X5800048Y-8469143D01*
X5819095Y-8478667D01*
X5828619Y-8488190D01*
X5838143Y-8507238D01*
X5838143Y-8564381D01*
X5828619Y-8583429D01*
X5819095Y-8592952D01*
X5800048Y-8602476D01*
X5771476Y-8602476D01*
X5952428Y-8602476D02*
X5933381Y-8592952D01*
X5923857Y-8573905D01*
X5923857Y-8402476D01*
X6104809Y-8592952D02*
X6085762Y-8602476D01*
X6047667Y-8602476D01*
X6028619Y-8592952D01*
X6019095Y-8573905D01*
X6019095Y-8497714D01*
X6028619Y-8478667D01*
X6047667Y-8469143D01*
X6085762Y-8469143D01*
X6104809Y-8478667D01*
X6114333Y-8497714D01*
X6114333Y-8516762D01*
X6019095Y-8535810D01*
X6190524Y-8592952D02*
X6209571Y-8602476D01*
X6247667Y-8602476D01*
X6266714Y-8592952D01*
X6276238Y-8573905D01*
X6276238Y-8564381D01*
X6266714Y-8545333D01*
X6247667Y-8535810D01*
X6219095Y-8535810D01*
X6200048Y-8526286D01*
X6190524Y-8507238D01*
X6190524Y-8497714D01*
X6200048Y-8478667D01*
X6219095Y-8469143D01*
X6247667Y-8469143D01*
X6266714Y-8478667D01*
X6514333Y-8526286D02*
X6666714Y-8526286D01*
X6590524Y-8602476D02*
X6590524Y-8450095D01*
X7000048Y-8469143D02*
X7000048Y-8602476D01*
X6952428Y-8392952D02*
X6904809Y-8535810D01*
X7028619Y-8535810D01*
X7247667Y-8592952D02*
X7266714Y-8602476D01*
X7304809Y-8602476D01*
X7323857Y-8592952D01*
X7333381Y-8573905D01*
X7333381Y-8564381D01*
X7323857Y-8545333D01*
X7304809Y-8535810D01*
X7276238Y-8535810D01*
X7257190Y-8526286D01*
X7247667Y-8507238D01*
X7247667Y-8497714D01*
X7257190Y-8478667D01*
X7276238Y-8469143D01*
X7304809Y-8469143D01*
X7323857Y-8478667D01*
X7447667Y-8602476D02*
X7428619Y-8592952D01*
X7419095Y-8573905D01*
X7419095Y-8402476D01*
X7552428Y-8602476D02*
X7533381Y-8592952D01*
X7523857Y-8583429D01*
X7514333Y-8564381D01*
X7514333Y-8507238D01*
X7523857Y-8488190D01*
X7533381Y-8478667D01*
X7552428Y-8469143D01*
X7581000Y-8469143D01*
X7600048Y-8478667D01*
X7609571Y-8488190D01*
X7619095Y-8507238D01*
X7619095Y-8564381D01*
X7609571Y-8583429D01*
X7600048Y-8592952D01*
X7581000Y-8602476D01*
X7552428Y-8602476D01*
X7676238Y-8469143D02*
X7752428Y-8469143D01*
X7704809Y-8402476D02*
X7704809Y-8573905D01*
X7714333Y-8592952D01*
X7733381Y-8602476D01*
X7752428Y-8602476D01*
X7809571Y-8592952D02*
X7828619Y-8602476D01*
X7866714Y-8602476D01*
X7885762Y-8592952D01*
X7895286Y-8573905D01*
X7895286Y-8564381D01*
X7885762Y-8545333D01*
X7866714Y-8535810D01*
X7838143Y-8535810D01*
X7819095Y-8526286D01*
X7809571Y-8507238D01*
X7809571Y-8497714D01*
X7819095Y-8478667D01*
X7838143Y-8469143D01*
X7866714Y-8469143D01*
X7885762Y-8478667D01*
X7961952Y-8678667D02*
X7971476Y-8669143D01*
X7990524Y-8640571D01*
X8000048Y-8621524D01*
X8009571Y-8592952D01*
X8019095Y-8545333D01*
X8019095Y-8507238D01*
X8009571Y-8459619D01*
X8000048Y-8431048D01*
X7990524Y-8412000D01*
X7971476Y-8383428D01*
X7961952Y-8373905D01*
D16*
X1526000Y-8821000D02*
X1571000Y-8776000D01*
X1526000Y-8731000D01*
X1481000Y-8776000D01*
X1526000Y-8821000D01*
D11*
X1866714Y-8666476D02*
X1885762Y-8666476D01*
X1904809Y-8676000D01*
X1914333Y-8685524D01*
X1923857Y-8704571D01*
X1933381Y-8742667D01*
X1933381Y-8790286D01*
X1923857Y-8828381D01*
X1914333Y-8847429D01*
X1904809Y-8856952D01*
X1885762Y-8866476D01*
X1866714Y-8866476D01*
X1847667Y-8856952D01*
X1838143Y-8847429D01*
X1828619Y-8828381D01*
X1819095Y-8790286D01*
X1819095Y-8742667D01*
X1828619Y-8704571D01*
X1838143Y-8685524D01*
X1847667Y-8676000D01*
X1866714Y-8666476D01*
X2019095Y-8847429D02*
X2028619Y-8856952D01*
X2019095Y-8866476D01*
X2009571Y-8856952D01*
X2019095Y-8847429D01*
X2019095Y-8866476D01*
X2123857Y-8866476D02*
X2161952Y-8866476D01*
X2181000Y-8856952D01*
X2190524Y-8847429D01*
X2209571Y-8818857D01*
X2219095Y-8780762D01*
X2219095Y-8704571D01*
X2209571Y-8685524D01*
X2200048Y-8676000D01*
X2181000Y-8666476D01*
X2142905Y-8666476D01*
X2123857Y-8676000D01*
X2114333Y-8685524D01*
X2104810Y-8704571D01*
X2104810Y-8752190D01*
X2114333Y-8771238D01*
X2123857Y-8780762D01*
X2142905Y-8790286D01*
X2181000Y-8790286D01*
X2200048Y-8780762D01*
X2209571Y-8771238D01*
X2219095Y-8752190D01*
X2342905Y-8666476D02*
X2361952Y-8666476D01*
X2381000Y-8676000D01*
X2390524Y-8685524D01*
X2400048Y-8704571D01*
X2409571Y-8742667D01*
X2409571Y-8790286D01*
X2400048Y-8828381D01*
X2390524Y-8847429D01*
X2381000Y-8856952D01*
X2361952Y-8866476D01*
X2342905Y-8866476D01*
X2323857Y-8856952D01*
X2314333Y-8847429D01*
X2304810Y-8828381D01*
X2295286Y-8790286D01*
X2295286Y-8742667D01*
X2304810Y-8704571D01*
X2314333Y-8685524D01*
X2323857Y-8676000D01*
X2342905Y-8666476D01*
X2533381Y-8666476D02*
X2552429Y-8666476D01*
X2571476Y-8676000D01*
X2581000Y-8685524D01*
X2590524Y-8704571D01*
X2600048Y-8742667D01*
X2600048Y-8790286D01*
X2590524Y-8828381D01*
X2581000Y-8847429D01*
X2571476Y-8856952D01*
X2552429Y-8866476D01*
X2533381Y-8866476D01*
X2514333Y-8856952D01*
X2504810Y-8847429D01*
X2495286Y-8828381D01*
X2485762Y-8790286D01*
X2485762Y-8742667D01*
X2495286Y-8704571D01*
X2504810Y-8685524D01*
X2514333Y-8676000D01*
X2533381Y-8666476D01*
X2685762Y-8866476D02*
X2685762Y-8733143D01*
X2685762Y-8752190D02*
X2695286Y-8742667D01*
X2714333Y-8733143D01*
X2742905Y-8733143D01*
X2761952Y-8742667D01*
X2771476Y-8761714D01*
X2771476Y-8866476D01*
X2771476Y-8761714D02*
X2781000Y-8742667D01*
X2800048Y-8733143D01*
X2828619Y-8733143D01*
X2847667Y-8742667D01*
X2857190Y-8761714D01*
X2857190Y-8866476D01*
X2952428Y-8866476D02*
X2952428Y-8733143D01*
X2952428Y-8752190D02*
X2961952Y-8742667D01*
X2981000Y-8733143D01*
X3009571Y-8733143D01*
X3028619Y-8742667D01*
X3038143Y-8761714D01*
X3038143Y-8866476D01*
X3038143Y-8761714D02*
X3047667Y-8742667D01*
X3066714Y-8733143D01*
X3095286Y-8733143D01*
X3114333Y-8742667D01*
X3123857Y-8761714D01*
X3123857Y-8866476D01*
X3514333Y-8656952D02*
X3342905Y-8914095D01*
X3771476Y-8666476D02*
X3790524Y-8666476D01*
X3809571Y-8676000D01*
X3819095Y-8685524D01*
X3828619Y-8704571D01*
X3838143Y-8742667D01*
X3838143Y-8790286D01*
X3828619Y-8828381D01*
X3819095Y-8847429D01*
X3809571Y-8856952D01*
X3790524Y-8866476D01*
X3771476Y-8866476D01*
X3752428Y-8856952D01*
X3742905Y-8847429D01*
X3733381Y-8828381D01*
X3723857Y-8790286D01*
X3723857Y-8742667D01*
X3733381Y-8704571D01*
X3742905Y-8685524D01*
X3752428Y-8676000D01*
X3771476Y-8666476D01*
X3923857Y-8847429D02*
X3933381Y-8856952D01*
X3923857Y-8866476D01*
X3914333Y-8856952D01*
X3923857Y-8847429D01*
X3923857Y-8866476D01*
X4057190Y-8666476D02*
X4076238Y-8666476D01*
X4095286Y-8676000D01*
X4104809Y-8685524D01*
X4114333Y-8704571D01*
X4123857Y-8742667D01*
X4123857Y-8790286D01*
X4114333Y-8828381D01*
X4104809Y-8847429D01*
X4095286Y-8856952D01*
X4076238Y-8866476D01*
X4057190Y-8866476D01*
X4038143Y-8856952D01*
X4028619Y-8847429D01*
X4019095Y-8828381D01*
X4009571Y-8790286D01*
X4009571Y-8742667D01*
X4019095Y-8704571D01*
X4028619Y-8685524D01*
X4038143Y-8676000D01*
X4057190Y-8666476D01*
X4190524Y-8666476D02*
X4314333Y-8666476D01*
X4247667Y-8742667D01*
X4276238Y-8742667D01*
X4295286Y-8752190D01*
X4304810Y-8761714D01*
X4314333Y-8780762D01*
X4314333Y-8828381D01*
X4304810Y-8847429D01*
X4295286Y-8856952D01*
X4276238Y-8866476D01*
X4219095Y-8866476D01*
X4200048Y-8856952D01*
X4190524Y-8847429D01*
X4495286Y-8666476D02*
X4400048Y-8666476D01*
X4390524Y-8761714D01*
X4400048Y-8752190D01*
X4419095Y-8742667D01*
X4466714Y-8742667D01*
X4485762Y-8752190D01*
X4495286Y-8761714D01*
X4504810Y-8780762D01*
X4504810Y-8828381D01*
X4495286Y-8847429D01*
X4485762Y-8856952D01*
X4466714Y-8866476D01*
X4419095Y-8866476D01*
X4400048Y-8856952D01*
X4390524Y-8847429D01*
X4676238Y-8733143D02*
X4676238Y-8866476D01*
X4628619Y-8656952D02*
X4581000Y-8799810D01*
X4704810Y-8799810D01*
X4771476Y-8666476D02*
X4771476Y-8704571D01*
X4847667Y-8666476D02*
X4847667Y-8704571D01*
X5142905Y-8942667D02*
X5133381Y-8933143D01*
X5114333Y-8904571D01*
X5104810Y-8885524D01*
X5095286Y-8856952D01*
X5085762Y-8809333D01*
X5085762Y-8771238D01*
X5095286Y-8723619D01*
X5104810Y-8695048D01*
X5114333Y-8676000D01*
X5133381Y-8647429D01*
X5142905Y-8637905D01*
X5200048Y-8666476D02*
X5323857Y-8666476D01*
X5257190Y-8742667D01*
X5285762Y-8742667D01*
X5304810Y-8752190D01*
X5314333Y-8761714D01*
X5323857Y-8780762D01*
X5323857Y-8828381D01*
X5314333Y-8847429D01*
X5304810Y-8856952D01*
X5285762Y-8866476D01*
X5228619Y-8866476D01*
X5209571Y-8856952D01*
X5200048Y-8847429D01*
X5561952Y-8866476D02*
X5561952Y-8666476D01*
X5647667Y-8866476D02*
X5647667Y-8761714D01*
X5638143Y-8742667D01*
X5619095Y-8733143D01*
X5590524Y-8733143D01*
X5571476Y-8742667D01*
X5561952Y-8752190D01*
X5771476Y-8866476D02*
X5752428Y-8856952D01*
X5742905Y-8847429D01*
X5733381Y-8828381D01*
X5733381Y-8771238D01*
X5742905Y-8752190D01*
X5752428Y-8742667D01*
X5771476Y-8733143D01*
X5800048Y-8733143D01*
X5819095Y-8742667D01*
X5828619Y-8752190D01*
X5838143Y-8771238D01*
X5838143Y-8828381D01*
X5828619Y-8847429D01*
X5819095Y-8856952D01*
X5800048Y-8866476D01*
X5771476Y-8866476D01*
X5952428Y-8866476D02*
X5933381Y-8856952D01*
X5923857Y-8837905D01*
X5923857Y-8666476D01*
X6104809Y-8856952D02*
X6085762Y-8866476D01*
X6047667Y-8866476D01*
X6028619Y-8856952D01*
X6019095Y-8837905D01*
X6019095Y-8761714D01*
X6028619Y-8742667D01*
X6047667Y-8733143D01*
X6085762Y-8733143D01*
X6104809Y-8742667D01*
X6114333Y-8761714D01*
X6114333Y-8780762D01*
X6019095Y-8799810D01*
X6190524Y-8856952D02*
X6209571Y-8866476D01*
X6247667Y-8866476D01*
X6266714Y-8856952D01*
X6276238Y-8837905D01*
X6276238Y-8828381D01*
X6266714Y-8809333D01*
X6247667Y-8799810D01*
X6219095Y-8799810D01*
X6200048Y-8790286D01*
X6190524Y-8771238D01*
X6190524Y-8761714D01*
X6200048Y-8742667D01*
X6219095Y-8733143D01*
X6247667Y-8733143D01*
X6266714Y-8742667D01*
X6342905Y-8942667D02*
X6352428Y-8933143D01*
X6371476Y-8904571D01*
X6381000Y-8885524D01*
X6390524Y-8856952D01*
X6400048Y-8809333D01*
X6400048Y-8771238D01*
X6390524Y-8723619D01*
X6381000Y-8695048D01*
X6371476Y-8676000D01*
X6352428Y-8647429D01*
X6342905Y-8637905D01*
D10*
X1471000Y-8990000D02*
X1571000Y-9090000D01*
X1571000Y-8990000D02*
X1471000Y-9090000D01*
X1571000Y-9040000D02*
G75*
G03*
X1571000Y-9040000I-50000J0D01*
G01*
D11*
X1933381Y-9130476D02*
X1819095Y-9130476D01*
X1876238Y-9130476D02*
X1876238Y-8930476D01*
X1857190Y-8959048D01*
X1838143Y-8978095D01*
X1819095Y-8987619D01*
X2019095Y-9111429D02*
X2028619Y-9120952D01*
X2019095Y-9130476D01*
X2009571Y-9120952D01*
X2019095Y-9111429D01*
X2019095Y-9130476D01*
X2152429Y-8930476D02*
X2171476Y-8930476D01*
X2190524Y-8940000D01*
X2200048Y-8949524D01*
X2209571Y-8968571D01*
X2219095Y-9006667D01*
X2219095Y-9054286D01*
X2209571Y-9092381D01*
X2200048Y-9111429D01*
X2190524Y-9120952D01*
X2171476Y-9130476D01*
X2152429Y-9130476D01*
X2133381Y-9120952D01*
X2123857Y-9111429D01*
X2114333Y-9092381D01*
X2104810Y-9054286D01*
X2104810Y-9006667D01*
X2114333Y-8968571D01*
X2123857Y-8949524D01*
X2133381Y-8940000D01*
X2152429Y-8930476D01*
X2342905Y-8930476D02*
X2361952Y-8930476D01*
X2381000Y-8940000D01*
X2390524Y-8949524D01*
X2400048Y-8968571D01*
X2409571Y-9006667D01*
X2409571Y-9054286D01*
X2400048Y-9092381D01*
X2390524Y-9111429D01*
X2381000Y-9120952D01*
X2361952Y-9130476D01*
X2342905Y-9130476D01*
X2323857Y-9120952D01*
X2314333Y-9111429D01*
X2304810Y-9092381D01*
X2295286Y-9054286D01*
X2295286Y-9006667D01*
X2304810Y-8968571D01*
X2314333Y-8949524D01*
X2323857Y-8940000D01*
X2342905Y-8930476D01*
X2533381Y-8930476D02*
X2552429Y-8930476D01*
X2571476Y-8940000D01*
X2581000Y-8949524D01*
X2590524Y-8968571D01*
X2600048Y-9006667D01*
X2600048Y-9054286D01*
X2590524Y-9092381D01*
X2581000Y-9111429D01*
X2571476Y-9120952D01*
X2552429Y-9130476D01*
X2533381Y-9130476D01*
X2514333Y-9120952D01*
X2504810Y-9111429D01*
X2495286Y-9092381D01*
X2485762Y-9054286D01*
X2485762Y-9006667D01*
X2495286Y-8968571D01*
X2504810Y-8949524D01*
X2514333Y-8940000D01*
X2533381Y-8930476D01*
X2685762Y-9130476D02*
X2685762Y-8997143D01*
X2685762Y-9016190D02*
X2695286Y-9006667D01*
X2714333Y-8997143D01*
X2742905Y-8997143D01*
X2761952Y-9006667D01*
X2771476Y-9025714D01*
X2771476Y-9130476D01*
X2771476Y-9025714D02*
X2781000Y-9006667D01*
X2800048Y-8997143D01*
X2828619Y-8997143D01*
X2847667Y-9006667D01*
X2857190Y-9025714D01*
X2857190Y-9130476D01*
X2952428Y-9130476D02*
X2952428Y-8997143D01*
X2952428Y-9016190D02*
X2961952Y-9006667D01*
X2981000Y-8997143D01*
X3009571Y-8997143D01*
X3028619Y-9006667D01*
X3038143Y-9025714D01*
X3038143Y-9130476D01*
X3038143Y-9025714D02*
X3047667Y-9006667D01*
X3066714Y-8997143D01*
X3095286Y-8997143D01*
X3114333Y-9006667D01*
X3123857Y-9025714D01*
X3123857Y-9130476D01*
X3514333Y-8920952D02*
X3342905Y-9178095D01*
X3771476Y-8930476D02*
X3790524Y-8930476D01*
X3809571Y-8940000D01*
X3819095Y-8949524D01*
X3828619Y-8968571D01*
X3838143Y-9006667D01*
X3838143Y-9054286D01*
X3828619Y-9092381D01*
X3819095Y-9111429D01*
X3809571Y-9120952D01*
X3790524Y-9130476D01*
X3771476Y-9130476D01*
X3752428Y-9120952D01*
X3742905Y-9111429D01*
X3733381Y-9092381D01*
X3723857Y-9054286D01*
X3723857Y-9006667D01*
X3733381Y-8968571D01*
X3742905Y-8949524D01*
X3752428Y-8940000D01*
X3771476Y-8930476D01*
X3923857Y-9111429D02*
X3933381Y-9120952D01*
X3923857Y-9130476D01*
X3914333Y-9120952D01*
X3923857Y-9111429D01*
X3923857Y-9130476D01*
X4057190Y-8930476D02*
X4076238Y-8930476D01*
X4095286Y-8940000D01*
X4104809Y-8949524D01*
X4114333Y-8968571D01*
X4123857Y-9006667D01*
X4123857Y-9054286D01*
X4114333Y-9092381D01*
X4104809Y-9111429D01*
X4095286Y-9120952D01*
X4076238Y-9130476D01*
X4057190Y-9130476D01*
X4038143Y-9120952D01*
X4028619Y-9111429D01*
X4019095Y-9092381D01*
X4009571Y-9054286D01*
X4009571Y-9006667D01*
X4019095Y-8968571D01*
X4028619Y-8949524D01*
X4038143Y-8940000D01*
X4057190Y-8930476D01*
X4190524Y-8930476D02*
X4314333Y-8930476D01*
X4247667Y-9006667D01*
X4276238Y-9006667D01*
X4295286Y-9016190D01*
X4304810Y-9025714D01*
X4314333Y-9044762D01*
X4314333Y-9092381D01*
X4304810Y-9111429D01*
X4295286Y-9120952D01*
X4276238Y-9130476D01*
X4219095Y-9130476D01*
X4200048Y-9120952D01*
X4190524Y-9111429D01*
X4409571Y-9130476D02*
X4447667Y-9130476D01*
X4466714Y-9120952D01*
X4476238Y-9111429D01*
X4495286Y-9082857D01*
X4504810Y-9044762D01*
X4504810Y-8968571D01*
X4495286Y-8949524D01*
X4485762Y-8940000D01*
X4466714Y-8930476D01*
X4428619Y-8930476D01*
X4409571Y-8940000D01*
X4400048Y-8949524D01*
X4390524Y-8968571D01*
X4390524Y-9016190D01*
X4400048Y-9035238D01*
X4409571Y-9044762D01*
X4428619Y-9054286D01*
X4466714Y-9054286D01*
X4485762Y-9044762D01*
X4495286Y-9035238D01*
X4504810Y-9016190D01*
X4676238Y-8997143D02*
X4676238Y-9130476D01*
X4628619Y-8920952D02*
X4581000Y-9063810D01*
X4704810Y-9063810D01*
X4771476Y-8930476D02*
X4771476Y-8968571D01*
X4847667Y-8930476D02*
X4847667Y-8968571D01*
X5142905Y-9206667D02*
X5133381Y-9197143D01*
X5114333Y-9168571D01*
X5104810Y-9149524D01*
X5095286Y-9120952D01*
X5085762Y-9073333D01*
X5085762Y-9035238D01*
X5095286Y-8987619D01*
X5104810Y-8959048D01*
X5114333Y-8940000D01*
X5133381Y-8911429D01*
X5142905Y-8901905D01*
X5304810Y-8930476D02*
X5266714Y-8930476D01*
X5247667Y-8940000D01*
X5238143Y-8949524D01*
X5219095Y-8978095D01*
X5209571Y-9016190D01*
X5209571Y-9092381D01*
X5219095Y-9111429D01*
X5228619Y-9120952D01*
X5247667Y-9130476D01*
X5285762Y-9130476D01*
X5304810Y-9120952D01*
X5314333Y-9111429D01*
X5323857Y-9092381D01*
X5323857Y-9044762D01*
X5314333Y-9025714D01*
X5304810Y-9016190D01*
X5285762Y-9006667D01*
X5247667Y-9006667D01*
X5228619Y-9016190D01*
X5219095Y-9025714D01*
X5209571Y-9044762D01*
X5561952Y-9130476D02*
X5561952Y-8930476D01*
X5647667Y-9130476D02*
X5647667Y-9025714D01*
X5638143Y-9006667D01*
X5619095Y-8997143D01*
X5590524Y-8997143D01*
X5571476Y-9006667D01*
X5561952Y-9016190D01*
X5771476Y-9130476D02*
X5752428Y-9120952D01*
X5742905Y-9111429D01*
X5733381Y-9092381D01*
X5733381Y-9035238D01*
X5742905Y-9016190D01*
X5752428Y-9006667D01*
X5771476Y-8997143D01*
X5800048Y-8997143D01*
X5819095Y-9006667D01*
X5828619Y-9016190D01*
X5838143Y-9035238D01*
X5838143Y-9092381D01*
X5828619Y-9111429D01*
X5819095Y-9120952D01*
X5800048Y-9130476D01*
X5771476Y-9130476D01*
X5952428Y-9130476D02*
X5933381Y-9120952D01*
X5923857Y-9101905D01*
X5923857Y-8930476D01*
X6104809Y-9120952D02*
X6085762Y-9130476D01*
X6047667Y-9130476D01*
X6028619Y-9120952D01*
X6019095Y-9101905D01*
X6019095Y-9025714D01*
X6028619Y-9006667D01*
X6047667Y-8997143D01*
X6085762Y-8997143D01*
X6104809Y-9006667D01*
X6114333Y-9025714D01*
X6114333Y-9044762D01*
X6019095Y-9063810D01*
X6190524Y-9120952D02*
X6209571Y-9130476D01*
X6247667Y-9130476D01*
X6266714Y-9120952D01*
X6276238Y-9101905D01*
X6276238Y-9092381D01*
X6266714Y-9073333D01*
X6247667Y-9063810D01*
X6219095Y-9063810D01*
X6200048Y-9054286D01*
X6190524Y-9035238D01*
X6190524Y-9025714D01*
X6200048Y-9006667D01*
X6219095Y-8997143D01*
X6247667Y-8997143D01*
X6266714Y-9006667D01*
X6342905Y-9206667D02*
X6352428Y-9197143D01*
X6371476Y-9168571D01*
X6381000Y-9149524D01*
X6390524Y-9120952D01*
X6400048Y-9073333D01*
X6400048Y-9035238D01*
X6390524Y-8987619D01*
X6381000Y-8959048D01*
X6371476Y-8940000D01*
X6352428Y-8911429D01*
X6342905Y-8901905D01*
D17*
X1461000Y-9249000D02*
X1571000Y-9359000D01*
X1571000Y-9249000D02*
X1461000Y-9359000D01*
X1516000Y-9249000D02*
X1516000Y-9359000D01*
X1461000Y-9304000D02*
X1571000Y-9304000D01*
D11*
X1933381Y-9394476D02*
X1819095Y-9394476D01*
X1876238Y-9394476D02*
X1876238Y-9194476D01*
X1857190Y-9223048D01*
X1838143Y-9242095D01*
X1819095Y-9251619D01*
X2019095Y-9375429D02*
X2028619Y-9384952D01*
X2019095Y-9394476D01*
X2009571Y-9384952D01*
X2019095Y-9375429D01*
X2019095Y-9394476D01*
X2219095Y-9394476D02*
X2104810Y-9394476D01*
X2161952Y-9394476D02*
X2161952Y-9194476D01*
X2142905Y-9223048D01*
X2123857Y-9242095D01*
X2104810Y-9251619D01*
X2342905Y-9194476D02*
X2361952Y-9194476D01*
X2381000Y-9204000D01*
X2390524Y-9213524D01*
X2400048Y-9232571D01*
X2409571Y-9270667D01*
X2409571Y-9318286D01*
X2400048Y-9356381D01*
X2390524Y-9375429D01*
X2381000Y-9384952D01*
X2361952Y-9394476D01*
X2342905Y-9394476D01*
X2323857Y-9384952D01*
X2314333Y-9375429D01*
X2304810Y-9356381D01*
X2295286Y-9318286D01*
X2295286Y-9270667D01*
X2304810Y-9232571D01*
X2314333Y-9213524D01*
X2323857Y-9204000D01*
X2342905Y-9194476D01*
X2533381Y-9194476D02*
X2552429Y-9194476D01*
X2571476Y-9204000D01*
X2581000Y-9213524D01*
X2590524Y-9232571D01*
X2600048Y-9270667D01*
X2600048Y-9318286D01*
X2590524Y-9356381D01*
X2581000Y-9375429D01*
X2571476Y-9384952D01*
X2552429Y-9394476D01*
X2533381Y-9394476D01*
X2514333Y-9384952D01*
X2504810Y-9375429D01*
X2495286Y-9356381D01*
X2485762Y-9318286D01*
X2485762Y-9270667D01*
X2495286Y-9232571D01*
X2504810Y-9213524D01*
X2514333Y-9204000D01*
X2533381Y-9194476D01*
X2685762Y-9394476D02*
X2685762Y-9261143D01*
X2685762Y-9280190D02*
X2695286Y-9270667D01*
X2714333Y-9261143D01*
X2742905Y-9261143D01*
X2761952Y-9270667D01*
X2771476Y-9289714D01*
X2771476Y-9394476D01*
X2771476Y-9289714D02*
X2781000Y-9270667D01*
X2800048Y-9261143D01*
X2828619Y-9261143D01*
X2847667Y-9270667D01*
X2857190Y-9289714D01*
X2857190Y-9394476D01*
X2952428Y-9394476D02*
X2952428Y-9261143D01*
X2952428Y-9280190D02*
X2961952Y-9270667D01*
X2981000Y-9261143D01*
X3009571Y-9261143D01*
X3028619Y-9270667D01*
X3038143Y-9289714D01*
X3038143Y-9394476D01*
X3038143Y-9289714D02*
X3047667Y-9270667D01*
X3066714Y-9261143D01*
X3095286Y-9261143D01*
X3114333Y-9270667D01*
X3123857Y-9289714D01*
X3123857Y-9394476D01*
X3514333Y-9184952D02*
X3342905Y-9442095D01*
X3771476Y-9194476D02*
X3790524Y-9194476D01*
X3809571Y-9204000D01*
X3819095Y-9213524D01*
X3828619Y-9232571D01*
X3838143Y-9270667D01*
X3838143Y-9318286D01*
X3828619Y-9356381D01*
X3819095Y-9375429D01*
X3809571Y-9384952D01*
X3790524Y-9394476D01*
X3771476Y-9394476D01*
X3752428Y-9384952D01*
X3742905Y-9375429D01*
X3733381Y-9356381D01*
X3723857Y-9318286D01*
X3723857Y-9270667D01*
X3733381Y-9232571D01*
X3742905Y-9213524D01*
X3752428Y-9204000D01*
X3771476Y-9194476D01*
X3923857Y-9375429D02*
X3933381Y-9384952D01*
X3923857Y-9394476D01*
X3914333Y-9384952D01*
X3923857Y-9375429D01*
X3923857Y-9394476D01*
X4057190Y-9194476D02*
X4076238Y-9194476D01*
X4095286Y-9204000D01*
X4104809Y-9213524D01*
X4114333Y-9232571D01*
X4123857Y-9270667D01*
X4123857Y-9318286D01*
X4114333Y-9356381D01*
X4104809Y-9375429D01*
X4095286Y-9384952D01*
X4076238Y-9394476D01*
X4057190Y-9394476D01*
X4038143Y-9384952D01*
X4028619Y-9375429D01*
X4019095Y-9356381D01*
X4009571Y-9318286D01*
X4009571Y-9270667D01*
X4019095Y-9232571D01*
X4028619Y-9213524D01*
X4038143Y-9204000D01*
X4057190Y-9194476D01*
X4295286Y-9261143D02*
X4295286Y-9394476D01*
X4247667Y-9184952D02*
X4200048Y-9327810D01*
X4323857Y-9327810D01*
X4381000Y-9194476D02*
X4504810Y-9194476D01*
X4438143Y-9270667D01*
X4466714Y-9270667D01*
X4485762Y-9280190D01*
X4495286Y-9289714D01*
X4504810Y-9308762D01*
X4504810Y-9356381D01*
X4495286Y-9375429D01*
X4485762Y-9384952D01*
X4466714Y-9394476D01*
X4409571Y-9394476D01*
X4390524Y-9384952D01*
X4381000Y-9375429D01*
X4571476Y-9194476D02*
X4695286Y-9194476D01*
X4628619Y-9270667D01*
X4657190Y-9270667D01*
X4676238Y-9280190D01*
X4685762Y-9289714D01*
X4695286Y-9308762D01*
X4695286Y-9356381D01*
X4685762Y-9375429D01*
X4676238Y-9384952D01*
X4657190Y-9394476D01*
X4600048Y-9394476D01*
X4581000Y-9384952D01*
X4571476Y-9375429D01*
X4771476Y-9194476D02*
X4771476Y-9232571D01*
X4847667Y-9194476D02*
X4847667Y-9232571D01*
X5142905Y-9470667D02*
X5133381Y-9461143D01*
X5114333Y-9432571D01*
X5104810Y-9413524D01*
X5095286Y-9384952D01*
X5085762Y-9337333D01*
X5085762Y-9299238D01*
X5095286Y-9251619D01*
X5104810Y-9223048D01*
X5114333Y-9204000D01*
X5133381Y-9175429D01*
X5142905Y-9165905D01*
X5323857Y-9394476D02*
X5209571Y-9394476D01*
X5266714Y-9394476D02*
X5266714Y-9194476D01*
X5247667Y-9223048D01*
X5228619Y-9242095D01*
X5209571Y-9251619D01*
X5400048Y-9213524D02*
X5409571Y-9204000D01*
X5428619Y-9194476D01*
X5476238Y-9194476D01*
X5495286Y-9204000D01*
X5504810Y-9213524D01*
X5514333Y-9232571D01*
X5514333Y-9251619D01*
X5504810Y-9280190D01*
X5390524Y-9394476D01*
X5514333Y-9394476D01*
X5752428Y-9394476D02*
X5752428Y-9194476D01*
X5838143Y-9394476D02*
X5838143Y-9289714D01*
X5828619Y-9270667D01*
X5809571Y-9261143D01*
X5781000Y-9261143D01*
X5761952Y-9270667D01*
X5752428Y-9280190D01*
X5961952Y-9394476D02*
X5942905Y-9384952D01*
X5933381Y-9375429D01*
X5923857Y-9356381D01*
X5923857Y-9299238D01*
X5933381Y-9280190D01*
X5942905Y-9270667D01*
X5961952Y-9261143D01*
X5990524Y-9261143D01*
X6009571Y-9270667D01*
X6019095Y-9280190D01*
X6028619Y-9299238D01*
X6028619Y-9356381D01*
X6019095Y-9375429D01*
X6009571Y-9384952D01*
X5990524Y-9394476D01*
X5961952Y-9394476D01*
X6142905Y-9394476D02*
X6123857Y-9384952D01*
X6114333Y-9365905D01*
X6114333Y-9194476D01*
X6295286Y-9384952D02*
X6276238Y-9394476D01*
X6238143Y-9394476D01*
X6219095Y-9384952D01*
X6209571Y-9365905D01*
X6209571Y-9289714D01*
X6219095Y-9270667D01*
X6238143Y-9261143D01*
X6276238Y-9261143D01*
X6295286Y-9270667D01*
X6304809Y-9289714D01*
X6304809Y-9308762D01*
X6209571Y-9327810D01*
X6381000Y-9384952D02*
X6400048Y-9394476D01*
X6438143Y-9394476D01*
X6457190Y-9384952D01*
X6466714Y-9365905D01*
X6466714Y-9356381D01*
X6457190Y-9337333D01*
X6438143Y-9327810D01*
X6409571Y-9327810D01*
X6390524Y-9318286D01*
X6381000Y-9299238D01*
X6381000Y-9289714D01*
X6390524Y-9270667D01*
X6409571Y-9261143D01*
X6438143Y-9261143D01*
X6457190Y-9270667D01*
X6533381Y-9470667D02*
X6542905Y-9461143D01*
X6561952Y-9432571D01*
X6571476Y-9413524D01*
X6581000Y-9384952D01*
X6590524Y-9337333D01*
X6590524Y-9299238D01*
X6581000Y-9251619D01*
X6571476Y-9223048D01*
X6561952Y-9204000D01*
X6542905Y-9175429D01*
X6533381Y-9165905D01*
D18*
X1438000Y-9501500D02*
X1571000Y-9634500D01*
X1571000Y-9501500D02*
X1438000Y-9634500D01*
X1551523Y-9615023D02*
X1551523Y-9520977D01*
X1457477Y-9520977D01*
X1457477Y-9615023D01*
X1551523Y-9615023D01*
D11*
X1933381Y-9658476D02*
X1819095Y-9658476D01*
X1876238Y-9658476D02*
X1876238Y-9458476D01*
X1857190Y-9487048D01*
X1838143Y-9506095D01*
X1819095Y-9515619D01*
X2019095Y-9639429D02*
X2028619Y-9648952D01*
X2019095Y-9658476D01*
X2009571Y-9648952D01*
X2019095Y-9639429D01*
X2019095Y-9658476D01*
X2095286Y-9458476D02*
X2219095Y-9458476D01*
X2152429Y-9534667D01*
X2181000Y-9534667D01*
X2200048Y-9544190D01*
X2209571Y-9553714D01*
X2219095Y-9572762D01*
X2219095Y-9620381D01*
X2209571Y-9639429D01*
X2200048Y-9648952D01*
X2181000Y-9658476D01*
X2123857Y-9658476D01*
X2104810Y-9648952D01*
X2095286Y-9639429D01*
X2285762Y-9458476D02*
X2409571Y-9458476D01*
X2342905Y-9534667D01*
X2371476Y-9534667D01*
X2390524Y-9544190D01*
X2400048Y-9553714D01*
X2409571Y-9572762D01*
X2409571Y-9620381D01*
X2400048Y-9639429D01*
X2390524Y-9648952D01*
X2371476Y-9658476D01*
X2314333Y-9658476D01*
X2295286Y-9648952D01*
X2285762Y-9639429D01*
X2533381Y-9458476D02*
X2552429Y-9458476D01*
X2571476Y-9468000D01*
X2581000Y-9477524D01*
X2590524Y-9496571D01*
X2600048Y-9534667D01*
X2600048Y-9582286D01*
X2590524Y-9620381D01*
X2581000Y-9639429D01*
X2571476Y-9648952D01*
X2552429Y-9658476D01*
X2533381Y-9658476D01*
X2514333Y-9648952D01*
X2504810Y-9639429D01*
X2495286Y-9620381D01*
X2485762Y-9582286D01*
X2485762Y-9534667D01*
X2495286Y-9496571D01*
X2504810Y-9477524D01*
X2514333Y-9468000D01*
X2533381Y-9458476D01*
X2685762Y-9658476D02*
X2685762Y-9525143D01*
X2685762Y-9544190D02*
X2695286Y-9534667D01*
X2714333Y-9525143D01*
X2742905Y-9525143D01*
X2761952Y-9534667D01*
X2771476Y-9553714D01*
X2771476Y-9658476D01*
X2771476Y-9553714D02*
X2781000Y-9534667D01*
X2800048Y-9525143D01*
X2828619Y-9525143D01*
X2847667Y-9534667D01*
X2857190Y-9553714D01*
X2857190Y-9658476D01*
X2952428Y-9658476D02*
X2952428Y-9525143D01*
X2952428Y-9544190D02*
X2961952Y-9534667D01*
X2981000Y-9525143D01*
X3009571Y-9525143D01*
X3028619Y-9534667D01*
X3038143Y-9553714D01*
X3038143Y-9658476D01*
X3038143Y-9553714D02*
X3047667Y-9534667D01*
X3066714Y-9525143D01*
X3095286Y-9525143D01*
X3114333Y-9534667D01*
X3123857Y-9553714D01*
X3123857Y-9658476D01*
X3514333Y-9448952D02*
X3342905Y-9706095D01*
X3771476Y-9458476D02*
X3790524Y-9458476D01*
X3809571Y-9468000D01*
X3819095Y-9477524D01*
X3828619Y-9496571D01*
X3838143Y-9534667D01*
X3838143Y-9582286D01*
X3828619Y-9620381D01*
X3819095Y-9639429D01*
X3809571Y-9648952D01*
X3790524Y-9658476D01*
X3771476Y-9658476D01*
X3752428Y-9648952D01*
X3742905Y-9639429D01*
X3733381Y-9620381D01*
X3723857Y-9582286D01*
X3723857Y-9534667D01*
X3733381Y-9496571D01*
X3742905Y-9477524D01*
X3752428Y-9468000D01*
X3771476Y-9458476D01*
X3923857Y-9639429D02*
X3933381Y-9648952D01*
X3923857Y-9658476D01*
X3914333Y-9648952D01*
X3923857Y-9639429D01*
X3923857Y-9658476D01*
X4057190Y-9458476D02*
X4076238Y-9458476D01*
X4095286Y-9468000D01*
X4104809Y-9477524D01*
X4114333Y-9496571D01*
X4123857Y-9534667D01*
X4123857Y-9582286D01*
X4114333Y-9620381D01*
X4104809Y-9639429D01*
X4095286Y-9648952D01*
X4076238Y-9658476D01*
X4057190Y-9658476D01*
X4038143Y-9648952D01*
X4028619Y-9639429D01*
X4019095Y-9620381D01*
X4009571Y-9582286D01*
X4009571Y-9534667D01*
X4019095Y-9496571D01*
X4028619Y-9477524D01*
X4038143Y-9468000D01*
X4057190Y-9458476D01*
X4304810Y-9458476D02*
X4209571Y-9458476D01*
X4200048Y-9553714D01*
X4209571Y-9544190D01*
X4228619Y-9534667D01*
X4276238Y-9534667D01*
X4295286Y-9544190D01*
X4304810Y-9553714D01*
X4314333Y-9572762D01*
X4314333Y-9620381D01*
X4304810Y-9639429D01*
X4295286Y-9648952D01*
X4276238Y-9658476D01*
X4228619Y-9658476D01*
X4209571Y-9648952D01*
X4200048Y-9639429D01*
X4390524Y-9477524D02*
X4400048Y-9468000D01*
X4419095Y-9458476D01*
X4466714Y-9458476D01*
X4485762Y-9468000D01*
X4495286Y-9477524D01*
X4504810Y-9496571D01*
X4504810Y-9515619D01*
X4495286Y-9544190D01*
X4381000Y-9658476D01*
X4504810Y-9658476D01*
X4676238Y-9525143D02*
X4676238Y-9658476D01*
X4628619Y-9448952D02*
X4581000Y-9591810D01*
X4704810Y-9591810D01*
X4771476Y-9458476D02*
X4771476Y-9496571D01*
X4847667Y-9458476D02*
X4847667Y-9496571D01*
X5142905Y-9734667D02*
X5133381Y-9725143D01*
X5114333Y-9696571D01*
X5104810Y-9677524D01*
X5095286Y-9648952D01*
X5085762Y-9601333D01*
X5085762Y-9563238D01*
X5095286Y-9515619D01*
X5104810Y-9487048D01*
X5114333Y-9468000D01*
X5133381Y-9439429D01*
X5142905Y-9429905D01*
X5209571Y-9477524D02*
X5219095Y-9468000D01*
X5238143Y-9458476D01*
X5285762Y-9458476D01*
X5304810Y-9468000D01*
X5314333Y-9477524D01*
X5323857Y-9496571D01*
X5323857Y-9515619D01*
X5314333Y-9544190D01*
X5200048Y-9658476D01*
X5323857Y-9658476D01*
X5447667Y-9458476D02*
X5466714Y-9458476D01*
X5485762Y-9468000D01*
X5495286Y-9477524D01*
X5504810Y-9496571D01*
X5514333Y-9534667D01*
X5514333Y-9582286D01*
X5504810Y-9620381D01*
X5495286Y-9639429D01*
X5485762Y-9648952D01*
X5466714Y-9658476D01*
X5447667Y-9658476D01*
X5428619Y-9648952D01*
X5419095Y-9639429D01*
X5409571Y-9620381D01*
X5400048Y-9582286D01*
X5400048Y-9534667D01*
X5409571Y-9496571D01*
X5419095Y-9477524D01*
X5428619Y-9468000D01*
X5447667Y-9458476D01*
X5752428Y-9658476D02*
X5752428Y-9458476D01*
X5838143Y-9658476D02*
X5838143Y-9553714D01*
X5828619Y-9534667D01*
X5809571Y-9525143D01*
X5781000Y-9525143D01*
X5761952Y-9534667D01*
X5752428Y-9544190D01*
X5961952Y-9658476D02*
X5942905Y-9648952D01*
X5933381Y-9639429D01*
X5923857Y-9620381D01*
X5923857Y-9563238D01*
X5933381Y-9544190D01*
X5942905Y-9534667D01*
X5961952Y-9525143D01*
X5990524Y-9525143D01*
X6009571Y-9534667D01*
X6019095Y-9544190D01*
X6028619Y-9563238D01*
X6028619Y-9620381D01*
X6019095Y-9639429D01*
X6009571Y-9648952D01*
X5990524Y-9658476D01*
X5961952Y-9658476D01*
X6142905Y-9658476D02*
X6123857Y-9648952D01*
X6114333Y-9629905D01*
X6114333Y-9458476D01*
X6295286Y-9648952D02*
X6276238Y-9658476D01*
X6238143Y-9658476D01*
X6219095Y-9648952D01*
X6209571Y-9629905D01*
X6209571Y-9553714D01*
X6219095Y-9534667D01*
X6238143Y-9525143D01*
X6276238Y-9525143D01*
X6295286Y-9534667D01*
X6304809Y-9553714D01*
X6304809Y-9572762D01*
X6209571Y-9591810D01*
X6381000Y-9648952D02*
X6400048Y-9658476D01*
X6438143Y-9658476D01*
X6457190Y-9648952D01*
X6466714Y-9629905D01*
X6466714Y-9620381D01*
X6457190Y-9601333D01*
X6438143Y-9591810D01*
X6409571Y-9591810D01*
X6390524Y-9582286D01*
X6381000Y-9563238D01*
X6381000Y-9553714D01*
X6390524Y-9534667D01*
X6409571Y-9525143D01*
X6438143Y-9525143D01*
X6457190Y-9534667D01*
X6533381Y-9734667D02*
X6542905Y-9725143D01*
X6561952Y-9696571D01*
X6571476Y-9677524D01*
X6581000Y-9648952D01*
X6590524Y-9601333D01*
X6590524Y-9563238D01*
X6581000Y-9515619D01*
X6571476Y-9487048D01*
X6561952Y-9468000D01*
X6542905Y-9439429D01*
X6533381Y-9429905D01*
X1371000Y-9732000D02*
X1571000Y-9932000D01*
X1571000Y-9732000D02*
X1371000Y-9932000D01*
X1471000Y-9932000D02*
X1571000Y-9832000D01*
X1471000Y-9732000D01*
X1371000Y-9832000D01*
X1471000Y-9932000D01*
X1809571Y-9722476D02*
X1933381Y-9722476D01*
X1866714Y-9798667D01*
X1895286Y-9798667D01*
X1914333Y-9808190D01*
X1923857Y-9817714D01*
X1933381Y-9836762D01*
X1933381Y-9884381D01*
X1923857Y-9903429D01*
X1914333Y-9912952D01*
X1895286Y-9922476D01*
X1838143Y-9922476D01*
X1819095Y-9912952D01*
X1809571Y-9903429D01*
X2019095Y-9903429D02*
X2028619Y-9912952D01*
X2019095Y-9922476D01*
X2009571Y-9912952D01*
X2019095Y-9903429D01*
X2019095Y-9922476D01*
X2152429Y-9722476D02*
X2171476Y-9722476D01*
X2190524Y-9732000D01*
X2200048Y-9741524D01*
X2209571Y-9760571D01*
X2219095Y-9798667D01*
X2219095Y-9846286D01*
X2209571Y-9884381D01*
X2200048Y-9903429D01*
X2190524Y-9912952D01*
X2171476Y-9922476D01*
X2152429Y-9922476D01*
X2133381Y-9912952D01*
X2123857Y-9903429D01*
X2114333Y-9884381D01*
X2104810Y-9846286D01*
X2104810Y-9798667D01*
X2114333Y-9760571D01*
X2123857Y-9741524D01*
X2133381Y-9732000D01*
X2152429Y-9722476D01*
X2342905Y-9722476D02*
X2361952Y-9722476D01*
X2381000Y-9732000D01*
X2390524Y-9741524D01*
X2400048Y-9760571D01*
X2409571Y-9798667D01*
X2409571Y-9846286D01*
X2400048Y-9884381D01*
X2390524Y-9903429D01*
X2381000Y-9912952D01*
X2361952Y-9922476D01*
X2342905Y-9922476D01*
X2323857Y-9912952D01*
X2314333Y-9903429D01*
X2304810Y-9884381D01*
X2295286Y-9846286D01*
X2295286Y-9798667D01*
X2304810Y-9760571D01*
X2314333Y-9741524D01*
X2323857Y-9732000D01*
X2342905Y-9722476D01*
X2533381Y-9722476D02*
X2552429Y-9722476D01*
X2571476Y-9732000D01*
X2581000Y-9741524D01*
X2590524Y-9760571D01*
X2600048Y-9798667D01*
X2600048Y-9846286D01*
X2590524Y-9884381D01*
X2581000Y-9903429D01*
X2571476Y-9912952D01*
X2552429Y-9922476D01*
X2533381Y-9922476D01*
X2514333Y-9912952D01*
X2504810Y-9903429D01*
X2495286Y-9884381D01*
X2485762Y-9846286D01*
X2485762Y-9798667D01*
X2495286Y-9760571D01*
X2504810Y-9741524D01*
X2514333Y-9732000D01*
X2533381Y-9722476D01*
X2685762Y-9922476D02*
X2685762Y-9789143D01*
X2685762Y-9808190D02*
X2695286Y-9798667D01*
X2714333Y-9789143D01*
X2742905Y-9789143D01*
X2761952Y-9798667D01*
X2771476Y-9817714D01*
X2771476Y-9922476D01*
X2771476Y-9817714D02*
X2781000Y-9798667D01*
X2800048Y-9789143D01*
X2828619Y-9789143D01*
X2847667Y-9798667D01*
X2857190Y-9817714D01*
X2857190Y-9922476D01*
X2952428Y-9922476D02*
X2952428Y-9789143D01*
X2952428Y-9808190D02*
X2961952Y-9798667D01*
X2981000Y-9789143D01*
X3009571Y-9789143D01*
X3028619Y-9798667D01*
X3038143Y-9817714D01*
X3038143Y-9922476D01*
X3038143Y-9817714D02*
X3047667Y-9798667D01*
X3066714Y-9789143D01*
X3095286Y-9789143D01*
X3114333Y-9798667D01*
X3123857Y-9817714D01*
X3123857Y-9922476D01*
X3514333Y-9712952D02*
X3342905Y-9970095D01*
X3771476Y-9722476D02*
X3790524Y-9722476D01*
X3809571Y-9732000D01*
X3819095Y-9741524D01*
X3828619Y-9760571D01*
X3838143Y-9798667D01*
X3838143Y-9846286D01*
X3828619Y-9884381D01*
X3819095Y-9903429D01*
X3809571Y-9912952D01*
X3790524Y-9922476D01*
X3771476Y-9922476D01*
X3752428Y-9912952D01*
X3742905Y-9903429D01*
X3733381Y-9884381D01*
X3723857Y-9846286D01*
X3723857Y-9798667D01*
X3733381Y-9760571D01*
X3742905Y-9741524D01*
X3752428Y-9732000D01*
X3771476Y-9722476D01*
X3923857Y-9903429D02*
X3933381Y-9912952D01*
X3923857Y-9922476D01*
X3914333Y-9912952D01*
X3923857Y-9903429D01*
X3923857Y-9922476D01*
X4123857Y-9922476D02*
X4009571Y-9922476D01*
X4066714Y-9922476D02*
X4066714Y-9722476D01*
X4047667Y-9751048D01*
X4028619Y-9770095D01*
X4009571Y-9779619D01*
X4314333Y-9922476D02*
X4200048Y-9922476D01*
X4257190Y-9922476D02*
X4257190Y-9722476D01*
X4238143Y-9751048D01*
X4219095Y-9770095D01*
X4200048Y-9779619D01*
X4428619Y-9808190D02*
X4409571Y-9798667D01*
X4400048Y-9789143D01*
X4390524Y-9770095D01*
X4390524Y-9760571D01*
X4400048Y-9741524D01*
X4409571Y-9732000D01*
X4428619Y-9722476D01*
X4466714Y-9722476D01*
X4485762Y-9732000D01*
X4495286Y-9741524D01*
X4504810Y-9760571D01*
X4504810Y-9770095D01*
X4495286Y-9789143D01*
X4485762Y-9798667D01*
X4466714Y-9808190D01*
X4428619Y-9808190D01*
X4409571Y-9817714D01*
X4400048Y-9827238D01*
X4390524Y-9846286D01*
X4390524Y-9884381D01*
X4400048Y-9903429D01*
X4409571Y-9912952D01*
X4428619Y-9922476D01*
X4466714Y-9922476D01*
X4485762Y-9912952D01*
X4495286Y-9903429D01*
X4504810Y-9884381D01*
X4504810Y-9846286D01*
X4495286Y-9827238D01*
X4485762Y-9817714D01*
X4466714Y-9808190D01*
X4695286Y-9922476D02*
X4581000Y-9922476D01*
X4638143Y-9922476D02*
X4638143Y-9722476D01*
X4619095Y-9751048D01*
X4600048Y-9770095D01*
X4581000Y-9779619D01*
X4771476Y-9722476D02*
X4771476Y-9760571D01*
X4847667Y-9722476D02*
X4847667Y-9760571D01*
X5142905Y-9998667D02*
X5133381Y-9989143D01*
X5114333Y-9960571D01*
X5104810Y-9941524D01*
X5095286Y-9912952D01*
X5085762Y-9865333D01*
X5085762Y-9827238D01*
X5095286Y-9779619D01*
X5104810Y-9751048D01*
X5114333Y-9732000D01*
X5133381Y-9703429D01*
X5142905Y-9693905D01*
X5304810Y-9789143D02*
X5304810Y-9922476D01*
X5257190Y-9712952D02*
X5209571Y-9855810D01*
X5333381Y-9855810D01*
X5561952Y-9922476D02*
X5561952Y-9722476D01*
X5647667Y-9922476D02*
X5647667Y-9817714D01*
X5638143Y-9798667D01*
X5619095Y-9789143D01*
X5590524Y-9789143D01*
X5571476Y-9798667D01*
X5561952Y-9808190D01*
X5771476Y-9922476D02*
X5752428Y-9912952D01*
X5742905Y-9903429D01*
X5733381Y-9884381D01*
X5733381Y-9827238D01*
X5742905Y-9808190D01*
X5752428Y-9798667D01*
X5771476Y-9789143D01*
X5800048Y-9789143D01*
X5819095Y-9798667D01*
X5828619Y-9808190D01*
X5838143Y-9827238D01*
X5838143Y-9884381D01*
X5828619Y-9903429D01*
X5819095Y-9912952D01*
X5800048Y-9922476D01*
X5771476Y-9922476D01*
X5952428Y-9922476D02*
X5933381Y-9912952D01*
X5923857Y-9893905D01*
X5923857Y-9722476D01*
X6104809Y-9912952D02*
X6085762Y-9922476D01*
X6047667Y-9922476D01*
X6028619Y-9912952D01*
X6019095Y-9893905D01*
X6019095Y-9817714D01*
X6028619Y-9798667D01*
X6047667Y-9789143D01*
X6085762Y-9789143D01*
X6104809Y-9798667D01*
X6114333Y-9817714D01*
X6114333Y-9836762D01*
X6019095Y-9855810D01*
X6190524Y-9912952D02*
X6209571Y-9922476D01*
X6247667Y-9922476D01*
X6266714Y-9912952D01*
X6276238Y-9893905D01*
X6276238Y-9884381D01*
X6266714Y-9865333D01*
X6247667Y-9855810D01*
X6219095Y-9855810D01*
X6200048Y-9846286D01*
X6190524Y-9827238D01*
X6190524Y-9817714D01*
X6200048Y-9798667D01*
X6219095Y-9789143D01*
X6247667Y-9789143D01*
X6266714Y-9798667D01*
X6342905Y-9998667D02*
X6352428Y-9989143D01*
X6371476Y-9960571D01*
X6381000Y-9941524D01*
X6390524Y-9912952D01*
X6400048Y-9865333D01*
X6400048Y-9827238D01*
X6390524Y-9779619D01*
X6381000Y-9751048D01*
X6371476Y-9732000D01*
X6352428Y-9703429D01*
X6342905Y-9693905D01*
M02*
