M48
; DRILL file {KiCad (6.0.10-0)} date Tuesday, December 27, 2022 at 11:39:31 PM
; FORMAT={-:-/ absolute / inch / decimal}
; #@! TF.CreationDate,2022-12-27T23:39:31-08:00
; #@! TF.GenerationSoftware,Kicad,Pcbnew,(6.0.10-0)
; #@! TF.FileFunction,Plated,1,4,PTH
FMAT,2
INCH
; #@! TA.AperFunction,Plated,PTH,ComponentDrill
T1C0.0079
; #@! TA.AperFunction,Plated,PTH,ViaDrill
T2C0.0118
; #@! TA.AperFunction,Plated,PTH,ViaDrill
T3C0.0157
; #@! TA.AperFunction,Plated,PTH,ComponentDrill
T4C0.0197
; #@! TA.AperFunction,Plated,PTH,ComponentDrill
T5C0.0354
; #@! TA.AperFunction,Plated,PTH,ComponentDrill
T6C0.0394
; #@! TA.AperFunction,Plated,PTH,ComponentDrill
T7C0.0433
; #@! TA.AperFunction,Plated,PTH,ComponentDrill
T8C0.0524
; #@! TA.AperFunction,Plated,PTH,ComponentDrill
T9C0.1181
%
G90
G05
T1
X1.4094Y-1.9314
X1.4561Y-1.9009
X1.4561Y-1.9314
X1.4561Y-1.9619
X1.5021Y-1.9009
X1.5021Y-1.9314
X1.5021Y-1.9619
X1.5482Y-1.9009
X1.5482Y-1.9314
X1.5482Y-1.9619
X1.5943Y-1.9009
X1.5943Y-1.9314
X1.5943Y-1.9619
X1.6403Y-1.9009
X1.6403Y-1.9314
X1.6403Y-1.9619
X1.687Y-1.9314
X3.4732Y-1.9315
X3.5198Y-1.901
X3.5198Y-1.9315
X3.5198Y-1.962
X3.5659Y-1.901
X3.5659Y-1.9315
X3.5659Y-1.962
X3.612Y-1.901
X3.612Y-1.9315
X3.612Y-1.962
X3.658Y-1.901
X3.658Y-1.9315
X3.658Y-1.962
X3.7041Y-1.901
X3.7041Y-1.9315
X3.7041Y-1.962
X3.7507Y-1.9315
T2
X0.7Y-0.76
X0.72Y-2.18
X0.73Y-1.29
X0.75Y-1.66
X0.8651Y-2.392
X0.8743Y-0.9112
X0.8841Y-0.9781
X0.8988Y-2.5102
X0.9Y-2.3979
X0.9235Y-0.9098
X0.9309Y-1.36
X0.9321Y-1.4072
X0.94Y-2.22
X0.94Y-2.37
X0.9471Y-1.3824
X0.9502Y-0.7529
X0.9502Y-0.8313
X0.9664Y-1.4021
X0.9676Y-1.3624
X0.9693Y-2.5102
X0.9754Y-1.1116
X0.9754Y-1.16
X0.98Y-1.76
X0.9865Y-1.384
X0.99Y-2.12
X0.9904Y-1.136
X1.0046Y-1.1116
X1.005Y-1.1608
X1.005Y-1.4033
X1.0069Y-1.3628
X1.0147Y-2.566
X1.0226Y-2.5064
X1.027Y-1.384
X1.0278Y-0.7529
X1.0286Y-0.8309
X1.04Y-2.07
X1.0431Y-0.9098
X1.0467Y-1.362
X1.047Y-1.0439
X1.0475Y-1.4061
X1.065Y-1.112
X1.066Y-1.1604
X1.0754Y-2.1499
X1.0806Y-1.1356
X1.0817Y-2.5064
X1.09Y-2.02
X1.0955Y-1.1112
X1.0955Y-1.1604
X1.1149Y-1.0439
X1.14Y-1.97
X1.1408Y-2.5064
X1.1807Y-1.8083
X1.1998Y-2.5064
X1.2232Y-2.1083
X1.27Y-2.39
X1.3033Y-1.8771
X1.3057Y-1.9159
X1.31Y-2.39
X1.33Y-2.01
X1.3309Y-1.8315
X1.35Y-2.39
X1.38Y-1.47
X1.38Y-1.56
X1.38Y-1.64
X1.38Y-1.72
X1.39Y-2.39
X1.4Y-1.26
X1.43Y-2.39
X1.45Y-1.4
X1.46Y-2.36
X1.49Y-2.33
X1.5Y-1.51
X1.52Y-1.33
X1.55Y-2.48
X1.56Y-2.66
X1.58Y-1.44
X1.5821Y-2.3007
X1.59Y-1.26
X1.64Y-1.38
X1.69Y-1.12
X1.69Y-1.21
X1.71Y-0.83
X1.74Y-2.04
X1.75Y-1.37
X1.7801Y-1.9936
X1.7813Y-2.394
X1.79Y-1.21
X1.7941Y-1.289
X1.8013Y-1.7543
X1.8049Y-2.4235
X1.8084Y-1.9586
X1.81Y-2.12
X1.8494Y-1.9015
X1.85Y-1.66
X1.8634Y-1.8291
X1.87Y-1.37
X1.8779Y-1.9304
X1.88Y-1.21
X1.9Y-2.03
X1.9Y-2.15
X1.9117Y-2.398
X1.936Y-2.5064
X1.9498Y-2.3987
X1.9509Y-1.7075
X1.97Y-1.21
X1.9818Y-2.3993
X1.9894Y-2.5102
X2.01Y-1.37
X2.03Y-2.15
X2.0541Y-2.5064
X2.07Y-1.21
X2.08Y-2.15
X2.1Y-1.88
X2.1132Y-2.5064
X2.1155Y-1.7008
X2.13Y-2.15
X2.14Y-1.37
X2.17Y-1.21
X2.1702Y-1.2805
X2.1723Y-2.5064
X2.19Y-2.2
X2.1954Y-1.2998
X2.23Y-2.24
X2.2313Y-2.5064
X2.27Y-1.37
X2.27Y-2.28
X2.28Y-2.37
X2.36Y-1.21
X2.42Y-1.37
X2.47Y-1.21
X2.47Y-2.11
X2.53Y-1.37
X2.54Y-2.57
X2.58Y-1.21
X2.64Y-1.37
X2.68Y-1.21
X2.74Y-1.37
X2.74Y-2.29
X2.78Y-1.21
X2.84Y-1.37
X2.87Y-1.17
X2.9285Y-2.3759
X2.94Y-1.33
X2.9622Y-2.5103
X2.97Y-2.38
X3.0Y-2.17
X3.0Y-2.34
X3.01Y-1.03
X3.01Y-1.26
X3.02Y-1.37
X3.0326Y-2.5103
X3.05Y-1.93
X3.0573Y-2.5755
X3.06Y-2.1
X3.08Y-0.96
X3.086Y-2.5065
X3.09Y-1.18
X3.11Y-2.05
X3.13Y-1.37
X3.1398Y-2.132
X3.1451Y-2.5065
X3.15Y-0.89
X3.16Y-2.0
X3.2041Y-2.5065
X3.21Y-1.95
X3.23Y-1.03
X3.2398Y-1.8051
X3.2632Y-2.5065
X3.2744Y-2.0988
X3.32Y-2.37
X3.3596Y-1.5257
X3.3596Y-1.5569
X3.36Y-2.37
X3.3608Y-1.5895
X3.3608Y-1.6207
X3.3612Y-1.4628
X3.3612Y-1.4939
X3.3616Y-1.4001
X3.3616Y-1.4313
X3.3687Y-1.916
X3.3735Y-1.8849
X3.3879Y-1.8362
X3.4Y-2.37
X3.41Y-1.33
X3.42Y-2.04
X3.423Y-0.9213
X3.44Y-1.12
X3.44Y-2.37
X3.45Y-1.23
X3.4653Y-0.95
X3.48Y-1.06
X3.48Y-2.37
X3.4852Y-0.8864
X3.5192Y-1.128
X3.52Y-2.36
X3.5251Y-0.9149
X3.5324Y-1.078
X3.5441Y-0.9511
X3.55Y-2.33
X3.5818Y-1.1323
X3.5974Y-0.955
X3.61Y-2.7
X3.613Y-1.1323
X3.63Y-2.47
X3.6409Y-1.1051
X3.6484Y-2.2969
X3.6565Y-0.955
X3.6721Y-1.1051
X3.6999Y-1.128
X3.7155Y-0.955
X3.7311Y-1.128
X3.759Y-1.1
X3.7746Y-0.955
X3.782Y-1.6276
X3.7902Y-1.1
X3.81Y-2.04
X3.821Y-1.6217
X3.8325Y-0.896
X3.8565Y-2.0216
X3.86Y-1.06
X3.86Y-1.2
X3.86Y-1.41
X3.8603Y-1.6141
X3.8702Y-1.9313
X3.8738Y-2.4137
X3.8785Y-2.3696
X3.89Y-2.11
X3.8947Y-1.9952
X3.897Y-1.9019
X3.9087Y-1.3622
X3.9094Y-1.2839
X3.9283Y-1.5189
X3.9525Y-1.0209
X3.96Y-2.12
X3.98Y-2.36
X4.0Y-2.507
X4.0077Y-2.3782
X4.0163Y-1.5201
X4.0529Y-2.3782
X4.0531Y-2.5103
X4.0884Y-1.1264
X4.0884Y-1.3626
X4.09Y-2.12
X4.1175Y-2.5065
X4.13Y-1.96
X4.14Y-2.12
X4.1766Y-2.5065
X4.18Y-2.12
X4.2356Y-2.5065
X4.2947Y-2.5065
X4.34Y-2.25
X4.34Y-2.32
X4.35Y-2.38
X4.3523Y-1.8189
X4.4202Y-1.8189
X4.606Y-2.4488
X4.606Y-2.6299
X4.61Y-2.2677
X4.6124Y-2.0862
X4.6844Y-1.3606
X4.6869Y-1.1264
X4.6869Y-1.2051
X4.6869Y-1.4413
X4.6869Y-1.5201
X4.6869Y-1.5988
X4.74Y-2.36
X4.7873Y-1.4413
X4.84Y-1.96
X4.85Y-1.21
X4.87Y-0.78
T3
X1.7956Y-1.8283
X3.8542Y-1.8378
X3.9077Y-1.1268
X3.922Y-1.8378
X4.8382Y-2.4508
X4.8382Y-2.6272
X4.8422Y-2.0854
X4.8426Y-2.2697
X4.8632Y-1.5992
X4.8636Y-1.4441
X4.8652Y-1.5209
T5
X2.6288Y-2.0866
X2.7272Y-2.0866
X2.8256Y-2.0866
T6
X2.3209Y-1.8776
X2.4209Y-1.8776
X2.5209Y-1.8776
X2.6209Y-1.8776
X2.7209Y-1.8776
X2.8209Y-1.8776
T7
X1.9419Y-0.8287
X1.9419Y-1.0846
X2.119Y-0.8287
X2.119Y-1.0846
X2.3537Y-0.8287
X2.3537Y-1.0846
X2.5309Y-0.8287
X2.5309Y-1.0846
X2.7462Y-0.8307
X2.7462Y-1.0866
X2.9234Y-0.8307
X2.9234Y-1.0866
T8
X0.7234Y-2.6833
X0.7471Y-2.4904
X1.3179Y-2.4904
X1.3415Y-2.6833
X1.7549Y-2.6833
X1.7786Y-2.4904
X2.3494Y-2.4904
X2.373Y-2.6833
X2.7868Y-2.6834
X2.8104Y-2.4905
X3.2982Y-0.7781
X3.3218Y-0.971
X3.3813Y-2.4905
X3.4049Y-2.6834
X3.8183Y-2.6834
X3.8419Y-2.4905
X3.8927Y-0.971
X3.9163Y-0.7781
X4.4128Y-2.4905
X4.4364Y-2.6834
T9
X0.85Y-2.0
X1.43Y-0.95
X3.25Y-1.22
X4.33Y-2.07
T4
G00X0.8132Y-0.7462
M15
G01X0.8132Y-0.7738
M16
G05
G00X0.8132Y-0.8958
M15
G01X0.8132Y-0.9234
M16
G05
G00X1.1534Y-0.7462
M15
G01X1.1534Y-0.7738
M16
G05
G00X1.1534Y-0.8958
M15
G01X1.1534Y-0.9234
M16
G05
T0
M30
